G04*
G04 #@! TF.GenerationSoftware,Altium Limited,Altium Designer,18.0.10 (644)*
G04*
G04 Layer_Physical_Order=2*
G04 Layer_Color=36540*
%FSLAX25Y25*%
%MOIN*%
G70*
G01*
G75*
%ADD107O,0.04724X0.07874*%
%ADD108O,0.04724X0.09055*%
%ADD111C,0.01968*%
%ADD114C,0.02400*%
G36*
X376701Y398303D02*
X378458Y397890D01*
X380145Y397246D01*
X381730Y396382D01*
X383186Y395314D01*
X384485Y394061D01*
X385606Y392646D01*
X386528Y391094D01*
X387234Y389433D01*
X387713Y387692D01*
X387954Y385903D01*
Y385000D01*
X387944D01*
Y164998D01*
X387978Y164096D01*
X387803Y162299D01*
X387390Y160542D01*
X386746Y158855D01*
X385882Y157270D01*
X384814Y155815D01*
X383561Y154515D01*
X382146Y153394D01*
X380594Y152472D01*
X378933Y151766D01*
X377192Y151287D01*
X375403Y151046D01*
X374500D01*
Y151056D01*
X124998Y151056D01*
X124096Y151022D01*
X122299Y151197D01*
X120542Y151610D01*
X118855Y152254D01*
X117270Y153118D01*
X115814Y154186D01*
X114515Y155439D01*
X113394Y156854D01*
X112472Y158406D01*
X111766Y160067D01*
X111287Y161808D01*
X111046Y163597D01*
Y164500D01*
Y214000D01*
X125000Y214000D01*
X127500Y216500D01*
X127500Y242500D01*
X136500D01*
Y216500D01*
X139500Y213500D01*
X151000D01*
X154000Y216500D01*
X154000Y273339D01*
X149839Y277500D01*
X111046Y312958D01*
Y384493D01*
X111056Y384502D01*
X111056D01*
X111022Y385404D01*
X111197Y387201D01*
X111610Y388958D01*
X112255Y390645D01*
X113118Y392230D01*
X114186Y393686D01*
X115439Y394985D01*
X116854Y396106D01*
X118406Y397028D01*
X120067Y397734D01*
X121808Y398213D01*
X123597Y398454D01*
X124500D01*
Y398444D01*
X374002D01*
X374904Y398478D01*
X376701Y398303D01*
D02*
G37*
%LPC*%
G36*
X162000Y392013D02*
X161421Y391898D01*
X160930Y391570D01*
X160602Y391079D01*
X160487Y390500D01*
X160602Y389921D01*
X160930Y389430D01*
X161421Y389102D01*
X162000Y388987D01*
X162579Y389102D01*
X163070Y389430D01*
X163398Y389921D01*
X163513Y390500D01*
X163398Y391079D01*
X163070Y391570D01*
X162579Y391898D01*
X162000Y392013D01*
D02*
G37*
G36*
X344109Y380122D02*
X343529Y380007D01*
X343038Y379679D01*
X342710Y379188D01*
X342595Y378608D01*
X342710Y378029D01*
X343038Y377538D01*
X343529Y377210D01*
X344109Y377095D01*
X344688Y377210D01*
X345179Y377538D01*
X345507Y378029D01*
X345622Y378608D01*
X345507Y379188D01*
X345179Y379679D01*
X344688Y380007D01*
X344109Y380122D01*
D02*
G37*
G36*
X340000Y380013D02*
X339421Y379898D01*
X338930Y379570D01*
X338602Y379079D01*
X338487Y378500D01*
X338602Y377921D01*
X338930Y377430D01*
X339421Y377102D01*
X340000Y376987D01*
X340579Y377102D01*
X341070Y377430D01*
X341398Y377921D01*
X341513Y378500D01*
X341398Y379079D01*
X341070Y379570D01*
X340579Y379898D01*
X340000Y380013D01*
D02*
G37*
G36*
X352534Y379389D02*
X351762Y379236D01*
X351109Y378799D01*
X350672Y378145D01*
X350518Y377374D01*
X350672Y376603D01*
X351109Y375949D01*
X351762Y375512D01*
X352534Y375359D01*
X353305Y375512D01*
X353958Y375949D01*
X354395Y376603D01*
X354549Y377374D01*
X354395Y378145D01*
X353958Y378799D01*
X353305Y379236D01*
X352534Y379389D01*
D02*
G37*
G36*
X329778D02*
X329006Y379236D01*
X328353Y378799D01*
X327916Y378145D01*
X327762Y377374D01*
X327916Y376603D01*
X328353Y375949D01*
X329006Y375512D01*
X329778Y375359D01*
X330549Y375512D01*
X331202Y375949D01*
X331639Y376603D01*
X331793Y377374D01*
X331639Y378145D01*
X331202Y378799D01*
X330549Y379236D01*
X329778Y379389D01*
D02*
G37*
G36*
X374500Y395374D02*
X372877Y395247D01*
X371294Y394867D01*
X369790Y394244D01*
X368402Y393393D01*
X367164Y392336D01*
X366107Y391098D01*
X365256Y389710D01*
X364633Y388206D01*
X364253Y386623D01*
X364125Y385000D01*
X364253Y383377D01*
X364633Y381794D01*
X365256Y380290D01*
X366107Y378902D01*
X367164Y377664D01*
X368402Y376607D01*
X369790Y375756D01*
X371294Y375133D01*
X372877Y374753D01*
X374500Y374625D01*
X376123Y374753D01*
X377706Y375133D01*
X379210Y375756D01*
X380598Y376607D01*
X381836Y377664D01*
X382893Y378902D01*
X383744Y380290D01*
X384367Y381794D01*
X384747Y383377D01*
X384875Y385000D01*
X384747Y386623D01*
X384367Y388206D01*
X383744Y389710D01*
X382893Y391098D01*
X381836Y392336D01*
X380598Y393393D01*
X379210Y394244D01*
X377706Y394867D01*
X376123Y395247D01*
X374500Y395374D01*
D02*
G37*
G36*
X124500D02*
X122877Y395247D01*
X121294Y394867D01*
X119790Y394244D01*
X118402Y393393D01*
X117164Y392336D01*
X116107Y391098D01*
X115256Y389710D01*
X114633Y388206D01*
X114253Y386623D01*
X114126Y385000D01*
X114253Y383377D01*
X114633Y381794D01*
X115256Y380290D01*
X116107Y378902D01*
X117164Y377664D01*
X118402Y376607D01*
X119790Y375756D01*
X121294Y375133D01*
X122877Y374753D01*
X124500Y374625D01*
X126123Y374753D01*
X127706Y375133D01*
X129210Y375756D01*
X130598Y376607D01*
X131836Y377664D01*
X132893Y378902D01*
X133744Y380290D01*
X134367Y381794D01*
X134747Y383377D01*
X134874Y385000D01*
X134747Y386623D01*
X134367Y388206D01*
X133744Y389710D01*
X132893Y391098D01*
X131836Y392336D01*
X130598Y393393D01*
X129210Y394244D01*
X127706Y394867D01*
X126123Y395247D01*
X124500Y395374D01*
D02*
G37*
G36*
X306807Y379219D02*
X306024Y379116D01*
X305294Y378813D01*
X304667Y378332D01*
X304187Y377706D01*
X303884Y376976D01*
X303781Y376193D01*
X303884Y375410D01*
X304187Y374680D01*
X304667Y374053D01*
X305294Y373572D01*
X306024Y373270D01*
X306807Y373167D01*
X307590Y373270D01*
X308320Y373572D01*
X308947Y374053D01*
X309428Y374680D01*
X309730Y375410D01*
X309833Y376193D01*
X309730Y376976D01*
X309428Y377706D01*
X308947Y378332D01*
X308320Y378813D01*
X307590Y379116D01*
X306807Y379219D01*
D02*
G37*
G36*
X246000Y378526D02*
X245217Y378423D01*
X244487Y378120D01*
X243860Y377640D01*
X243379Y377013D01*
X243077Y376283D01*
X242974Y375500D01*
X243077Y374717D01*
X243379Y373987D01*
X243860Y373360D01*
X244487Y372880D01*
X245217Y372577D01*
X246000Y372474D01*
X246783Y372577D01*
X247513Y372880D01*
X248140Y373360D01*
X248621Y373987D01*
X248923Y374717D01*
X249026Y375500D01*
X248923Y376283D01*
X248621Y377013D01*
X248140Y377640D01*
X247513Y378120D01*
X246783Y378423D01*
X246000Y378526D01*
D02*
G37*
G36*
X350500Y369526D02*
X349717Y369423D01*
X348987Y369121D01*
X348360Y368640D01*
X347880Y368013D01*
X347577Y367283D01*
X347474Y366500D01*
X347577Y365717D01*
X347880Y364987D01*
X348360Y364360D01*
X348987Y363879D01*
X349717Y363577D01*
X350500Y363474D01*
X351283Y363577D01*
X352013Y363879D01*
X352640Y364360D01*
X353120Y364987D01*
X353423Y365717D01*
X353526Y366500D01*
X353423Y367283D01*
X353120Y368013D01*
X352640Y368640D01*
X352013Y369121D01*
X351283Y369423D01*
X350500Y369526D01*
D02*
G37*
G36*
X331500D02*
X330717Y369423D01*
X329987Y369121D01*
X329360Y368640D01*
X328879Y368013D01*
X328577Y367283D01*
X328474Y366500D01*
X328577Y365717D01*
X328879Y364987D01*
X329360Y364360D01*
X329987Y363879D01*
X330717Y363577D01*
X331500Y363474D01*
X332283Y363577D01*
X333013Y363879D01*
X333640Y364360D01*
X334120Y364987D01*
X334423Y365717D01*
X334526Y366500D01*
X334423Y367283D01*
X334120Y368013D01*
X333640Y368640D01*
X333013Y369121D01*
X332283Y369423D01*
X331500Y369526D01*
D02*
G37*
G36*
X350500Y349013D02*
X349921Y348898D01*
X349430Y348570D01*
X349102Y348079D01*
X348987Y347500D01*
X349102Y346921D01*
X349430Y346430D01*
X349921Y346102D01*
X350500Y345987D01*
X351079Y346102D01*
X351570Y346430D01*
X351898Y346921D01*
X352013Y347500D01*
X351898Y348079D01*
X351570Y348570D01*
X351079Y348898D01*
X350500Y349013D01*
D02*
G37*
G36*
X184500Y339513D02*
X183921Y339398D01*
X183430Y339070D01*
X183102Y338579D01*
X182987Y338000D01*
X183102Y337421D01*
X183430Y336930D01*
X183921Y336602D01*
X184500Y336487D01*
X185079Y336602D01*
X185570Y336930D01*
X185898Y337421D01*
X186013Y338000D01*
X185898Y338579D01*
X185570Y339070D01*
X185079Y339398D01*
X184500Y339513D01*
D02*
G37*
G36*
X202000Y339513D02*
X201421Y339398D01*
X200930Y339070D01*
X200602Y338579D01*
X200487Y338000D01*
X200602Y337421D01*
X200930Y336930D01*
X201421Y336602D01*
X202000Y336487D01*
X202579Y336602D01*
X203070Y336930D01*
X203398Y337421D01*
X203513Y338000D01*
X203398Y338579D01*
X203070Y339070D01*
X202579Y339398D01*
X202000Y339513D01*
D02*
G37*
G36*
X155500Y337013D02*
X154921Y336898D01*
X154430Y336570D01*
X154102Y336079D01*
X153987Y335500D01*
X154102Y334921D01*
X154430Y334430D01*
X154921Y334102D01*
X155500Y333987D01*
X156079Y334102D01*
X156570Y334430D01*
X156898Y334921D01*
X157013Y335500D01*
X156898Y336079D01*
X156570Y336570D01*
X156079Y336898D01*
X155500Y337013D01*
D02*
G37*
G36*
X148000D02*
X147421Y336898D01*
X146930Y336570D01*
X146602Y336079D01*
X146487Y335500D01*
X146602Y334921D01*
X146930Y334430D01*
X147421Y334102D01*
X148000Y333987D01*
X148579Y334102D01*
X149070Y334430D01*
X149398Y334921D01*
X149513Y335500D01*
X149398Y336079D01*
X149070Y336570D01*
X148579Y336898D01*
X148000Y337013D01*
D02*
G37*
G36*
X140500D02*
X139921Y336898D01*
X139430Y336570D01*
X139102Y336079D01*
X138987Y335500D01*
X139102Y334921D01*
X139430Y334430D01*
X139921Y334102D01*
X140500Y333987D01*
X141079Y334102D01*
X141570Y334430D01*
X141898Y334921D01*
X142013Y335500D01*
X141898Y336079D01*
X141570Y336570D01*
X141079Y336898D01*
X140500Y337013D01*
D02*
G37*
G36*
X276000Y329013D02*
X275421Y328898D01*
X274930Y328570D01*
X274602Y328079D01*
X274487Y327500D01*
X274602Y326921D01*
X274930Y326430D01*
X275421Y326102D01*
X276000Y325987D01*
X276579Y326102D01*
X277070Y326430D01*
X277398Y326921D01*
X277513Y327500D01*
X277398Y328079D01*
X277070Y328570D01*
X276579Y328898D01*
X276000Y329013D01*
D02*
G37*
G36*
X353500Y325513D02*
X352921Y325398D01*
X352430Y325070D01*
X352102Y324579D01*
X351987Y324000D01*
X352102Y323421D01*
X352430Y322930D01*
X352921Y322602D01*
X353500Y322487D01*
X354079Y322602D01*
X354570Y322930D01*
X354898Y323421D01*
X355013Y324000D01*
X354898Y324579D01*
X354570Y325070D01*
X354079Y325398D01*
X353500Y325513D01*
D02*
G37*
G36*
X331500Y317513D02*
X330921Y317398D01*
X330430Y317070D01*
X330102Y316579D01*
X329987Y316000D01*
X330102Y315421D01*
X330430Y314930D01*
X330921Y314602D01*
X331500Y314487D01*
X332079Y314602D01*
X332570Y314930D01*
X332898Y315421D01*
X333013Y316000D01*
X332898Y316579D01*
X332570Y317070D01*
X332079Y317398D01*
X331500Y317513D01*
D02*
G37*
G36*
X329500Y314013D02*
X328921Y313898D01*
X328430Y313570D01*
X328102Y313079D01*
X327987Y312500D01*
X328102Y311921D01*
X328430Y311430D01*
X328921Y311102D01*
X329500Y310987D01*
X330079Y311102D01*
X330570Y311430D01*
X330898Y311921D01*
X331013Y312500D01*
X330898Y313079D01*
X330570Y313570D01*
X330079Y313898D01*
X329500Y314013D01*
D02*
G37*
G36*
X180500Y311013D02*
X179921Y310898D01*
X179430Y310570D01*
X179102Y310079D01*
X178987Y309500D01*
X179102Y308921D01*
X179430Y308430D01*
X179921Y308102D01*
X180500Y307987D01*
X181079Y308102D01*
X181570Y308430D01*
X181898Y308921D01*
X182013Y309500D01*
X181898Y310079D01*
X181570Y310570D01*
X181079Y310898D01*
X180500Y311013D01*
D02*
G37*
G36*
X229941Y310954D02*
X229362Y310839D01*
X228871Y310511D01*
X228542Y310020D01*
X228427Y309441D01*
X228542Y308861D01*
X228871Y308370D01*
X229362Y308043D01*
X229941Y307927D01*
X230520Y308043D01*
X231011Y308370D01*
X231339Y308861D01*
X231454Y309441D01*
X231339Y310020D01*
X231011Y310511D01*
X230520Y310839D01*
X229941Y310954D01*
D02*
G37*
G36*
X263500Y305513D02*
X262921Y305398D01*
X262430Y305070D01*
X262102Y304579D01*
X261987Y304000D01*
X262102Y303421D01*
X262430Y302930D01*
X262921Y302602D01*
X263500Y302487D01*
X264079Y302602D01*
X264570Y302930D01*
X264898Y303421D01*
X265013Y304000D01*
X264898Y304579D01*
X264570Y305070D01*
X264079Y305398D01*
X263500Y305513D01*
D02*
G37*
G36*
X316839Y304013D02*
X316260Y303898D01*
X315769Y303570D01*
X315441Y303079D01*
X315325Y302500D01*
X315441Y301921D01*
X315769Y301430D01*
X316260Y301102D01*
X316839Y300987D01*
X317418Y301102D01*
X317909Y301430D01*
X318237Y301921D01*
X318352Y302500D01*
X318237Y303079D01*
X317909Y303570D01*
X317418Y303898D01*
X316839Y304013D01*
D02*
G37*
G36*
X212500D02*
X211921Y303898D01*
X211430Y303570D01*
X211102Y303079D01*
X210987Y302500D01*
X211102Y301921D01*
X211430Y301430D01*
X211921Y301102D01*
X212500Y300987D01*
X213079Y301102D01*
X213570Y301430D01*
X213898Y301921D01*
X214013Y302500D01*
X213898Y303079D01*
X213570Y303570D01*
X213079Y303898D01*
X212500Y304013D01*
D02*
G37*
G36*
X206000Y303513D02*
X205421Y303398D01*
X204930Y303070D01*
X204602Y302579D01*
X204487Y302000D01*
X204602Y301421D01*
X204930Y300930D01*
X205421Y300602D01*
X206000Y300487D01*
X206579Y300602D01*
X207070Y300930D01*
X207398Y301421D01*
X207513Y302000D01*
X207398Y302579D01*
X207070Y303070D01*
X206579Y303398D01*
X206000Y303513D01*
D02*
G37*
G36*
X344000Y302513D02*
X343421Y302398D01*
X342930Y302070D01*
X342602Y301579D01*
X342487Y301000D01*
X342602Y300421D01*
X342930Y299930D01*
X343421Y299602D01*
X344000Y299487D01*
X344579Y299602D01*
X345070Y299930D01*
X345398Y300421D01*
X345513Y301000D01*
X345398Y301579D01*
X345070Y302070D01*
X344579Y302398D01*
X344000Y302513D01*
D02*
G37*
G36*
X273000Y293013D02*
X272421Y292898D01*
X271930Y292570D01*
X271602Y292079D01*
X271487Y291500D01*
X271602Y290921D01*
X271930Y290430D01*
X272421Y290102D01*
X273000Y289987D01*
X273579Y290102D01*
X274070Y290430D01*
X274398Y290921D01*
X274513Y291500D01*
X274398Y292079D01*
X274070Y292570D01*
X273579Y292898D01*
X273000Y293013D01*
D02*
G37*
G36*
X198950Y291963D02*
X198371Y291848D01*
X197880Y291520D01*
X197552Y291029D01*
X197436Y290450D01*
X197552Y289871D01*
X197880Y289380D01*
X198371Y289052D01*
X198950Y288936D01*
X199529Y289052D01*
X200020Y289380D01*
X200348Y289871D01*
X200463Y290450D01*
X200348Y291029D01*
X200020Y291520D01*
X199529Y291848D01*
X198950Y291963D01*
D02*
G37*
G36*
X192500Y290513D02*
X191921Y290398D01*
X191430Y290070D01*
X191102Y289579D01*
X190987Y289000D01*
X191102Y288421D01*
X191430Y287930D01*
X191921Y287602D01*
X192500Y287487D01*
X193079Y287602D01*
X193570Y287930D01*
X193898Y288421D01*
X194013Y289000D01*
X193898Y289579D01*
X193570Y290070D01*
X193079Y290398D01*
X192500Y290513D01*
D02*
G37*
G36*
X254000Y288013D02*
X253421Y287898D01*
X252930Y287570D01*
X252602Y287079D01*
X252487Y286500D01*
X252602Y285921D01*
X252930Y285430D01*
X253421Y285102D01*
X254000Y284987D01*
X254579Y285102D01*
X255070Y285430D01*
X255398Y285921D01*
X255513Y286500D01*
X255398Y287079D01*
X255070Y287570D01*
X254579Y287898D01*
X254000Y288013D01*
D02*
G37*
G36*
X236441Y286454D02*
X235861Y286339D01*
X235370Y286011D01*
X235043Y285520D01*
X234927Y284941D01*
X235043Y284362D01*
X235370Y283871D01*
X235861Y283542D01*
X236441Y283427D01*
X237020Y283542D01*
X237511Y283871D01*
X237839Y284362D01*
X237954Y284941D01*
X237839Y285520D01*
X237511Y286011D01*
X237020Y286339D01*
X236441Y286454D01*
D02*
G37*
G36*
X219000Y283513D02*
X218421Y283398D01*
X217930Y283070D01*
X217602Y282579D01*
X217487Y282000D01*
X217602Y281421D01*
X217930Y280930D01*
X218421Y280602D01*
X219000Y280487D01*
X219579Y280602D01*
X220070Y280930D01*
X220398Y281421D01*
X220513Y282000D01*
X220398Y282579D01*
X220070Y283070D01*
X219579Y283398D01*
X219000Y283513D01*
D02*
G37*
G36*
X252500Y283013D02*
X251921Y282898D01*
X251430Y282570D01*
X251102Y282079D01*
X250987Y281500D01*
X251102Y280921D01*
X251430Y280430D01*
X251921Y280102D01*
X252500Y279987D01*
X253079Y280102D01*
X253570Y280430D01*
X253898Y280921D01*
X254013Y281500D01*
X253898Y282079D01*
X253570Y282570D01*
X253079Y282898D01*
X252500Y283013D01*
D02*
G37*
G36*
X192000Y282013D02*
X191421Y281898D01*
X190930Y281570D01*
X190602Y281079D01*
X190487Y280500D01*
X190602Y279921D01*
X190930Y279430D01*
X191421Y279102D01*
X192000Y278987D01*
X192579Y279102D01*
X193070Y279430D01*
X193398Y279921D01*
X193513Y280500D01*
X193398Y281079D01*
X193070Y281570D01*
X192579Y281898D01*
X192000Y282013D01*
D02*
G37*
G36*
X228000Y280013D02*
X227421Y279898D01*
X226930Y279570D01*
X226602Y279079D01*
X226487Y278500D01*
X226602Y277921D01*
X226930Y277430D01*
X227421Y277102D01*
X228000Y276987D01*
X228579Y277102D01*
X229070Y277430D01*
X229398Y277921D01*
X229513Y278500D01*
X229398Y279079D01*
X229070Y279570D01*
X228579Y279898D01*
X228000Y280013D01*
D02*
G37*
G36*
X232000Y279013D02*
X231421Y278898D01*
X230930Y278570D01*
X230602Y278079D01*
X230487Y277500D01*
X230602Y276921D01*
X230930Y276430D01*
X231421Y276102D01*
X232000Y275987D01*
X232579Y276102D01*
X233070Y276430D01*
X233398Y276921D01*
X233513Y277500D01*
X233398Y278079D01*
X233070Y278570D01*
X232579Y278898D01*
X232000Y279013D01*
D02*
G37*
G36*
X199000Y282513D02*
X198421Y282398D01*
X197930Y282070D01*
X197602Y281579D01*
X197487Y281000D01*
X197602Y280421D01*
X197930Y279930D01*
X198205Y279746D01*
X198229Y279573D01*
X198170Y279181D01*
X197781Y278921D01*
X197453Y278430D01*
X197338Y277851D01*
X197453Y277272D01*
X197781Y276781D01*
X198094Y276572D01*
X198120Y276474D01*
X198096Y276020D01*
X198094Y276016D01*
X197728Y275772D01*
X197400Y275281D01*
X197285Y274702D01*
X197400Y274123D01*
X197728Y273632D01*
X198219Y273304D01*
X198798Y273188D01*
X199378Y273304D01*
X199869Y273632D01*
X200197Y274123D01*
X200312Y274702D01*
X200197Y275281D01*
X199869Y275772D01*
X199555Y275981D01*
X199530Y276078D01*
X199554Y276533D01*
X199555Y276536D01*
X199921Y276781D01*
X200249Y277272D01*
X200364Y277851D01*
X200249Y278430D01*
X199921Y278921D01*
X199646Y279105D01*
X199623Y279278D01*
X199682Y279670D01*
X200070Y279930D01*
X200398Y280421D01*
X200513Y281000D01*
X200398Y281579D01*
X200070Y282070D01*
X199579Y282398D01*
X199000Y282513D01*
D02*
G37*
G36*
X192500Y276013D02*
X191921Y275898D01*
X191430Y275570D01*
X191102Y275079D01*
X190987Y274500D01*
X191102Y273921D01*
X191430Y273430D01*
X191921Y273102D01*
X192500Y272987D01*
X193079Y273102D01*
X193570Y273430D01*
X193898Y273921D01*
X194013Y274500D01*
X193898Y275079D01*
X193570Y275570D01*
X193079Y275898D01*
X192500Y276013D01*
D02*
G37*
G36*
X271118Y273631D02*
X270539Y273516D01*
X270048Y273188D01*
X269720Y272697D01*
X269605Y272118D01*
X269720Y271539D01*
X270048Y271048D01*
X270539Y270720D01*
X271118Y270605D01*
X271697Y270720D01*
X272188Y271048D01*
X272516Y271539D01*
X272631Y272118D01*
X272516Y272697D01*
X272188Y273188D01*
X271697Y273516D01*
X271118Y273631D01*
D02*
G37*
G36*
X196500Y269513D02*
X195921Y269398D01*
X195430Y269070D01*
X195102Y268579D01*
X194987Y268000D01*
X195102Y267421D01*
X195430Y266930D01*
X195921Y266602D01*
X196500Y266487D01*
X197079Y266602D01*
X197570Y266930D01*
X197898Y267421D01*
X198013Y268000D01*
X197898Y268579D01*
X197570Y269070D01*
X197079Y269398D01*
X196500Y269513D01*
D02*
G37*
G36*
Y265513D02*
X195921Y265398D01*
X195430Y265070D01*
X195102Y264579D01*
X194987Y264000D01*
X195102Y263421D01*
X195430Y262930D01*
X195921Y262602D01*
X196500Y262487D01*
X197079Y262602D01*
X197570Y262930D01*
X197898Y263421D01*
X198013Y264000D01*
X197898Y264579D01*
X197570Y265070D01*
X197079Y265398D01*
X196500Y265513D01*
D02*
G37*
G36*
X222000Y263013D02*
X221421Y262898D01*
X220930Y262570D01*
X220602Y262079D01*
X220487Y261500D01*
X220602Y260921D01*
X220930Y260430D01*
X221421Y260102D01*
X222000Y259987D01*
X222579Y260102D01*
X223070Y260430D01*
X223398Y260921D01*
X223513Y261500D01*
X223398Y262079D01*
X223070Y262570D01*
X222579Y262898D01*
X222000Y263013D01*
D02*
G37*
G36*
X311941Y261572D02*
X311362Y261457D01*
X310871Y261129D01*
X310543Y260638D01*
X310428Y260059D01*
X310543Y259480D01*
X310871Y258989D01*
X311362Y258661D01*
X311941Y258545D01*
X312520Y258661D01*
X313011Y258989D01*
X313339Y259480D01*
X313455Y260059D01*
X313339Y260638D01*
X313011Y261129D01*
X312520Y261457D01*
X311941Y261572D01*
D02*
G37*
G36*
X183000Y254513D02*
X182421Y254398D01*
X181930Y254070D01*
X181602Y253579D01*
X181487Y253000D01*
X181602Y252421D01*
X181930Y251930D01*
X182421Y251602D01*
X183000Y251487D01*
X183579Y251602D01*
X184070Y251930D01*
X184398Y252421D01*
X184513Y253000D01*
X184398Y253579D01*
X184070Y254070D01*
X183579Y254398D01*
X183000Y254513D01*
D02*
G37*
G36*
X204000Y246013D02*
X203421Y245898D01*
X202930Y245570D01*
X202602Y245079D01*
X202487Y244500D01*
X202602Y243921D01*
X202930Y243430D01*
X203421Y243102D01*
X204000Y242987D01*
X204579Y243102D01*
X205070Y243430D01*
X205398Y243921D01*
X205513Y244500D01*
X205398Y245079D01*
X205070Y245570D01*
X204579Y245898D01*
X204000Y246013D01*
D02*
G37*
G36*
X300500Y245513D02*
X299921Y245398D01*
X299430Y245070D01*
X299102Y244579D01*
X298987Y244000D01*
X299102Y243421D01*
X299430Y242930D01*
X299921Y242602D01*
X300500Y242487D01*
X301079Y242602D01*
X301570Y242930D01*
X301898Y243421D01*
X302013Y244000D01*
X301898Y244579D01*
X301570Y245070D01*
X301079Y245398D01*
X300500Y245513D01*
D02*
G37*
G36*
X305500Y242513D02*
X304921Y242398D01*
X304430Y242070D01*
X304102Y241579D01*
X303987Y241000D01*
X304102Y240421D01*
X304430Y239930D01*
X304921Y239602D01*
X305500Y239487D01*
X306079Y239602D01*
X306570Y239930D01*
X306898Y240421D01*
X307013Y241000D01*
X306898Y241579D01*
X306570Y242070D01*
X306079Y242398D01*
X305500Y242513D01*
D02*
G37*
G36*
X290500Y242013D02*
X289921Y241898D01*
X289430Y241570D01*
X289102Y241079D01*
X288987Y240500D01*
X289102Y239921D01*
X289430Y239430D01*
X289921Y239102D01*
X290500Y238987D01*
X291079Y239102D01*
X291570Y239430D01*
X291898Y239921D01*
X292013Y240500D01*
X291898Y241079D01*
X291570Y241570D01*
X291079Y241898D01*
X290500Y242013D01*
D02*
G37*
G36*
X211500Y240013D02*
X210921Y239898D01*
X210430Y239570D01*
X210102Y239079D01*
X209987Y238500D01*
X210102Y237921D01*
X210430Y237430D01*
X210921Y237102D01*
X211500Y236987D01*
X212079Y237102D01*
X212570Y237430D01*
X212898Y237921D01*
X213013Y238500D01*
X212898Y239079D01*
X212570Y239570D01*
X212079Y239898D01*
X211500Y240013D01*
D02*
G37*
G36*
X202000Y239013D02*
X201421Y238898D01*
X200930Y238570D01*
X200602Y238079D01*
X200487Y237500D01*
X200602Y236921D01*
X200930Y236430D01*
X201421Y236102D01*
X202000Y235987D01*
X202579Y236102D01*
X203070Y236430D01*
X203398Y236921D01*
X203513Y237500D01*
X203398Y238079D01*
X203070Y238570D01*
X202579Y238898D01*
X202000Y239013D01*
D02*
G37*
G36*
X215000Y236513D02*
X214421Y236398D01*
X213930Y236070D01*
X213602Y235579D01*
X213487Y235000D01*
X213602Y234421D01*
X213930Y233930D01*
X214421Y233602D01*
X215000Y233487D01*
X215579Y233602D01*
X216070Y233930D01*
X216398Y234421D01*
X216513Y235000D01*
X216398Y235579D01*
X216070Y236070D01*
X215579Y236398D01*
X215000Y236513D01*
D02*
G37*
G36*
X295500Y228013D02*
X294921Y227898D01*
X294430Y227570D01*
X294102Y227079D01*
X293987Y226500D01*
X294102Y225921D01*
X294430Y225430D01*
X294921Y225102D01*
X295500Y224987D01*
X296079Y225102D01*
X296570Y225430D01*
X296898Y225921D01*
X297013Y226500D01*
X296898Y227079D01*
X296570Y227570D01*
X296079Y227898D01*
X295500Y228013D01*
D02*
G37*
G36*
X194000Y224513D02*
X193421Y224398D01*
X192930Y224070D01*
X192602Y223579D01*
X192487Y223000D01*
X192602Y222421D01*
X192930Y221930D01*
X193421Y221602D01*
X194000Y221487D01*
X194579Y221602D01*
X195070Y221930D01*
X195398Y222421D01*
X195513Y223000D01*
X195398Y223579D01*
X195070Y224070D01*
X194579Y224398D01*
X194000Y224513D01*
D02*
G37*
G36*
X196000Y221013D02*
X195421Y220898D01*
X194930Y220570D01*
X194602Y220079D01*
X194487Y219500D01*
X194602Y218921D01*
X194930Y218430D01*
X195421Y218102D01*
X196000Y217987D01*
X196579Y218102D01*
X197070Y218430D01*
X197398Y218921D01*
X197513Y219500D01*
X197398Y220079D01*
X197070Y220570D01*
X196579Y220898D01*
X196000Y221013D01*
D02*
G37*
G36*
X342500Y222526D02*
X341717Y222423D01*
X340987Y222120D01*
X340360Y221640D01*
X339879Y221013D01*
X339577Y220283D01*
X339474Y219500D01*
X339577Y218717D01*
X339879Y217987D01*
X340360Y217360D01*
X340987Y216880D01*
X341717Y216577D01*
X342500Y216474D01*
X343283Y216577D01*
X344013Y216880D01*
X344640Y217360D01*
X345121Y217987D01*
X345423Y218717D01*
X345526Y219500D01*
X345423Y220283D01*
X345121Y221013D01*
X344640Y221640D01*
X344013Y222120D01*
X343283Y222423D01*
X342500Y222526D01*
D02*
G37*
G36*
X227000Y211013D02*
X226421Y210898D01*
X225930Y210570D01*
X225602Y210079D01*
X225487Y209500D01*
X225602Y208921D01*
X225930Y208430D01*
X226421Y208102D01*
X227000Y207987D01*
X227579Y208102D01*
X228070Y208430D01*
X228398Y208921D01*
X228513Y209500D01*
X228398Y210079D01*
X228070Y210570D01*
X227579Y210898D01*
X227000Y211013D01*
D02*
G37*
G36*
X211500Y209513D02*
X210921Y209398D01*
X210430Y209070D01*
X210102Y208579D01*
X209987Y208000D01*
X210102Y207421D01*
X210430Y206930D01*
X210921Y206602D01*
X211500Y206487D01*
X212079Y206602D01*
X212570Y206930D01*
X212898Y207421D01*
X213013Y208000D01*
X212898Y208579D01*
X212570Y209070D01*
X212079Y209398D01*
X211500Y209513D01*
D02*
G37*
G36*
X305500Y209026D02*
X304717Y208923D01*
X303987Y208621D01*
X303360Y208140D01*
X302880Y207513D01*
X302577Y206783D01*
X302474Y206000D01*
X302577Y205217D01*
X302880Y204487D01*
X303360Y203860D01*
X303987Y203380D01*
X304717Y203077D01*
X305500Y202974D01*
X306283Y203077D01*
X307013Y203380D01*
X307640Y203860D01*
X308120Y204487D01*
X308423Y205217D01*
X308526Y206000D01*
X308423Y206783D01*
X308120Y207513D01*
X307640Y208140D01*
X307013Y208621D01*
X306283Y208923D01*
X305500Y209026D01*
D02*
G37*
G36*
X270500D02*
X269717Y208923D01*
X268987Y208621D01*
X268360Y208140D01*
X267880Y207513D01*
X267577Y206783D01*
X267474Y206000D01*
X267577Y205217D01*
X267880Y204487D01*
X268360Y203860D01*
X268987Y203380D01*
X269717Y203077D01*
X270500Y202974D01*
X271283Y203077D01*
X272013Y203380D01*
X272640Y203860D01*
X273120Y204487D01*
X273423Y205217D01*
X273526Y206000D01*
X273423Y206783D01*
X273120Y207513D01*
X272640Y208140D01*
X272013Y208621D01*
X271283Y208923D01*
X270500Y209026D01*
D02*
G37*
G36*
X300500Y204026D02*
X299717Y203923D01*
X298987Y203621D01*
X298360Y203140D01*
X297880Y202513D01*
X297577Y201783D01*
X297474Y201000D01*
X297577Y200217D01*
X297880Y199487D01*
X298360Y198860D01*
X298987Y198380D01*
X299717Y198077D01*
X300500Y197974D01*
X301283Y198077D01*
X302013Y198380D01*
X302640Y198860D01*
X303120Y199487D01*
X303423Y200217D01*
X303526Y201000D01*
X303423Y201783D01*
X303120Y202513D01*
X302640Y203140D01*
X302013Y203621D01*
X301283Y203923D01*
X300500Y204026D01*
D02*
G37*
G36*
X344500Y198770D02*
X343921Y198654D01*
X343430Y198326D01*
X343102Y197835D01*
X342987Y197256D01*
X343102Y196677D01*
X343430Y196186D01*
X343921Y195858D01*
X344500Y195743D01*
X345079Y195858D01*
X345570Y196186D01*
X345898Y196677D01*
X346013Y197256D01*
X345898Y197835D01*
X345570Y198326D01*
X345079Y198654D01*
X344500Y198770D01*
D02*
G37*
G36*
X295500Y199526D02*
X294717Y199423D01*
X293987Y199120D01*
X293360Y198640D01*
X292880Y198013D01*
X292577Y197283D01*
X292474Y196500D01*
X292577Y195717D01*
X292880Y194987D01*
X293360Y194360D01*
X293987Y193879D01*
X294717Y193577D01*
X295500Y193474D01*
X296283Y193577D01*
X297013Y193879D01*
X297640Y194360D01*
X298120Y194987D01*
X298423Y195717D01*
X298526Y196500D01*
X298423Y197283D01*
X298120Y198013D01*
X297640Y198640D01*
X297013Y199120D01*
X296283Y199423D01*
X295500Y199526D01*
D02*
G37*
G36*
X343288Y185846D02*
X335595D01*
Y178154D01*
X343288D01*
Y185846D01*
D02*
G37*
G36*
X274347D02*
X266654D01*
Y178154D01*
X274347D01*
Y185846D01*
D02*
G37*
G36*
X349441Y185880D02*
X348437Y185747D01*
X347501Y185360D01*
X346698Y184743D01*
X346081Y183940D01*
X345694Y183004D01*
X345562Y182000D01*
X345694Y180996D01*
X346081Y180060D01*
X346698Y179257D01*
X347501Y178640D01*
X348437Y178253D01*
X349441Y178120D01*
X350445Y178253D01*
X351381Y178640D01*
X352185Y179257D01*
X352801Y180060D01*
X353189Y180996D01*
X353321Y182000D01*
X353189Y183004D01*
X352801Y183940D01*
X352185Y184743D01*
X351381Y185360D01*
X350445Y185747D01*
X349441Y185880D01*
D02*
G37*
G36*
X310500D02*
X309496Y185747D01*
X308560Y185360D01*
X307757Y184743D01*
X307140Y183940D01*
X306753Y183004D01*
X306621Y182000D01*
X306753Y180996D01*
X307140Y180060D01*
X307757Y179257D01*
X308560Y178640D01*
X309496Y178253D01*
X310500Y178120D01*
X311504Y178253D01*
X312440Y178640D01*
X313244Y179257D01*
X313860Y180060D01*
X314248Y180996D01*
X314380Y182000D01*
X314248Y183004D01*
X313860Y183940D01*
X313244Y184743D01*
X312440Y185360D01*
X311504Y185747D01*
X310500Y185880D01*
D02*
G37*
G36*
X300500D02*
X299496Y185747D01*
X298561Y185360D01*
X297757Y184743D01*
X297141Y183940D01*
X296753Y183004D01*
X296621Y182000D01*
X296753Y180996D01*
X297141Y180060D01*
X297757Y179257D01*
X298561Y178640D01*
X299496Y178253D01*
X300500Y178120D01*
X301504Y178253D01*
X302440Y178640D01*
X303244Y179257D01*
X303860Y180060D01*
X304248Y180996D01*
X304380Y182000D01*
X304248Y183004D01*
X303860Y183940D01*
X303244Y184743D01*
X302440Y185360D01*
X301504Y185747D01*
X300500Y185880D01*
D02*
G37*
G36*
X290500D02*
X289496Y185747D01*
X288561Y185360D01*
X287757Y184743D01*
X287140Y183940D01*
X286753Y183004D01*
X286621Y182000D01*
X286753Y180996D01*
X287140Y180060D01*
X287757Y179257D01*
X288561Y178640D01*
X289496Y178253D01*
X290500Y178120D01*
X291504Y178253D01*
X292440Y178640D01*
X293244Y179257D01*
X293860Y180060D01*
X294248Y180996D01*
X294380Y182000D01*
X294248Y183004D01*
X293860Y183940D01*
X293244Y184743D01*
X292440Y185360D01*
X291504Y185747D01*
X290500Y185880D01*
D02*
G37*
G36*
X280500D02*
X279496Y185747D01*
X278560Y185360D01*
X277757Y184743D01*
X277140Y183940D01*
X276753Y183004D01*
X276621Y182000D01*
X276753Y180996D01*
X277140Y180060D01*
X277757Y179257D01*
X278560Y178640D01*
X279496Y178253D01*
X280500Y178120D01*
X281504Y178253D01*
X282440Y178640D01*
X283244Y179257D01*
X283860Y180060D01*
X284248Y180996D01*
X284380Y182000D01*
X284248Y183004D01*
X283860Y183940D01*
X283244Y184743D01*
X282440Y185360D01*
X281504Y185747D01*
X280500Y185880D01*
D02*
G37*
G36*
X374500Y174874D02*
X372877Y174747D01*
X371294Y174367D01*
X369790Y173744D01*
X368402Y172893D01*
X367164Y171836D01*
X366107Y170598D01*
X365256Y169210D01*
X364633Y167706D01*
X364253Y166123D01*
X364125Y164500D01*
X364253Y162877D01*
X364633Y161294D01*
X365256Y159790D01*
X366107Y158402D01*
X367164Y157164D01*
X368402Y156107D01*
X369790Y155256D01*
X371294Y154633D01*
X372877Y154253D01*
X374500Y154125D01*
X376123Y154253D01*
X377706Y154633D01*
X379210Y155256D01*
X380598Y156107D01*
X381836Y157164D01*
X382893Y158402D01*
X383744Y159790D01*
X384367Y161294D01*
X384747Y162877D01*
X384875Y164500D01*
X384747Y166123D01*
X384367Y167706D01*
X383744Y169210D01*
X382893Y170598D01*
X381836Y171836D01*
X380598Y172893D01*
X379210Y173744D01*
X377706Y174367D01*
X376123Y174747D01*
X374500Y174874D01*
D02*
G37*
G36*
X124500D02*
X122877Y174747D01*
X121294Y174367D01*
X119790Y173744D01*
X118402Y172893D01*
X117164Y171836D01*
X116107Y170598D01*
X115256Y169210D01*
X114633Y167706D01*
X114253Y166123D01*
X114126Y164500D01*
X114253Y162877D01*
X114633Y161294D01*
X115256Y159790D01*
X116107Y158402D01*
X117164Y157164D01*
X118402Y156107D01*
X119790Y155256D01*
X121294Y154633D01*
X122877Y154253D01*
X124500Y154125D01*
X126123Y154253D01*
X127706Y154633D01*
X129210Y155256D01*
X130598Y156107D01*
X131836Y157164D01*
X132893Y158402D01*
X133744Y159790D01*
X134367Y161294D01*
X134747Y162877D01*
X134874Y164500D01*
X134747Y166123D01*
X134367Y167706D01*
X133744Y169210D01*
X132893Y170598D01*
X131836Y171836D01*
X130598Y172893D01*
X129210Y173744D01*
X127706Y174367D01*
X126123Y174747D01*
X124500Y174874D01*
D02*
G37*
%LPD*%
D107*
X359217Y391744D02*
D03*
X323784Y391744D02*
D03*
D108*
X323783Y375406D02*
D03*
X359216Y375406D02*
D03*
D111*
X377500Y371500D02*
D03*
X366500Y371000D02*
D03*
X349000Y393000D02*
D03*
X354500Y385000D02*
D03*
X345500Y389000D02*
D03*
X312500Y381000D02*
D03*
X307500Y390000D02*
D03*
X329000Y385000D02*
D03*
X334000Y391500D02*
D03*
X283500Y270500D02*
D03*
X282000Y256500D02*
D03*
X280000Y243000D02*
D03*
X298000Y222500D02*
D03*
X284500Y225000D02*
D03*
X275500Y225500D02*
D03*
X262500Y235000D02*
D03*
X285500Y156500D02*
D03*
X297500Y166000D02*
D03*
X297000Y160500D02*
D03*
X317000Y164500D02*
D03*
X317500Y174500D02*
D03*
X324500Y178000D02*
D03*
X358000Y197000D02*
D03*
X327000Y194000D02*
D03*
X320500Y190500D02*
D03*
X329000Y186500D02*
D03*
X332500Y176000D02*
D03*
X336000Y157500D02*
D03*
Y163500D02*
D03*
X343000Y167000D02*
D03*
X353000Y161500D02*
D03*
X354500Y170500D02*
D03*
X368000Y179500D02*
D03*
X361500Y188000D02*
D03*
X378500Y189000D02*
D03*
X377000Y210500D02*
D03*
X372000Y194000D02*
D03*
X380500Y205000D02*
D03*
X368000Y204000D02*
D03*
X370500Y212500D02*
D03*
X378500Y219500D02*
D03*
X379000Y232000D02*
D03*
X370500Y236500D02*
D03*
X375000Y225000D02*
D03*
X379500Y244000D02*
D03*
X377000Y267500D02*
D03*
X368000Y255000D02*
D03*
X360500Y268500D02*
D03*
X377000Y260000D02*
D03*
X343000Y269500D02*
D03*
Y279000D02*
D03*
X327500Y281500D02*
D03*
X335000Y275000D02*
D03*
X352500Y273000D02*
D03*
X363500Y281000D02*
D03*
X362500Y296500D02*
D03*
X378000Y313000D02*
D03*
X378500Y285500D02*
D03*
X372500Y317000D02*
D03*
X377500Y301500D02*
D03*
X380000Y325500D02*
D03*
Y358500D02*
D03*
X373500Y344500D02*
D03*
X379000Y335500D02*
D03*
X377000Y349500D02*
D03*
X373500Y363500D02*
D03*
X315500Y363000D02*
D03*
X326000Y358500D02*
D03*
X341500Y358000D02*
D03*
X361000Y325500D02*
D03*
X346000Y317500D02*
D03*
X316000Y317000D02*
D03*
X311500Y322000D02*
D03*
X289000Y320000D02*
D03*
X279000Y321500D02*
D03*
X280500Y308500D02*
D03*
X276500Y275500D02*
D03*
X271500Y284500D02*
D03*
X278000Y289000D02*
D03*
X276000Y297500D02*
D03*
X301000Y283000D02*
D03*
X302000Y291000D02*
D03*
X311500Y284500D02*
D03*
X317500Y272000D02*
D03*
X329000Y267500D02*
D03*
X309500Y244500D02*
D03*
X312000Y251500D02*
D03*
X317500Y247500D02*
D03*
X326500Y245000D02*
D03*
X335500Y239500D02*
D03*
X350500D02*
D03*
X352000Y224500D02*
D03*
X357000Y235000D02*
D03*
X326000Y219000D02*
D03*
X330500Y227000D02*
D03*
X332000Y230500D02*
D03*
X316500Y241000D02*
D03*
Y231000D02*
D03*
X312000Y220000D02*
D03*
Y207500D02*
D03*
X315500Y211500D02*
D03*
X314500Y202500D02*
D03*
X291500Y173500D02*
D03*
X307000Y198000D02*
D03*
X301500Y188000D02*
D03*
X286500Y188500D02*
D03*
X286000Y196500D02*
D03*
X265000Y202000D02*
D03*
X276500Y199500D02*
D03*
X276000Y188500D02*
D03*
X273500Y175500D02*
D03*
X307500Y165000D02*
D03*
X297000Y173500D02*
D03*
X273000Y166000D02*
D03*
X281500Y172500D02*
D03*
X286500Y164500D02*
D03*
X215500Y180500D02*
D03*
X224000Y166500D02*
D03*
X237000Y177500D02*
D03*
X243500Y166500D02*
D03*
X264500Y173500D02*
D03*
X266000Y162500D02*
D03*
X248000Y161500D02*
D03*
X245000Y176000D02*
D03*
X313500Y330000D02*
D03*
X314500Y344500D02*
D03*
X300500Y329000D02*
D03*
X281000Y342500D02*
D03*
X288500Y332000D02*
D03*
X258000Y342500D02*
D03*
X246000Y344000D02*
D03*
X232500Y348500D02*
D03*
X230000Y359500D02*
D03*
X235500Y368500D02*
D03*
X243000Y356500D02*
D03*
X260500D02*
D03*
X272000Y361500D02*
D03*
X281000Y362500D02*
D03*
X291000Y361500D02*
D03*
X292500Y369500D02*
D03*
X285000Y385000D02*
D03*
X282500Y392500D02*
D03*
X271500Y392000D02*
D03*
X261000Y384500D02*
D03*
X275500Y378000D02*
D03*
X281500Y370500D02*
D03*
X280000Y377000D02*
D03*
X268000Y372000D02*
D03*
X244500Y364500D02*
D03*
X253000Y370500D02*
D03*
X310000Y364500D02*
D03*
X300000Y370500D02*
D03*
X293500Y383000D02*
D03*
X292500Y394000D02*
D03*
X287000Y388000D02*
D03*
X299500Y391000D02*
D03*
X162000Y373000D02*
D03*
X167000Y384500D02*
D03*
X201000Y370000D02*
D03*
X201500Y382000D02*
D03*
X179500Y383000D02*
D03*
X182000Y369000D02*
D03*
X189500Y368500D02*
D03*
X187500Y378500D02*
D03*
X188500Y393500D02*
D03*
X221500Y373000D02*
D03*
X210500Y390500D02*
D03*
X213500Y382500D02*
D03*
X218000Y392500D02*
D03*
X226000D02*
D03*
X245000Y392000D02*
D03*
X248000Y388000D02*
D03*
X257500Y392500D02*
D03*
X266000Y385500D02*
D03*
X264000Y393500D02*
D03*
X310000Y351000D02*
D03*
X282500Y354000D02*
D03*
X297500Y346000D02*
D03*
X287000Y355000D02*
D03*
X269000Y354500D02*
D03*
X277000Y347500D02*
D03*
X295000Y355500D02*
D03*
X266500Y347000D02*
D03*
X275000Y352500D02*
D03*
X250500Y353000D02*
D03*
X240500Y360000D02*
D03*
X260500Y350000D02*
D03*
X287000Y346500D02*
D03*
X286000Y326000D02*
D03*
X308000Y307000D02*
D03*
X298500Y321000D02*
D03*
X305000Y279500D02*
D03*
X276000Y256000D02*
D03*
Y268000D02*
D03*
X253000Y267500D02*
D03*
X254000Y256000D02*
D03*
Y237000D02*
D03*
X255500Y213000D02*
D03*
X263500Y196000D02*
D03*
X259500Y205000D02*
D03*
X250500Y184500D02*
D03*
X252500Y197000D02*
D03*
X244000Y185500D02*
D03*
X233500Y193000D02*
D03*
X235500Y184500D02*
D03*
X236000Y161500D02*
D03*
X199500Y158500D02*
D03*
X140500Y161500D02*
D03*
X154000Y156500D02*
D03*
X175500Y160500D02*
D03*
X217500Y160000D02*
D03*
X186500Y161500D02*
D03*
X195500Y172500D02*
D03*
X224500Y177000D02*
D03*
X205000Y166500D02*
D03*
X202500Y182000D02*
D03*
X214500Y198500D02*
D03*
X221500Y188000D02*
D03*
X243000Y192000D02*
D03*
X236000Y203000D02*
D03*
X253500Y228500D02*
D03*
X246000Y205000D02*
D03*
X257500Y240500D02*
D03*
X237000Y235000D02*
D03*
X244500Y236500D02*
D03*
X235000Y256500D02*
D03*
X234500Y267000D02*
D03*
X243500Y255500D02*
D03*
X242000Y267000D02*
D03*
X241500Y303000D02*
D03*
X227000Y300000D02*
D03*
X226500Y293500D02*
D03*
X220000Y267000D02*
D03*
X228000Y271000D02*
D03*
X196000Y211500D02*
D03*
X205000Y206000D02*
D03*
X206000Y194500D02*
D03*
X227000Y198000D02*
D03*
X206500Y236500D02*
D03*
X189500Y233000D02*
D03*
X199500Y200000D02*
D03*
X182000Y200500D02*
D03*
X169000Y208500D02*
D03*
X167500Y201000D02*
D03*
X184000Y185000D02*
D03*
X190000Y197500D02*
D03*
X173000Y199000D02*
D03*
X190500Y187500D02*
D03*
X175500Y178500D02*
D03*
X178000Y188500D02*
D03*
X185000Y173000D02*
D03*
X165500Y164000D02*
D03*
X168000Y184500D02*
D03*
X171500Y173000D02*
D03*
X154000Y162000D02*
D03*
X161000Y171500D02*
D03*
X142500Y169000D02*
D03*
X147000Y185000D02*
D03*
X151000Y171500D02*
D03*
X156000Y184500D02*
D03*
X136500Y181500D02*
D03*
X146500Y178000D02*
D03*
X156000Y197000D02*
D03*
X159500Y191500D02*
D03*
X157500Y204000D02*
D03*
X148500Y192000D02*
D03*
X138000Y188000D02*
D03*
X150000Y202000D02*
D03*
X139000Y204000D02*
D03*
X131500Y203500D02*
D03*
X134500Y197000D02*
D03*
X123500Y182000D02*
D03*
X131000Y187500D02*
D03*
X120500Y191000D02*
D03*
X120000Y205500D02*
D03*
X121500Y199000D02*
D03*
X130000Y208500D02*
D03*
X127000Y195500D02*
D03*
X126000Y205500D02*
D03*
X134500Y208500D02*
D03*
X145000Y199500D02*
D03*
X162500Y216500D02*
D03*
X161500Y211500D02*
D03*
X189000Y208000D02*
D03*
X188500Y217500D02*
D03*
X176500Y209000D02*
D03*
X171000Y220000D02*
D03*
X182000Y215500D02*
D03*
X178500Y238500D02*
D03*
X180500Y232500D02*
D03*
X168500Y215000D02*
D03*
X162000Y222500D02*
D03*
X171000Y247500D02*
D03*
X166000Y229000D02*
D03*
X173500Y235000D02*
D03*
X162500Y236500D02*
D03*
X160500Y265500D02*
D03*
X161500Y252500D02*
D03*
X162500Y244500D02*
D03*
X168500Y242500D02*
D03*
X179000Y247000D02*
D03*
X173500Y243500D02*
D03*
X186000Y240000D02*
D03*
X224500Y235500D02*
D03*
X231500Y241000D02*
D03*
X224000Y255000D02*
D03*
X228000Y255500D02*
D03*
X221000Y242000D02*
D03*
X207500Y251500D02*
D03*
X210500Y267500D02*
D03*
X199500Y259000D02*
D03*
X197000Y245000D02*
D03*
X186000Y247500D02*
D03*
X195500Y250000D02*
D03*
X194000Y257500D02*
D03*
X172500Y253500D02*
D03*
X163500Y258500D02*
D03*
X166000Y251500D02*
D03*
X168000Y261000D02*
D03*
X178500Y252500D02*
D03*
X170500Y267500D02*
D03*
X163000Y272000D02*
D03*
X165500Y267000D02*
D03*
X176500Y275000D02*
D03*
X168500Y274500D02*
D03*
X175500Y280000D02*
D03*
X166000Y280500D02*
D03*
X169500Y284500D02*
D03*
X162500Y276500D02*
D03*
X159500Y282000D02*
D03*
X153000Y284500D02*
D03*
X236000Y304000D02*
D03*
X247000Y306000D02*
D03*
X252500Y321500D02*
D03*
X214500Y366000D02*
D03*
X220500Y342000D02*
D03*
X219000Y332000D02*
D03*
X236500Y321000D02*
D03*
X241500Y326000D02*
D03*
X196500Y330500D02*
D03*
X178500Y320500D02*
D03*
X185500Y330000D02*
D03*
X213000Y344000D02*
D03*
X196500Y342500D02*
D03*
X224000Y349000D02*
D03*
X227500Y368500D02*
D03*
X163500Y364500D02*
D03*
X192000Y354000D02*
D03*
X221000Y358000D02*
D03*
X177000Y339000D02*
D03*
X188000Y343500D02*
D03*
X172500Y330000D02*
D03*
X180000Y333000D02*
D03*
X169000Y340500D02*
D03*
X151000Y344500D02*
D03*
X164500Y353500D02*
D03*
X161500Y349000D02*
D03*
X159000Y342000D02*
D03*
X162000Y336500D02*
D03*
X166000Y332500D02*
D03*
X160500Y330000D02*
D03*
X160000Y323000D02*
D03*
X165000Y326000D02*
D03*
X169500Y319500D02*
D03*
X173000Y321500D02*
D03*
X170500Y315000D02*
D03*
X175000Y311500D02*
D03*
X171000Y306500D02*
D03*
X169000Y310000D02*
D03*
X164500Y313500D02*
D03*
X160000Y318000D02*
D03*
X165000Y320000D02*
D03*
X151500Y317000D02*
D03*
X152000Y322500D02*
D03*
X145000Y318500D02*
D03*
X155500Y312500D02*
D03*
X158500Y309000D02*
D03*
X155000Y304500D02*
D03*
X149000Y308000D02*
D03*
X141000Y304000D02*
D03*
X131000Y306500D02*
D03*
X136000Y310500D02*
D03*
X135000Y304000D02*
D03*
X145000Y311500D02*
D03*
X126500Y312000D02*
D03*
X137500Y319000D02*
D03*
X131500Y311000D02*
D03*
X134000Y316000D02*
D03*
X130000Y327000D02*
D03*
Y318000D02*
D03*
X122500Y314500D02*
D03*
X118000Y320500D02*
D03*
X121000Y328500D02*
D03*
X123000Y321500D02*
D03*
X120000Y343500D02*
D03*
X119500Y336000D02*
D03*
X128500Y342000D02*
D03*
X126500Y331000D02*
D03*
X135500Y330500D02*
D03*
X136000Y324500D02*
D03*
X145000Y328500D02*
D03*
X152000Y330000D02*
D03*
X142500Y339000D02*
D03*
X151500Y340000D02*
D03*
X135000Y337500D02*
D03*
X144500Y342500D02*
D03*
X136000Y349000D02*
D03*
X134500Y343000D02*
D03*
X135000Y360000D02*
D03*
X136500Y370000D02*
D03*
X133000Y374500D02*
D03*
X126500Y371500D02*
D03*
X132000Y367500D02*
D03*
X132500Y355500D02*
D03*
X125500Y337000D02*
D03*
X131000Y347000D02*
D03*
X119000Y353000D02*
D03*
X118500Y363000D02*
D03*
X121000Y347000D02*
D03*
X126000Y360500D02*
D03*
X126500Y353000D02*
D03*
X131500Y362500D02*
D03*
X121000Y366500D02*
D03*
X120500Y357500D02*
D03*
X124500Y366500D02*
D03*
X118000Y371500D02*
D03*
X114000Y377500D02*
D03*
Y373500D02*
D03*
Y369500D02*
D03*
Y365500D02*
D03*
Y361500D02*
D03*
Y357500D02*
D03*
Y354000D02*
D03*
Y350000D02*
D03*
Y346000D02*
D03*
Y342000D02*
D03*
Y338000D02*
D03*
Y334000D02*
D03*
Y330000D02*
D03*
Y326000D02*
D03*
Y322000D02*
D03*
X114500Y172000D02*
D03*
Y176500D02*
D03*
Y181000D02*
D03*
Y186000D02*
D03*
Y191000D02*
D03*
Y196000D02*
D03*
Y201000D02*
D03*
Y206000D02*
D03*
Y210500D02*
D03*
X119000D02*
D03*
X123500D02*
D03*
X128000Y213000D02*
D03*
X130000Y217000D02*
D03*
Y221000D02*
D03*
Y225000D02*
D03*
Y229500D02*
D03*
Y233500D02*
D03*
X134000D02*
D03*
Y229500D02*
D03*
Y225000D02*
D03*
Y221000D02*
D03*
Y217000D02*
D03*
X135500Y213000D02*
D03*
X140000Y210500D02*
D03*
X145000Y210000D02*
D03*
X150000Y210500D02*
D03*
X154500Y213000D02*
D03*
X157000Y217000D02*
D03*
Y221500D02*
D03*
Y226000D02*
D03*
Y231000D02*
D03*
Y236500D02*
D03*
Y241500D02*
D03*
Y246500D02*
D03*
Y251500D02*
D03*
Y256000D02*
D03*
Y261000D02*
D03*
Y265500D02*
D03*
Y270000D02*
D03*
Y274500D02*
D03*
X154000Y278000D02*
D03*
X151000Y281000D02*
D03*
X147500Y283500D02*
D03*
X144000Y286500D02*
D03*
X147500Y288500D02*
D03*
X152500Y289000D02*
D03*
X157000D02*
D03*
X165000Y289500D02*
D03*
X173000Y286000D02*
D03*
X169000Y289500D02*
D03*
X179000Y289000D02*
D03*
X188000Y301000D02*
D03*
X183500D02*
D03*
X150000Y304000D02*
D03*
X163000D02*
D03*
X179500Y302500D02*
D03*
X175000D02*
D03*
X167000Y301000D02*
D03*
X158000D02*
D03*
X153500D02*
D03*
X146500Y300500D02*
D03*
X142500Y299500D02*
D03*
X138500Y298000D02*
D03*
X135000Y295500D02*
D03*
X131500Y298000D02*
D03*
X128000Y301000D02*
D03*
X124500Y304000D02*
D03*
X121000Y307500D02*
D03*
X117500Y310500D02*
D03*
X114000Y314000D02*
D03*
Y318000D02*
D03*
D114*
X213000Y284937D02*
D03*
Y288874D02*
D03*
X205127Y284938D02*
D03*
Y288874D02*
D03*
X213000Y281000D02*
D03*
X205126D02*
D03*
X209063Y284937D02*
D03*
X209065Y281002D02*
D03*
X209063Y288874D02*
D03*
M02*
