M48
;Layer_Color=9474304
;FILE_FORMAT=2:5
INCH,LZ
;TYPE=PLATED
T1F00S00C0.01181
T2F00S00C0.01200
T4F00S00C0.02800
T6F00S00C0.03543
T7F00S00C0.13386
;TYPE=NON_PLATED
T8F00S00C0.02953
%
T01
X0317Y01645
X03175Y01745
X03245Y0178
X03325Y0176
X0329Y01865
X0327Y0194
X03205Y01905
X03145Y02025
X03155Y02115
X0326Y0219
X03305Y0227
X0332Y02305
X03355Y02395
X03265Y0245
X03175Y02475
X03165Y0241
Y0231
X03175Y0272
X0329Y02675
X0335Y0275
X0343Y0279
Y02695
X03525Y0273
X03605Y02685
X03635Y0281
X03625Y02965
X03775Y03015
X03785Y02855
X0377Y02675
Y026
X0368Y0255
X03705Y02365
X0379Y0232
X0375Y0225
X03785Y02195
X0377Y02105
X03705Y02125
X0368Y0204
X03805Y0205
X03785Y0189
X0372Y0194
X03615Y0188
X0358Y0197
X03445Y0197256
X0343Y0167
X0336Y01635
Y01575
X0353Y01615
X03545Y01705
X0368Y01795
X0352Y02245
X0357Y0235
X03505Y02395
X03795Y0244
X03275Y02815
X0316839Y03025
X0344Y0301
X0308Y0307
X0302Y0291
X0301Y0283
X0305Y02795
X03115Y02845
X0311941Y0260059
X0312Y02515
X03095Y02445
X03055Y0241
X03005Y0244
X02905Y02405
X028Y0243
X0282Y02565
X0276Y0256
Y0268
X02765Y02755
X0271118Y0272118
X02715Y02845
X0273Y02915
X0278Y0289
X0276Y02975
X02805Y03085
X02635Y0304
X0247Y0306
X02415Y0303
X0236Y0304
X0229941Y0309441
X0227Y03
X02265Y02935
X0228Y02785
X0232Y02775
X0228Y0271
X02345Y0267
X0242
X0253Y02675
X0254Y0256
X02435Y02555
X0235Y02565
X0228Y02555
X0224Y0255
X0222Y02615
X022Y0267
X02105Y02675
X01965Y0268
Y0264
X01995Y0259
X0194Y02575
X01955Y025
X0197Y0245
X0204Y02445
X0202Y02375
X02065Y02365
X02115Y02385
X0215Y0235
X02245Y02355
X0221Y0242
X02315Y0241
X0237Y0235
X02445Y02365
X0254Y0237
X02575Y02405
X02625Y0235
X02535Y02285
X02555Y0213
X02595Y0205
X0265Y0202
X02635Y0196
X02525Y0197
X02505Y01845
X0244Y01855
X0243Y0192
X02335Y0193
X02355Y01845
X0237Y01775
X0245Y0176
X02435Y01665
X0248Y01615
X0236
X0224Y01665
X02245Y0177
X02155Y01805
X02215Y0188
X0227Y0198
Y02095
X0236Y0203
X0246Y0205
X02765Y01995
X0276Y01885
X02865
X0286Y01965
X0307Y0198
X0312Y02075
Y022
X0298Y02225
X02955Y02265
X02845Y0225
X02755Y02255
X02735Y01755
X0273Y0166
X0266Y01625
X02645Y01735
X02815Y01725
X02915Y01735
X0297
X02975Y0166
X0297Y01605
X02865Y01645
X02855Y01565
X03075Y0165
X03015Y0188
X02145Y01985
X0206Y01945
X01995Y02
X0205Y0206
X02115Y0208
X0196Y02115
Y02195
X0194Y0223
X01885Y02175
X0182Y02155
X01765Y0209
X0169Y02085
X01685Y0215
X01625Y02165
X01615Y02115
X0157Y0217
Y02215
Y0226
Y0231
Y02365
Y02415
Y02465
Y02515
Y0256
Y0261
Y02655
X01605
X01655Y0267
X01705Y02675
X0168Y0261
X01635Y02585
X01615Y02525
X0166Y02515
X01725Y02535
X01785Y02525
X0183Y0253
X0186Y02475
X0179Y0247
X0171Y02475
X01735Y02435
X01685Y02425
X01625Y02445
Y02365
X0166Y0229
X0162Y02225
X0171Y022
X01735Y0235
X01785Y02385
X01805Y02325
X01895Y0233
X0186Y024
X02075Y02515
X0198798Y0274702
X0198851Y0277851
X0199Y0281
X0192Y02805
X01925Y02745
Y0289
X019895Y029045
X0206Y0302
X02125Y03025
X0188Y0301
X01835
X01795Y03025
X0175
X0171Y03065
X0169Y031
X0175Y03115
X01805Y03095
X0179Y0289
X0173Y0286
X01695Y02845
X0169Y02895
X0165
X0157Y0289
X01595Y0282
X0166Y02805
X01625Y02765
X0163Y0272
X01685Y02745
X01765Y0275
X01755Y028
X0157Y02745
Y027
X0158Y0301
X0163Y0304
X0167Y0301
X01585Y0309
X0219Y0282
X0236441Y0284941
X0254Y02865
X02525Y02815
X02835Y02705
X0189Y0208
X019Y01975
X01905Y01875
X0184Y0185
X0178Y01885
X01755Y01785
X01715Y0173
X0161Y01715
X01655Y0164
X01755Y01605
X01865Y01615
X0185Y0173
X01955Y01725
X0205Y01665
X01995Y01585
X02175Y016
X02025Y0182
X0168Y01845
X01595Y01915
X01575Y0204
X01675Y0201
X0173Y0199
X0182Y02005
X0156Y0197
X015Y0202
X0145Y01995
X0139Y0204
X014Y02105
X0145Y021
X015Y02105
X01545Y0213
X01355
X01345Y02085
X013
X01315Y02035
X0126Y02055
X012
X01145Y0206
Y02105
X0119
X01235
X0128Y0213
X013Y0217
Y0221
Y0225
X0134
Y0221
Y0217
Y02295
X013
Y02335
X0134
X01345Y0197
X0127Y01955
X01215Y0199
X01205Y0191
X01145
Y0186
Y0181
Y01765
Y0172
X01235Y0182
X0131Y01875
X0138Y0188
X01365Y01815
X01465Y0178
X0147Y0185
X01485Y0192
X0156Y01845
X0151Y01715
X01425Y0169
X01405Y01615
X0154Y0162
Y01565
X01145Y0196
Y0201
X01175Y03105
X0121Y03075
X01245Y0304
X0128Y0301
X01315Y0298
X0135Y02955
X01385Y0298
X01425Y02995
X01465Y03005
X015Y0304
X0149Y0308
X0145Y03115
X0136Y03105
X01315Y0311
X0131Y03065
X0135Y0304
X0141
X0155Y03045
X01535Y0301
X01525Y0289
X0153Y02845
X0151Y0281
X0154Y0278
X01475Y02835
Y02885
X0144Y02865
X01265Y0312
X01225Y03145
X0123Y03215
X0118Y03205
X0114Y0322
Y0326
Y033
Y0334
Y0338
Y0342
Y0346
Y035
Y0354
Y03575
Y03615
Y03655
Y03695
Y03735
Y03775
X0118Y03715
X0121Y03665
X01245
X01265Y03715
X0133Y03745
X01365Y037
X0132Y03675
X01315Y03625
X0135Y036
X01325Y03555
X01265Y0353
X0119
X01205Y03575
X01185Y0363
X0126Y03605
X0131Y0347
X0136Y0349
X01345Y0343
X0135Y03375
X01355Y03305
X0136Y03245
X01375Y0319
X0134Y0316
X013Y0318
Y0327
X01265Y0331
X01255Y0337
X01195Y0336
X012Y03435
X0121Y0347
X01285Y0342
X01445Y03425
X01425Y0339
X01405Y03355
X0148
X01555
X01515Y034
X0151Y03445
X0152Y033
Y03225
X01515Y0317
X0145Y03185
Y03285
X0121
X0114Y0318
Y0314
X01555Y03125
X01645Y03135
X0165Y032
X01695Y03195
X0173Y03215
X01785Y03205
X01705Y0315
X016Y0318
Y0323
X01605Y033
X0162Y03365
X0166Y03325
X0165Y0326
X01725Y033
X018Y0333
X01855Y033
X01845Y0338
X0177Y0339
X0169Y03405
X0159Y0342
X01615Y0349
X01645Y03535
X01635Y03645
X0162Y0373
X0167Y03845
X0162Y03905
X01795Y0383
X01875Y03785
X01895Y03685
X0182Y0369
X0201Y037
X02015Y0382
X02135Y03825
X02105Y03905
X0218Y03925
X0226
X0245Y0392
X0248Y0388
X02575Y03925
X0264Y03935
X02715Y0392
X02825Y03925
X0287Y0388
X0285Y0385
X02935Y0383
X02925Y0394
X02995Y0391
X03075Y039
X03Y03705
X02925Y03695
X0291Y03615
X0295Y03555
X0287Y0355
X02825Y0354
X0275Y03525
X0277Y03475
X0281Y03425
X0287Y03465
X02975Y0346
X031Y0351
Y03645
X0281Y03625
X02815Y03705
X028Y0377
X02755Y0378
X0268Y0372
X0272Y03615
X0269Y03545
X02665Y0347
X02605Y035
Y03565
X02505Y0353
X0243Y03565
X02405Y036
X02445Y03645
X02355Y03685
X02275
X02215Y0373
X02145Y0366
X0221Y0358
X023Y03595
X02325Y03485
X0224Y0349
X02205Y0342
X0213Y0344
X0202Y0338
X01965Y03425
X0188Y03435
X0192Y0354
X01965Y03305
X0219Y0332
X02365Y0321
X02415Y0326
X02525Y03215
X0279
X0276Y03275
X0286Y0326
X02885Y0332
X0289Y032
X02985Y0321
X03005Y0329
X03115Y0322
X0258Y03425
X0246Y0344
X0253Y03705
X0261Y03845
X0266Y03855
X01885Y03935
X03125Y0381
X0329Y0385
X0334Y03915
X03455Y0389
X0349Y0393
X03545Y0385
X0344109Y0378608
X034Y03785
X03415Y0358
X0326Y03585
X03155Y0363
X03145Y03445
X03135Y033
X0316Y0317
X03315Y0316
X03295Y03125
X0346Y03175
X03535Y0324
X0361Y03255
X038
X0379Y03355
X03735Y03445
X0377Y03495
X038Y03585
X03735Y03635
X03775Y03715
X03665Y0371
X03505Y03475
X03725Y0317
X0378Y0313
T02
X0205126Y0281
X0205127Y0284938
Y0288874
X0209063
X0213
Y0284937
Y0281
X0209065Y0281002
X0209063Y0284937
T04
X03425Y02195
X03055Y0206
X03005Y0201
X02955Y01965
X02705Y0206
X0246Y03755
X0306807Y0376193
X03315Y03665
X03505
T06
X0339441Y0182
X0349441
X03105
X03005
X02905
X02805
X02705
T07
X03745Y01645
X01245
Y0385
X03745
T08
X0329778Y0377374
X0352534
M30
