G04*
G04 #@! TF.GenerationSoftware,Altium Limited,Altium Designer,18.0.10 (644)*
G04*
G04 Layer_Physical_Order=1*
G04 Layer_Color=255*
%FSLAX25Y25*%
%MOIN*%
G70*
G01*
G75*
%ADD10C,0.01000*%
%ADD22R,0.01181X0.04528*%
%ADD23R,0.01181X0.04528*%
%ADD24R,0.01180X0.04520*%
%ADD25R,0.01180X0.04520*%
%ADD26R,0.03937X0.03937*%
%ADD27O,0.01102X0.03543*%
%ADD28R,0.01102X0.03543*%
%ADD29O,0.03543X0.01102*%
%ADD30R,0.05118X0.14961*%
%ADD31O,0.05118X0.14961*%
%ADD32R,0.03000X0.03000*%
%ADD33R,0.03000X0.03000*%
%ADD34R,0.04000X0.04000*%
%ADD35R,0.04000X0.05000*%
%ADD36R,0.05906X0.07874*%
G04:AMPARAMS|DCode=37|XSize=50mil|YSize=35mil|CornerRadius=0mil|HoleSize=0mil|Usage=FLASHONLY|Rotation=270.000|XOffset=0mil|YOffset=0mil|HoleType=Round|Shape=Octagon|*
%AMOCTAGOND37*
4,1,8,-0.00875,-0.02500,0.00875,-0.02500,0.01750,-0.01625,0.01750,0.01625,0.00875,0.02500,-0.00875,0.02500,-0.01750,0.01625,-0.01750,-0.01625,-0.00875,-0.02500,0.0*
%
%ADD37OCTAGOND37*%

%ADD38R,0.03500X0.05000*%
G04:AMPARAMS|DCode=39|XSize=50mil|YSize=35mil|CornerRadius=0mil|HoleSize=0mil|Usage=FLASHONLY|Rotation=180.000|XOffset=0mil|YOffset=0mil|HoleType=Round|Shape=Octagon|*
%AMOCTAGOND39*
4,1,8,-0.02500,0.00875,-0.02500,-0.00875,-0.01625,-0.01750,0.01625,-0.01750,0.02500,-0.00875,0.02500,0.00875,0.01625,0.01750,-0.01625,0.01750,-0.02500,0.00875,0.0*
%
%ADD39OCTAGOND39*%

%ADD40R,0.05000X0.03500*%
%ADD41R,0.02618X0.00787*%
%ADD42R,0.00787X0.02618*%
%ADD43R,0.15748X0.15748*%
%ADD44R,0.02500X0.03000*%
%ADD45R,0.12598X0.08268*%
%ADD46R,0.03543X0.08268*%
%ADD47R,0.05512X0.04724*%
%ADD48R,0.04724X0.03937*%
%ADD49R,0.03500X0.03500*%
%ADD50R,0.08661X0.05906*%
%ADD51R,0.03000X0.02500*%
%ADD52R,0.01968X0.01575*%
%ADD53R,0.03937X0.01181*%
%ADD54R,0.01181X0.03937*%
%ADD55R,0.09843X0.09843*%
%ADD56O,0.02165X0.07874*%
%ADD57O,0.07200X0.02400*%
%ADD101C,0.01150*%
%ADD102C,0.03937*%
%ADD103C,0.01575*%
%ADD104C,0.02000*%
%ADD105C,0.00578*%
%ADD106C,0.02953*%
%ADD107O,0.04724X0.07874*%
%ADD108O,0.04724X0.09055*%
%ADD109C,0.06693*%
%ADD110R,0.06693X0.06693*%
%ADD111C,0.01968*%
%ADD112C,0.05000*%
%ADD113C,0.19685*%
%ADD114C,0.02400*%
G36*
X124961Y397462D02*
Y397462D01*
X125447Y397480D01*
X373544D01*
X374039Y397462D01*
D01*
X374531Y397495D01*
X376455Y397344D01*
X378362Y396886D01*
X380174Y396136D01*
X381846Y395111D01*
X383337Y393837D01*
X384611Y392346D01*
X385636Y390674D01*
X386386Y388862D01*
X386844Y386955D01*
X386995Y385031D01*
X386962Y384539D01*
X386962D01*
X386980Y384053D01*
Y381000D01*
X386980Y165456D01*
X386962Y164962D01*
D01*
X386995Y164469D01*
X386844Y162545D01*
X386386Y160638D01*
X385636Y158826D01*
X384611Y157154D01*
X383337Y155663D01*
X381846Y154389D01*
X380174Y153364D01*
X378362Y152614D01*
X376455Y152156D01*
X374531Y152005D01*
X374039Y152039D01*
Y152039D01*
X373553Y152020D01*
X125456Y152020D01*
X124961Y152039D01*
D01*
X124469Y152005D01*
X122545Y152156D01*
X120638Y152614D01*
X118826Y153364D01*
X117154Y154389D01*
X115663Y155663D01*
X114389Y157154D01*
X113364Y158826D01*
X112614Y160638D01*
X112156Y162545D01*
X112005Y164469D01*
X112039Y164962D01*
X112039D01*
X112020Y165447D01*
Y214000D01*
X125000Y214000D01*
X127500Y216500D01*
X127500Y242500D01*
X136500D01*
Y216500D01*
X139500Y213500D01*
X151000D01*
X154000Y216500D01*
X154000Y273339D01*
X149839Y277500D01*
X139689Y286778D01*
X140091Y287249D01*
X141953Y288840D01*
X144042Y290120D01*
X146306Y291057D01*
X148688Y291629D01*
X151000Y291811D01*
X151130Y291794D01*
X166648D01*
X167535Y291911D01*
X168361Y292253D01*
X169071Y292798D01*
X169502Y292538D01*
X169934Y292206D01*
X170761Y291864D01*
X171648Y291747D01*
X187652D01*
X187843Y291285D01*
X187779Y291221D01*
X187558Y290890D01*
X187480Y290500D01*
Y288500D01*
Y284118D01*
X186500D01*
Y283020D01*
X184250D01*
Y284000D01*
X180750D01*
Y280000D01*
X184250D01*
Y280980D01*
X186500D01*
Y280118D01*
X190500D01*
X190593Y279962D01*
X190602Y279921D01*
X190602Y279921D01*
X190930Y279430D01*
X191421Y279102D01*
X192000Y278987D01*
X192060Y278998D01*
X192353Y278705D01*
X192684Y278484D01*
X193074Y278406D01*
X193838D01*
Y277296D01*
X193276D01*
X192886Y277218D01*
X192555Y276997D01*
X191779Y276221D01*
X191558Y275890D01*
X191504Y275620D01*
X191430Y275570D01*
X191102Y275079D01*
X190987Y274500D01*
X191102Y273921D01*
X191430Y273430D01*
X191921Y273102D01*
X192500Y272987D01*
X193079Y273102D01*
X193570Y273430D01*
X193838Y273808D01*
Y273808D01*
X193838Y273808D01*
X195185D01*
X195257Y273760D01*
X195647Y273682D01*
X197578D01*
X197933Y273331D01*
Y271985D01*
X197885Y271913D01*
X197807Y271522D01*
Y270749D01*
X196560Y269501D01*
X196500Y269513D01*
X195921Y269398D01*
X195430Y269070D01*
X195102Y268579D01*
X194987Y268000D01*
X195102Y267421D01*
X195430Y266930D01*
X195921Y266602D01*
X196500Y266487D01*
X196922Y266570D01*
X197168Y266110D01*
X196560Y265501D01*
X196500Y265513D01*
X195921Y265398D01*
X195430Y265070D01*
X195102Y264579D01*
X194987Y264000D01*
X195102Y263421D01*
X195430Y262930D01*
X195921Y262602D01*
X196500Y262487D01*
X197079Y262602D01*
X197570Y262930D01*
X197898Y263421D01*
X198013Y264000D01*
X198002Y264060D01*
X200495Y266553D01*
X200957Y266361D01*
Y238588D01*
X200930Y238570D01*
X200602Y238079D01*
X200487Y237500D01*
X200602Y236921D01*
X200930Y236430D01*
X201421Y236102D01*
X202000Y235987D01*
X202579Y236102D01*
X203070Y236430D01*
X203398Y236921D01*
X203513Y237500D01*
X203398Y238079D01*
X203070Y238570D01*
X202996Y238620D01*
Y242871D01*
X203496Y243087D01*
X204000Y242987D01*
X204579Y243102D01*
X205070Y243430D01*
X205398Y243921D01*
X205513Y244500D01*
X205398Y245079D01*
X205204Y245369D01*
X205251Y245600D01*
X205794Y245764D01*
X210480Y241078D01*
Y239604D01*
X210430Y239570D01*
X210102Y239079D01*
X209987Y238500D01*
X210102Y237921D01*
X210430Y237430D01*
X210921Y237102D01*
X211500Y236987D01*
X212079Y237102D01*
X212570Y237430D01*
X212898Y237921D01*
X213013Y238500D01*
X212898Y239079D01*
X212570Y239570D01*
X212520Y239604D01*
Y241500D01*
X212442Y241890D01*
X212221Y242221D01*
X206145Y248296D01*
Y261259D01*
X206607Y261451D01*
X207220Y260838D01*
X207550Y260617D01*
X207941Y260540D01*
X209500D01*
Y259559D01*
X213500D01*
Y260540D01*
X215500D01*
Y259559D01*
X219500D01*
Y260480D01*
X220896D01*
X220930Y260430D01*
X221421Y260102D01*
X222000Y259987D01*
X222579Y260102D01*
X223070Y260430D01*
X223398Y260921D01*
X223513Y261500D01*
X223398Y262079D01*
X223070Y262570D01*
X222579Y262898D01*
X222000Y263013D01*
X221421Y262898D01*
X220930Y262570D01*
X220896Y262520D01*
X219500D01*
Y263559D01*
X215500D01*
Y262579D01*
X213500D01*
Y263559D01*
X209500D01*
Y262579D01*
X208363D01*
X207720Y263222D01*
Y269713D01*
X220193D01*
Y273331D01*
X200251D01*
X200002Y273831D01*
X200197Y274123D01*
X200312Y274702D01*
X200197Y275281D01*
X199869Y275772D01*
X199555Y275981D01*
X199530Y276078D01*
X199554Y276533D01*
X199555Y276536D01*
X199921Y276781D01*
X200249Y277272D01*
X200364Y277851D01*
X200249Y278430D01*
X199921Y278921D01*
X199646Y279105D01*
X199623Y279278D01*
X199682Y279670D01*
X200070Y279930D01*
X200398Y280421D01*
X200513Y281000D01*
X200398Y281579D01*
X200070Y282070D01*
X199579Y282398D01*
X199000Y282513D01*
X198421Y282398D01*
X197956Y282088D01*
X197456Y282193D01*
Y284832D01*
Y289113D01*
X197660Y289241D01*
X197956Y289328D01*
X198371Y289052D01*
X198950Y288936D01*
X199529Y289052D01*
X200020Y289380D01*
X200348Y289871D01*
X200463Y290450D01*
X200348Y291029D01*
X200020Y291520D01*
X199529Y291848D01*
X198950Y291963D01*
X198371Y291848D01*
X197956Y291571D01*
X197660Y291658D01*
X197456Y291787D01*
Y296068D01*
X197307D01*
X196968Y296887D01*
X196423Y297597D01*
X195713Y298142D01*
X194887Y298484D01*
X194000Y298601D01*
X171648D01*
X170761Y298484D01*
X169934Y298142D01*
X169547Y297845D01*
X169115Y297663D01*
X168794Y297857D01*
X168361Y298189D01*
X167535Y298531D01*
X166648Y298648D01*
X151130D01*
Y298667D01*
X148199Y298475D01*
X145318Y297901D01*
X142536Y296957D01*
X139901Y295658D01*
X137459Y294026D01*
X135250Y292089D01*
X134875Y291661D01*
X134376Y291634D01*
X112020Y312068D01*
Y384044D01*
X112039Y384539D01*
D01*
X112005Y385031D01*
X112156Y386955D01*
X112614Y388862D01*
X113364Y390674D01*
X114389Y392346D01*
X115663Y393837D01*
X117154Y395111D01*
X118826Y396136D01*
X120638Y396886D01*
X122545Y397344D01*
X124469Y397495D01*
X124961Y397462D01*
D02*
G37*
G36*
X190633Y289045D02*
X191014Y288865D01*
X191102Y288421D01*
X191430Y287930D01*
X191921Y287602D01*
X192500Y287487D01*
X193079Y287602D01*
X193338Y287775D01*
X193838Y287593D01*
Y284832D01*
Y281252D01*
X193770Y281225D01*
X193338Y281169D01*
X193070Y281570D01*
X192579Y281898D01*
X192000Y282013D01*
X191421Y281898D01*
X191000Y281617D01*
X190718Y281697D01*
X190500Y281827D01*
Y284118D01*
X189520D01*
Y288078D01*
X190503Y289061D01*
X190633Y289045D01*
D02*
G37*
%LPC*%
G36*
X150250Y393500D02*
X145750D01*
Y391519D01*
X142276D01*
Y393499D01*
X137776D01*
Y387499D01*
X142276D01*
Y389480D01*
X145750D01*
Y387500D01*
X150250D01*
Y389480D01*
X153776D01*
Y387499D01*
X158276D01*
Y389480D01*
X160897D01*
X160930Y389430D01*
X161421Y389102D01*
X162000Y388987D01*
X162579Y389102D01*
X163070Y389430D01*
X163398Y389921D01*
X163513Y390500D01*
X163398Y391079D01*
X163070Y391570D01*
X162579Y391898D01*
X162000Y392013D01*
X161421Y391898D01*
X160930Y391570D01*
X160896Y391519D01*
X158276D01*
Y393499D01*
X153776D01*
Y391519D01*
X150250D01*
Y393500D01*
D02*
G37*
G36*
X282799Y389854D02*
X269201D01*
Y380587D01*
X282799D01*
Y389854D01*
D02*
G37*
G36*
X344500Y384813D02*
X337523D01*
X337020Y384713D01*
X336594Y384428D01*
X331613Y379447D01*
X331329Y379021D01*
X330825Y379051D01*
X330549Y379236D01*
X329778Y379389D01*
X329006Y379236D01*
X328353Y378799D01*
X327916Y378145D01*
X327762Y377374D01*
X327916Y376603D01*
X328353Y375949D01*
X329006Y375512D01*
X329683Y375378D01*
X329876Y375175D01*
X330025Y374898D01*
Y369492D01*
X330025Y369492D01*
X329891Y369047D01*
X329360Y368640D01*
X328879Y368013D01*
X328577Y367283D01*
X328474Y366500D01*
X328577Y365717D01*
X328879Y364987D01*
X329360Y364360D01*
X329987Y363879D01*
X330480Y363675D01*
Y347500D01*
X330558Y347110D01*
X330779Y346779D01*
X332861Y344697D01*
X333192Y344476D01*
X333582Y344398D01*
X334292D01*
X334536Y343898D01*
X334444Y343761D01*
X334366Y343371D01*
Y340311D01*
X326421D01*
Y335827D01*
X326421Y335488D01*
X326083Y335488D01*
X321598D01*
Y331339D01*
Y327401D01*
Y323464D01*
X326083D01*
X326421Y323464D01*
X326421Y323126D01*
Y318642D01*
X326492D01*
Y309476D01*
X324933D01*
Y305476D01*
X325914D01*
Y302899D01*
X321491Y298476D01*
X317933D01*
Y293476D01*
X322933D01*
Y297034D01*
X327654Y301755D01*
X327875Y302086D01*
X327953Y302476D01*
Y305476D01*
X328933D01*
Y309476D01*
X328531D01*
Y310806D01*
X329031Y311080D01*
X329500Y310987D01*
X330079Y311102D01*
X330570Y311430D01*
X330898Y311921D01*
X331013Y312500D01*
X330898Y313079D01*
X330570Y313570D01*
X330500Y313617D01*
Y314350D01*
X331000Y314586D01*
X331500Y314487D01*
X332079Y314602D01*
X332570Y314930D01*
X332898Y315421D01*
X333013Y316000D01*
X332898Y316579D01*
X332570Y317070D01*
X332520Y317104D01*
Y318642D01*
X334366D01*
Y309905D01*
X334444Y309515D01*
X334665Y309184D01*
X335815Y308034D01*
Y305476D01*
X336795D01*
Y298476D01*
X333933D01*
Y293520D01*
X333933Y293476D01*
X333828Y293020D01*
X332332D01*
X330433Y294918D01*
Y298476D01*
X325433D01*
Y293476D01*
X328991D01*
X331188Y291279D01*
X331519Y291058D01*
X331909Y290980D01*
X337235D01*
X337733Y290976D01*
X337733Y290480D01*
Y284976D01*
X341791D01*
X343488Y283279D01*
X343819Y283058D01*
X344209Y282980D01*
X354000D01*
X354390Y283058D01*
X354721Y283279D01*
X358721Y287279D01*
X358942Y287610D01*
X359020Y288000D01*
Y319500D01*
X358942Y319890D01*
X358721Y320221D01*
X355001Y323940D01*
X355013Y324000D01*
X354898Y324579D01*
X354570Y325070D01*
X354079Y325398D01*
X353500Y325513D01*
X352921Y325398D01*
X352430Y325070D01*
X352102Y324579D01*
X351987Y324000D01*
X352102Y323421D01*
X352430Y322930D01*
X352921Y322602D01*
X353500Y322487D01*
X353560Y322498D01*
X356980Y319078D01*
Y288422D01*
X353578Y285020D01*
X344632D01*
X342733Y286918D01*
X342733Y290976D01*
X343231Y290980D01*
X347500D01*
X347890Y291058D01*
X348221Y291279D01*
X349721Y292779D01*
X349942Y293110D01*
X350020Y293500D01*
Y305000D01*
X349942Y305390D01*
X349721Y305721D01*
X347245Y308197D01*
X346914Y308418D01*
X346524Y308496D01*
X344933D01*
Y309476D01*
X340933D01*
Y305476D01*
X344933D01*
Y306457D01*
X346101D01*
X347980Y304578D01*
Y293922D01*
X347078Y293020D01*
X346538D01*
X346433Y293476D01*
X346433Y293520D01*
Y298476D01*
X345020D01*
Y299896D01*
X345070Y299930D01*
X345398Y300421D01*
X345513Y301000D01*
X345398Y301579D01*
X345070Y302070D01*
X344579Y302398D01*
X344000Y302513D01*
X343421Y302398D01*
X342930Y302070D01*
X342602Y301579D01*
X342487Y301000D01*
X342602Y300421D01*
X342930Y299930D01*
X342980Y299896D01*
Y298476D01*
X341433D01*
Y293520D01*
X341433Y293476D01*
X341329Y293020D01*
X339038D01*
X338933Y293476D01*
X338933Y293520D01*
Y298476D01*
X338835D01*
Y305476D01*
X339815D01*
Y309476D01*
X337257D01*
X336405Y310328D01*
Y318642D01*
X338445D01*
Y323126D01*
X338445Y323464D01*
X338783Y323464D01*
X343268D01*
Y325646D01*
X338354D01*
X338331Y325646D01*
X337854Y325703D01*
Y327344D01*
X338331Y327401D01*
X338354Y327401D01*
X343268D01*
Y327472D01*
X355492D01*
X355882Y327550D01*
X356213Y327771D01*
X360221Y331779D01*
X360442Y332110D01*
X360520Y332500D01*
Y359500D01*
X360442Y359890D01*
X360221Y360221D01*
X357221Y363221D01*
X356890Y363442D01*
X356500Y363520D01*
X352365D01*
X352196Y364020D01*
X352640Y364360D01*
X353120Y364987D01*
X353423Y365717D01*
X353526Y366500D01*
X353423Y367283D01*
X353120Y368013D01*
X352640Y368640D01*
X352160Y369008D01*
X352285Y369508D01*
X352285D01*
Y374899D01*
X352439Y375185D01*
X352642Y375380D01*
X353305Y375512D01*
X353958Y375949D01*
X354395Y376603D01*
X354549Y377374D01*
X354395Y378145D01*
X353958Y378799D01*
X353305Y379236D01*
X352534Y379389D01*
X351762Y379236D01*
X351245Y378890D01*
X350795Y378985D01*
X350678Y379054D01*
X350428Y379428D01*
X345428Y384428D01*
X345002Y384713D01*
X344500Y384813D01*
D02*
G37*
G36*
X306807Y379219D02*
X306024Y379116D01*
X305294Y378813D01*
X304667Y378332D01*
X304199Y377722D01*
X301256D01*
Y379055D01*
X294744D01*
Y377722D01*
X289193D01*
X288608Y377606D01*
X288111Y377274D01*
X283974Y373137D01*
X283642Y372640D01*
X283526Y372055D01*
Y367413D01*
X282784D01*
Y358146D01*
X287327D01*
Y367413D01*
X286584D01*
Y371422D01*
X289826Y374663D01*
X294744D01*
Y373331D01*
X301256D01*
Y374663D01*
X304199D01*
X304667Y374053D01*
X305294Y373572D01*
X306024Y373270D01*
X306807Y373167D01*
X307590Y373270D01*
X308320Y373572D01*
X308947Y374053D01*
X309428Y374680D01*
X309730Y375410D01*
X309833Y376193D01*
X309730Y376976D01*
X309428Y377706D01*
X308947Y378332D01*
X308320Y378813D01*
X307590Y379116D01*
X306807Y379219D01*
D02*
G37*
G36*
X233875Y388724D02*
X230124D01*
X228999Y387599D01*
Y385349D01*
X230124Y384224D01*
X230980D01*
Y381000D01*
X229941D01*
Y377000D01*
X233941D01*
Y381000D01*
X233019D01*
Y384224D01*
X233875D01*
X234999Y385349D01*
Y387599D01*
X233875Y388724D01*
D02*
G37*
G36*
X374500Y395374D02*
X372877Y395247D01*
X371294Y394867D01*
X369790Y394244D01*
X368402Y393393D01*
X367164Y392336D01*
X366107Y391098D01*
X365256Y389710D01*
X364633Y388206D01*
X364253Y386623D01*
X364125Y385000D01*
X364253Y383377D01*
X364633Y381794D01*
X365256Y380290D01*
X366107Y378902D01*
X367164Y377664D01*
X368402Y376607D01*
X369790Y375756D01*
X371294Y375133D01*
X372877Y374753D01*
X374500Y374625D01*
X376123Y374753D01*
X377706Y375133D01*
X379210Y375756D01*
X380598Y376607D01*
X381836Y377664D01*
X382893Y378902D01*
X383744Y380290D01*
X384367Y381794D01*
X384747Y383377D01*
X384875Y385000D01*
X384747Y386623D01*
X384367Y388206D01*
X383744Y389710D01*
X382893Y391098D01*
X381836Y392336D01*
X380598Y393393D01*
X379210Y394244D01*
X377706Y394867D01*
X376123Y395247D01*
X374500Y395374D01*
D02*
G37*
G36*
X124500D02*
X122877Y395247D01*
X121294Y394867D01*
X119790Y394244D01*
X118402Y393393D01*
X117164Y392336D01*
X116107Y391098D01*
X115256Y389710D01*
X114633Y388206D01*
X114253Y386623D01*
X114126Y385000D01*
X114253Y383377D01*
X114633Y381794D01*
X115256Y380290D01*
X116107Y378902D01*
X117164Y377664D01*
X118402Y376607D01*
X119790Y375756D01*
X121294Y375133D01*
X122877Y374753D01*
X124500Y374625D01*
X126123Y374753D01*
X127706Y375133D01*
X129210Y375756D01*
X130598Y376607D01*
X131836Y377664D01*
X132893Y378902D01*
X133744Y380290D01*
X134367Y381794D01*
X134747Y383377D01*
X134874Y385000D01*
X134747Y386623D01*
X134367Y388206D01*
X133744Y389710D01*
X132893Y391098D01*
X131836Y392336D01*
X130598Y393393D01*
X129210Y394244D01*
X127706Y394867D01*
X126123Y395247D01*
X124500Y395374D01*
D02*
G37*
G36*
X157151Y386500D02*
X154901D01*
X153776Y385374D01*
Y381625D01*
X154901Y380500D01*
X155006D01*
Y363059D01*
X153500D01*
Y359059D01*
X157500D01*
Y363059D01*
X157045D01*
Y380500D01*
X157151D01*
X158276Y381625D01*
Y385374D01*
X157151Y386500D01*
D02*
G37*
G36*
X149125Y386500D02*
X146875D01*
X145750Y385375D01*
Y381625D01*
X146875Y380500D01*
X146980D01*
Y363059D01*
X146000D01*
Y359059D01*
X150000D01*
Y363059D01*
X149019D01*
Y380500D01*
X149125D01*
X150250Y381625D01*
Y385375D01*
X149125Y386500D01*
D02*
G37*
G36*
X141151Y386500D02*
X138901D01*
X137776Y385374D01*
Y381625D01*
X138901Y380500D01*
X139006D01*
Y363059D01*
X138500D01*
Y359059D01*
X142500D01*
Y363059D01*
X141045D01*
Y380500D01*
X141151D01*
X142276Y381625D01*
Y385374D01*
X141151Y386500D01*
D02*
G37*
G36*
X242000Y388724D02*
X235999D01*
Y384224D01*
X239808D01*
X240980Y383052D01*
Y378000D01*
X241058Y377610D01*
X241279Y377279D01*
X242984Y375574D01*
X242974Y375500D01*
X243077Y374717D01*
X243379Y373987D01*
X243860Y373360D01*
X244487Y372880D01*
X245217Y372577D01*
X246000Y372474D01*
X246783Y372577D01*
X247513Y372880D01*
X248140Y373360D01*
X248621Y373987D01*
X248694Y374164D01*
X250244D01*
Y372831D01*
X256756D01*
Y374471D01*
X271367D01*
X274471Y371367D01*
Y367413D01*
X273728D01*
Y358146D01*
X278272D01*
Y367413D01*
X277529D01*
Y372000D01*
X277413Y372585D01*
X277081Y373081D01*
X273081Y377081D01*
X272585Y377413D01*
X272000Y377529D01*
X256756D01*
Y378555D01*
X250244D01*
Y377222D01*
X248460D01*
X248140Y377640D01*
X247513Y378120D01*
X246783Y378423D01*
X246000Y378526D01*
X245217Y378423D01*
X244487Y378120D01*
X243860Y377640D01*
X243806Y377636D01*
X243020Y378422D01*
Y383474D01*
X242942Y383864D01*
X242721Y384195D01*
X242000Y384916D01*
Y388724D01*
D02*
G37*
G36*
X181453Y363937D02*
X174547D01*
Y355063D01*
X176980D01*
Y352000D01*
X176059D01*
Y348000D01*
X177039D01*
Y344441D01*
X177117Y344051D01*
X177338Y343720D01*
X182999Y338060D01*
X182987Y338000D01*
X183102Y337421D01*
X183430Y336930D01*
X183921Y336602D01*
X184500Y336487D01*
X185079Y336602D01*
X185570Y336930D01*
X185604Y336980D01*
X200896D01*
X200930Y336930D01*
X201421Y336602D01*
X202000Y336487D01*
X202579Y336602D01*
X203070Y336930D01*
X203398Y337421D01*
X203513Y338000D01*
X203398Y338579D01*
X203070Y339070D01*
X202579Y339398D01*
X202000Y339513D01*
X201421Y339398D01*
X200930Y339070D01*
X200896Y339020D01*
X185604D01*
X185570Y339070D01*
X185079Y339398D01*
X184500Y339513D01*
X184440Y339502D01*
X179078Y344864D01*
Y348000D01*
X180059D01*
Y352000D01*
X179020D01*
Y355063D01*
X181453D01*
Y363937D01*
D02*
G37*
G36*
X157500Y357941D02*
X153500D01*
Y353941D01*
X154480D01*
Y336604D01*
X154430Y336570D01*
X154102Y336079D01*
X153987Y335500D01*
X154102Y334921D01*
X154430Y334430D01*
X154921Y334102D01*
X155500Y333987D01*
X156079Y334102D01*
X156570Y334430D01*
X156898Y334921D01*
X157013Y335500D01*
X156898Y336079D01*
X156570Y336570D01*
X156520Y336604D01*
Y353941D01*
X157500D01*
Y357941D01*
D02*
G37*
G36*
X150000D02*
X146000D01*
Y353941D01*
X146980D01*
Y336604D01*
X146930Y336570D01*
X146602Y336079D01*
X146487Y335500D01*
X146602Y334921D01*
X146930Y334430D01*
X147421Y334102D01*
X148000Y333987D01*
X148579Y334102D01*
X149070Y334430D01*
X149398Y334921D01*
X149513Y335500D01*
X149398Y336079D01*
X149070Y336570D01*
X149020Y336604D01*
Y353941D01*
X150000D01*
Y357941D01*
D02*
G37*
G36*
X142500D02*
X138500D01*
Y353941D01*
X139480D01*
Y336604D01*
X139430Y336570D01*
X139102Y336079D01*
X138987Y335500D01*
X139102Y334921D01*
X139430Y334430D01*
X139921Y334102D01*
X140500Y333987D01*
X141079Y334102D01*
X141570Y334430D01*
X141898Y334921D01*
X142013Y335500D01*
X141898Y336079D01*
X141570Y336570D01*
X141519Y336604D01*
Y353941D01*
X142500D01*
Y357941D01*
D02*
G37*
G36*
X202453Y363937D02*
X195547D01*
Y355063D01*
X197980D01*
Y352000D01*
X196941D01*
Y348000D01*
X197922D01*
Y346059D01*
X197999Y345669D01*
X198220Y345338D01*
X209279Y334279D01*
X209610Y334058D01*
X210000Y333980D01*
X251019D01*
X262000Y322999D01*
Y320441D01*
X262480D01*
Y305104D01*
X262430Y305070D01*
X262102Y304579D01*
X261987Y304000D01*
X262102Y303421D01*
X262430Y302930D01*
X262921Y302602D01*
X263500Y302487D01*
X264079Y302602D01*
X264570Y302930D01*
X264604Y302980D01*
X297578D01*
X313303Y287255D01*
X313633Y287034D01*
X314024Y286957D01*
X321733D01*
Y284976D01*
X326733D01*
Y290976D01*
X321733D01*
Y288996D01*
X314446D01*
X298721Y304721D01*
X298390Y304942D01*
X298000Y305020D01*
X264604D01*
X264570Y305070D01*
X264520Y305104D01*
Y320441D01*
X266000D01*
Y324441D01*
X263442D01*
X262786Y325097D01*
X262977Y325559D01*
X266000D01*
Y326539D01*
X268500D01*
Y325559D01*
X272500D01*
Y326539D01*
X274857D01*
X274930Y326430D01*
X275421Y326102D01*
X276000Y325987D01*
X276579Y326102D01*
X277070Y326430D01*
X277398Y326921D01*
X277513Y327500D01*
X277398Y328079D01*
X277070Y328570D01*
X276579Y328898D01*
X276000Y329013D01*
X275421Y328898D01*
X274942Y328578D01*
X272500D01*
Y329559D01*
X268500D01*
Y328578D01*
X266000D01*
Y329559D01*
X262000D01*
Y326536D01*
X261538Y326344D01*
X252162Y335721D01*
X251831Y335942D01*
X251441Y336020D01*
X210422D01*
X199961Y346481D01*
Y348000D01*
X200941D01*
Y352000D01*
X200020D01*
Y355063D01*
X202453D01*
Y363937D01*
D02*
G37*
G36*
X220209Y330028D02*
X214484D01*
Y325091D01*
X220209D01*
Y326539D01*
X223000D01*
Y325559D01*
X227000D01*
Y325559D01*
X227353Y325705D01*
X228480Y324578D01*
Y321922D01*
X226078Y319520D01*
X216000D01*
X215610Y319442D01*
X215279Y319221D01*
X213279Y317221D01*
X213058Y316890D01*
X212980Y316500D01*
Y307539D01*
X212750Y307358D01*
X212250Y307593D01*
Y310750D01*
X207750D01*
Y309646D01*
X207333Y309591D01*
X206975Y309955D01*
X207029Y310500D01*
X207020D01*
X206942Y310890D01*
X206721Y311221D01*
Y311779D01*
X206942Y312110D01*
X207020Y312500D01*
X207029D01*
X206913Y313676D01*
X206791Y314079D01*
X207089Y314480D01*
X207750D01*
Y313250D01*
X212250D01*
Y317750D01*
X211673D01*
Y319972D01*
X213516D01*
Y324909D01*
X207791D01*
Y323461D01*
X204500D01*
Y324441D01*
X200500D01*
Y320441D01*
X204500D01*
Y321422D01*
X207791D01*
Y319972D01*
X209634D01*
Y317750D01*
X207750D01*
Y316520D01*
X205463D01*
X205263Y316763D01*
X204349Y317513D01*
X203307Y318070D01*
X202176Y318413D01*
X201000Y318529D01*
X199824Y318413D01*
X198693Y318070D01*
X197651Y317513D01*
X196737Y316763D01*
X195987Y315849D01*
X195430Y314807D01*
X195087Y313676D01*
X194971Y312500D01*
X194980D01*
X195058Y312110D01*
X195279Y311779D01*
Y311221D01*
X195058Y310890D01*
X194980Y310500D01*
X194971D01*
X195087Y309324D01*
X195430Y308193D01*
X195987Y307151D01*
X196737Y306237D01*
X197651Y305487D01*
X198693Y304930D01*
X199824Y304587D01*
X200957Y304475D01*
Y303139D01*
X200495Y302947D01*
X199721Y303721D01*
X199390Y303942D01*
X199000Y304020D01*
X192922D01*
X192020Y304922D01*
Y307441D01*
X193000D01*
Y311441D01*
X189000D01*
Y310460D01*
X187000D01*
Y311441D01*
X183000D01*
Y310460D01*
X181643D01*
X181570Y310570D01*
X181079Y310898D01*
X180500Y311013D01*
X179921Y310898D01*
X179430Y310570D01*
X179102Y310079D01*
X178987Y309500D01*
X179102Y308921D01*
X179430Y308430D01*
X179921Y308102D01*
X180500Y307987D01*
X181079Y308102D01*
X181557Y308421D01*
X183000D01*
Y307441D01*
X187000D01*
Y308421D01*
X189000D01*
Y307441D01*
X189981D01*
Y304500D01*
X190058Y304110D01*
X190279Y303779D01*
X191779Y302279D01*
X192110Y302058D01*
X192500Y301980D01*
X196578D01*
X197807Y300751D01*
Y298353D01*
X197885Y297963D01*
X197933Y297891D01*
Y296544D01*
X220193D01*
Y300162D01*
X215594D01*
Y304593D01*
X218442Y307441D01*
X221000D01*
Y308421D01*
X223000D01*
Y307441D01*
X227000D01*
Y308421D01*
X228837D01*
X228871Y308370D01*
X229362Y308043D01*
X229941Y307927D01*
X230520Y308043D01*
X231011Y308370D01*
X231339Y308861D01*
X231454Y309441D01*
X231339Y310020D01*
X231011Y310511D01*
X230520Y310839D01*
X229941Y310954D01*
X229362Y310839D01*
X228871Y310511D01*
X228837Y310460D01*
X227000D01*
Y311441D01*
X223000D01*
Y310460D01*
X221000D01*
Y311441D01*
X217000D01*
Y308882D01*
X215520Y307402D01*
X215020Y307609D01*
Y316078D01*
X216422Y317480D01*
X226500D01*
X226890Y317558D01*
X227221Y317779D01*
X230221Y320779D01*
X230442Y321110D01*
X230520Y321500D01*
Y325000D01*
X230442Y325390D01*
X230221Y325721D01*
X227662Y328280D01*
X227331Y328501D01*
X227000Y328567D01*
Y329559D01*
X223000D01*
Y328578D01*
X220209D01*
Y330028D01*
D02*
G37*
G36*
X323815Y309476D02*
X319815D01*
Y306918D01*
X316898Y304001D01*
X316839Y304013D01*
X316260Y303898D01*
X315769Y303570D01*
X315441Y303079D01*
X315325Y302500D01*
X315441Y301921D01*
X315769Y301430D01*
X316260Y301102D01*
X316839Y300987D01*
X317418Y301102D01*
X317909Y301430D01*
X318237Y301921D01*
X318352Y302500D01*
X318340Y302560D01*
X321257Y305476D01*
X323815D01*
Y309476D01*
D02*
G37*
G36*
X292569Y293233D02*
X287769D01*
X287106Y293101D01*
X286544Y292726D01*
X286406Y292520D01*
X274104D01*
X274070Y292570D01*
X273579Y292898D01*
X273000Y293013D01*
X272421Y292898D01*
X271930Y292570D01*
X271602Y292079D01*
X271487Y291500D01*
X271602Y290921D01*
X271930Y290430D01*
X272421Y290102D01*
X273000Y289987D01*
X273579Y290102D01*
X274070Y290430D01*
X274104Y290480D01*
X286406D01*
X286544Y290274D01*
X287106Y289899D01*
X287769Y289767D01*
X292569D01*
X293233Y289899D01*
X293795Y290274D01*
X294171Y290837D01*
X294303Y291500D01*
X294171Y292163D01*
X293795Y292726D01*
X293233Y293101D01*
X292569Y293233D01*
D02*
G37*
G36*
X262900Y288233D02*
X258100D01*
X257437Y288101D01*
X256874Y287726D01*
X256737Y287520D01*
X255104D01*
X255070Y287570D01*
X254579Y287898D01*
X254000Y288013D01*
X253421Y287898D01*
X252930Y287570D01*
X252602Y287079D01*
X252487Y286500D01*
X252602Y285921D01*
X252930Y285430D01*
X253421Y285102D01*
X253865Y285014D01*
X254045Y284633D01*
X254062Y284503D01*
X252560Y283001D01*
X252500Y283013D01*
X251921Y282898D01*
X251430Y282570D01*
X251102Y282079D01*
X250987Y281500D01*
X251102Y280921D01*
X251430Y280430D01*
X251921Y280102D01*
X252500Y279987D01*
X253079Y280102D01*
X253570Y280430D01*
X253898Y280921D01*
X254013Y281500D01*
X254001Y281560D01*
X255422Y282980D01*
X256443D01*
X256711Y282480D01*
X256499Y282163D01*
X256367Y281500D01*
X256499Y280837D01*
X256874Y280274D01*
X257437Y279899D01*
X258100Y279767D01*
X259480D01*
Y274118D01*
X258500D01*
Y270118D01*
X262500D01*
Y271098D01*
X264500D01*
Y270118D01*
X268500D01*
Y271098D01*
X270014D01*
X270048Y271048D01*
X270539Y270720D01*
X271118Y270605D01*
X271697Y270720D01*
X272188Y271048D01*
X272516Y271539D01*
X272631Y272118D01*
X272516Y272697D01*
X272188Y273188D01*
X271697Y273516D01*
X271118Y273631D01*
X270539Y273516D01*
X270048Y273188D01*
X270014Y273138D01*
X268500D01*
Y274118D01*
X264500D01*
Y273138D01*
X262500D01*
Y274118D01*
X261520D01*
Y279767D01*
X262900D01*
X263563Y279899D01*
X264126Y280274D01*
X264501Y280837D01*
X264633Y281500D01*
X264501Y282163D01*
X264289Y282480D01*
X264557Y282980D01*
X267578D01*
X269779Y280779D01*
X270110Y280558D01*
X270500Y280480D01*
X286406D01*
X286544Y280274D01*
X287106Y279899D01*
X287769Y279767D01*
X292569D01*
X293233Y279899D01*
X293795Y280274D01*
X294171Y280837D01*
X294303Y281500D01*
X294171Y282163D01*
X293795Y282726D01*
X293233Y283101D01*
X292569Y283233D01*
X287769D01*
X287106Y283101D01*
X286544Y282726D01*
X286406Y282520D01*
X270922D01*
X268721Y284721D01*
X268390Y284942D01*
X268000Y285020D01*
X264557D01*
X264289Y285520D01*
X264501Y285837D01*
X264633Y286500D01*
X264501Y287163D01*
X264126Y287726D01*
X263563Y288101D01*
X262900Y288233D01*
D02*
G37*
G36*
Y298233D02*
X258100D01*
X257437Y298101D01*
X256874Y297726D01*
X256737Y297520D01*
X234000D01*
X233610Y297442D01*
X233279Y297221D01*
X228779Y292721D01*
X228558Y292390D01*
X228480Y292000D01*
Y286922D01*
X226728Y285170D01*
X224287D01*
Y291131D01*
Y296068D01*
X220669D01*
Y292705D01*
Y287981D01*
Y283073D01*
X220169Y282922D01*
X220070Y283070D01*
X219579Y283398D01*
X219000Y283513D01*
X218421Y283398D01*
X217930Y283070D01*
X217602Y282579D01*
X217487Y282000D01*
X217602Y281421D01*
X217930Y280930D01*
X217980Y280896D01*
Y279000D01*
X218058Y278610D01*
X218279Y278279D01*
X219428Y277130D01*
X219759Y276909D01*
X220149Y276832D01*
X220669D01*
Y273808D01*
X222016D01*
X222088Y273760D01*
X222478Y273682D01*
X234441D01*
Y272500D01*
X238441D01*
Y276500D01*
X237460D01*
Y278500D01*
X238441D01*
Y282500D01*
X237460D01*
Y283837D01*
X237511Y283871D01*
X237839Y284362D01*
X237954Y284941D01*
X237839Y285520D01*
X237511Y286011D01*
X237020Y286339D01*
X236441Y286454D01*
X235861Y286339D01*
X235370Y286011D01*
X235043Y285520D01*
X235020Y285405D01*
X234520Y285454D01*
Y288078D01*
X236922Y290480D01*
X256737D01*
X256874Y290274D01*
X257437Y289899D01*
X258100Y289767D01*
X262900D01*
X263563Y289899D01*
X264126Y290274D01*
X264501Y290837D01*
X264633Y291500D01*
X264522Y292058D01*
X264623Y292340D01*
X264807Y292606D01*
X264933Y292625D01*
X271779Y285779D01*
X272110Y285558D01*
X272500Y285480D01*
X286406D01*
X286544Y285274D01*
X287106Y284899D01*
X287769Y284767D01*
X292569D01*
X293233Y284899D01*
X293795Y285274D01*
X294171Y285837D01*
X294303Y286500D01*
X294171Y287163D01*
X293795Y287726D01*
X293233Y288101D01*
X292569Y288233D01*
X287769D01*
X287106Y288101D01*
X286544Y287726D01*
X286406Y287520D01*
X272922D01*
X265721Y294721D01*
X265390Y294942D01*
X265000Y295020D01*
X264557D01*
X264289Y295520D01*
X264501Y295837D01*
X264633Y296500D01*
X264501Y297163D01*
X264126Y297726D01*
X263563Y298101D01*
X262900Y298233D01*
D02*
G37*
G36*
X308500Y262059D02*
X304500D01*
Y261078D01*
X302500D01*
Y262059D01*
X298500D01*
Y261078D01*
X296500D01*
Y262059D01*
X292500D01*
Y261078D01*
X290500D01*
Y262059D01*
X286500D01*
Y258059D01*
X290500D01*
Y259039D01*
X292500D01*
Y258059D01*
X296500D01*
Y259039D01*
X298500D01*
Y258059D01*
X302500D01*
Y259039D01*
X304500D01*
Y258059D01*
X308500D01*
Y259039D01*
X310837D01*
X310871Y258989D01*
X311362Y258661D01*
X311941Y258545D01*
X312520Y258661D01*
X313011Y258989D01*
X313339Y259480D01*
X313455Y260059D01*
X313339Y260638D01*
X313011Y261129D01*
X312520Y261457D01*
X311941Y261572D01*
X311362Y261457D01*
X310871Y261129D01*
X310837Y261078D01*
X308500D01*
Y262059D01*
D02*
G37*
G36*
X184250Y279000D02*
X180750D01*
Y275000D01*
X181980D01*
Y272500D01*
X180941D01*
Y268500D01*
X181980D01*
Y266000D01*
X180941D01*
Y262000D01*
X181980D01*
Y259500D01*
X181000D01*
Y255500D01*
X181980D01*
Y254104D01*
X181930Y254070D01*
X181602Y253579D01*
X181487Y253000D01*
X181602Y252421D01*
X181930Y251930D01*
X182421Y251602D01*
X183000Y251487D01*
X183579Y251602D01*
X184070Y251930D01*
X184398Y252421D01*
X184513Y253000D01*
X184398Y253579D01*
X184070Y254070D01*
X184020Y254104D01*
Y255500D01*
X185000D01*
Y259500D01*
X184020D01*
Y262000D01*
X184941D01*
Y266000D01*
X184020D01*
Y268500D01*
X184941D01*
Y272500D01*
X184020D01*
Y275000D01*
X184250D01*
Y279000D01*
D02*
G37*
G36*
X215000Y236513D02*
X214421Y236398D01*
X213930Y236070D01*
X213602Y235579D01*
X213487Y235000D01*
X213498Y234940D01*
X212700Y234142D01*
X212479Y233811D01*
X212402Y233421D01*
Y233326D01*
X211902Y233059D01*
X211863Y233085D01*
X211453Y233166D01*
X211043Y233085D01*
X210798Y232921D01*
X210469Y232880D01*
X210139Y232921D01*
X209894Y233085D01*
X209484Y233166D01*
X209074Y233085D01*
X208829Y232921D01*
X208500Y232880D01*
X208171Y232921D01*
X207926Y233085D01*
X207516Y233166D01*
X207106Y233085D01*
X206861Y232921D01*
X206532Y232880D01*
X206202Y232921D01*
X205957Y233085D01*
X205547Y233166D01*
X205137Y233085D01*
X204789Y232852D01*
X204557Y232505D01*
X204475Y232095D01*
Y229654D01*
X204557Y229243D01*
X204789Y228896D01*
X205137Y228663D01*
X205547Y228582D01*
X205957Y228663D01*
X206202Y228827D01*
X206532Y228868D01*
X206861Y228827D01*
X207106Y228663D01*
X207516Y228582D01*
X207926Y228663D01*
X208171Y228827D01*
X208500Y228868D01*
X208829Y228827D01*
X209074Y228663D01*
X209484Y228582D01*
X209894Y228663D01*
X210139Y228827D01*
X210469Y228868D01*
X210798Y228827D01*
X211043Y228663D01*
X211453Y228582D01*
X211863Y228663D01*
X212108Y228827D01*
X212437Y228868D01*
X212766Y228827D01*
X213011Y228663D01*
X213421Y228582D01*
X213776Y228652D01*
X213982Y228482D01*
X214152Y228276D01*
X214082Y227921D01*
X214163Y227511D01*
X214396Y227163D01*
X214743Y226931D01*
X215154Y226850D01*
X217595D01*
X218005Y226931D01*
X218352Y227163D01*
X218585Y227511D01*
X218666Y227921D01*
X218585Y228331D01*
X218352Y228679D01*
X218005Y228911D01*
X217595Y228993D01*
X215154D01*
X214798Y228922D01*
X214593Y229093D01*
X214422Y229298D01*
X214493Y229654D01*
Y232095D01*
X214441Y232357D01*
Y232999D01*
X214940Y233499D01*
X215000Y233487D01*
X215579Y233602D01*
X216070Y233930D01*
X216398Y234421D01*
X216513Y235000D01*
X216398Y235579D01*
X216070Y236070D01*
X215579Y236398D01*
X215000Y236513D01*
D02*
G37*
G36*
X308500Y256941D02*
X304500D01*
Y252941D01*
X305481D01*
Y244423D01*
X304779Y243721D01*
X304558Y243390D01*
X304480Y243000D01*
Y242104D01*
X304430Y242070D01*
X304102Y241579D01*
X303987Y241000D01*
X304102Y240421D01*
X304430Y239930D01*
X304480Y239896D01*
Y237577D01*
X304359Y237495D01*
X304009Y236972D01*
X303886Y236354D01*
Y230646D01*
X304009Y230028D01*
X304359Y229505D01*
X304883Y229155D01*
X305500Y229032D01*
X306118Y229155D01*
X306641Y229505D01*
X306991Y230028D01*
X307114Y230646D01*
Y236354D01*
X306991Y236972D01*
X306641Y237495D01*
X306520Y237577D01*
Y239896D01*
X306570Y239930D01*
X306898Y240421D01*
X307013Y241000D01*
X306898Y241579D01*
X306570Y242070D01*
X306520Y242104D01*
Y242578D01*
X307221Y243279D01*
X307442Y243610D01*
X307520Y244000D01*
Y252941D01*
X308500D01*
Y256941D01*
D02*
G37*
G36*
X302500D02*
X298500D01*
Y252941D01*
X299480D01*
Y245104D01*
X299430Y245070D01*
X299102Y244579D01*
X298987Y244000D01*
X299102Y243421D01*
X299430Y242930D01*
X299480Y242896D01*
Y237577D01*
X299359Y237495D01*
X299009Y236972D01*
X298886Y236354D01*
Y230646D01*
X299009Y230028D01*
X299359Y229505D01*
X299883Y229155D01*
X300500Y229032D01*
X301117Y229155D01*
X301641Y229505D01*
X301991Y230028D01*
X302114Y230646D01*
Y236354D01*
X301991Y236972D01*
X301641Y237495D01*
X301520Y237577D01*
Y242896D01*
X301570Y242930D01*
X301898Y243421D01*
X302013Y244000D01*
X301898Y244579D01*
X301570Y245070D01*
X301520Y245104D01*
Y252941D01*
X302500D01*
Y256941D01*
D02*
G37*
G36*
X290500D02*
X286500D01*
Y252941D01*
X287481D01*
Y242500D01*
X287558Y242109D01*
X287779Y241779D01*
X288999Y240560D01*
X288987Y240500D01*
X289102Y239921D01*
X289430Y239430D01*
X289480Y239396D01*
Y237577D01*
X289359Y237495D01*
X289009Y236972D01*
X288886Y236354D01*
Y230646D01*
X289009Y230028D01*
X289359Y229505D01*
X289882Y229155D01*
X290500Y229032D01*
X291118Y229155D01*
X291641Y229505D01*
X291991Y230028D01*
X292114Y230646D01*
Y236354D01*
X291991Y236972D01*
X291641Y237495D01*
X291520Y237577D01*
Y239396D01*
X291570Y239430D01*
X291898Y239921D01*
X292013Y240500D01*
X291898Y241079D01*
X291570Y241570D01*
X291079Y241898D01*
X290500Y242013D01*
X290440Y242002D01*
X289520Y242922D01*
Y252941D01*
X290500D01*
Y256941D01*
D02*
G37*
G36*
X285500Y237968D02*
X284882Y237845D01*
X284359Y237495D01*
X284009Y236972D01*
X283886Y236354D01*
Y230646D01*
X284009Y230028D01*
X284359Y229505D01*
X284882Y229155D01*
X285500Y229032D01*
X286118Y229155D01*
X286641Y229505D01*
X286991Y230028D01*
X287114Y230646D01*
Y236354D01*
X286991Y236972D01*
X286641Y237495D01*
X286118Y237845D01*
X285500Y237968D01*
D02*
G37*
G36*
X280500D02*
X279883Y237845D01*
X279359Y237495D01*
X279009Y236972D01*
X278886Y236354D01*
Y230646D01*
X279009Y230028D01*
X279359Y229505D01*
X279883Y229155D01*
X280500Y229032D01*
X281118Y229155D01*
X281641Y229505D01*
X281991Y230028D01*
X282114Y230646D01*
Y236354D01*
X281991Y236972D01*
X281641Y237495D01*
X281118Y237845D01*
X280500Y237968D01*
D02*
G37*
G36*
X275500D02*
X274883Y237845D01*
X274359Y237495D01*
X274009Y236972D01*
X273886Y236354D01*
Y230646D01*
X274009Y230028D01*
X274359Y229505D01*
X274883Y229155D01*
X275500Y229032D01*
X276117Y229155D01*
X276641Y229505D01*
X276991Y230028D01*
X277114Y230646D01*
Y236354D01*
X276991Y236972D01*
X276641Y237495D01*
X276117Y237845D01*
X275500Y237968D01*
D02*
G37*
G36*
X201847Y228993D02*
X199406D01*
X198995Y228911D01*
X198648Y228679D01*
X198415Y228331D01*
X198334Y227921D01*
X198415Y227511D01*
X198143Y227019D01*
X191559D01*
Y228000D01*
X187559D01*
Y224000D01*
X191559D01*
Y224980D01*
X193714D01*
X193787Y224948D01*
X193833Y224480D01*
X193693Y224452D01*
X193421Y224398D01*
X192930Y224070D01*
X192602Y223579D01*
X192487Y223000D01*
X192602Y222421D01*
X192930Y221930D01*
X193421Y221602D01*
X194000Y221487D01*
X194060Y221498D01*
X194620Y220938D01*
X194930Y220570D01*
X194602Y220079D01*
X194487Y219500D01*
X194602Y218921D01*
X194930Y218430D01*
X195421Y218102D01*
X196000Y217987D01*
X196060Y217999D01*
X196700Y217358D01*
X197031Y217137D01*
X197421Y217059D01*
X199143D01*
X199406Y217007D01*
X201847D01*
X202257Y217089D01*
X202604Y217321D01*
X202837Y217669D01*
X202918Y218079D01*
X202837Y218489D01*
X202673Y218734D01*
X202632Y219063D01*
X202673Y219392D01*
X202837Y219637D01*
X202918Y220047D01*
X202837Y220457D01*
X202673Y220702D01*
X202632Y221031D01*
X202673Y221361D01*
X202837Y221606D01*
X202918Y222016D01*
X202837Y222426D01*
X202673Y222671D01*
X202632Y223000D01*
X202673Y223329D01*
X202837Y223574D01*
X202918Y223984D01*
X202837Y224394D01*
X202673Y224639D01*
X202632Y224969D01*
X202673Y225298D01*
X202837Y225543D01*
X202918Y225953D01*
X202837Y226363D01*
X202673Y226608D01*
X202632Y226937D01*
X202673Y227266D01*
X202837Y227511D01*
X202918Y227921D01*
X202837Y228331D01*
X202604Y228679D01*
X202257Y228911D01*
X201847Y228993D01*
D02*
G37*
G36*
X228941Y228000D02*
X224941D01*
Y227020D01*
X222500D01*
X222110Y226942D01*
X221779Y226721D01*
X220062Y225004D01*
X217857D01*
X217595Y225056D01*
X215154D01*
X214743Y224974D01*
X214396Y224742D01*
X214163Y224394D01*
X214082Y223984D01*
X214163Y223574D01*
X214396Y223226D01*
X214743Y222994D01*
X215154Y222913D01*
X217595D01*
X217857Y222965D01*
X220484D01*
X220874Y223042D01*
X221205Y223263D01*
X222923Y224981D01*
X224941D01*
Y224000D01*
X228941D01*
Y228000D01*
D02*
G37*
G36*
X296500Y256941D02*
X292500D01*
Y252941D01*
X293481D01*
Y244000D01*
X293558Y243609D01*
X293779Y243279D01*
X294480Y242578D01*
Y237577D01*
X294359Y237495D01*
X294009Y236972D01*
X293886Y236354D01*
Y230646D01*
X294009Y230028D01*
X294359Y229505D01*
X294480Y229423D01*
Y227604D01*
X294430Y227570D01*
X294102Y227079D01*
X293987Y226500D01*
X294102Y225921D01*
X294430Y225430D01*
X294921Y225102D01*
X295500Y224987D01*
X296079Y225102D01*
X296570Y225430D01*
X296898Y225921D01*
X297013Y226500D01*
X296898Y227079D01*
X296570Y227570D01*
X296520Y227604D01*
Y229423D01*
X296641Y229505D01*
X296991Y230028D01*
X297114Y230646D01*
Y236354D01*
X296991Y236972D01*
X296641Y237495D01*
X296520Y237577D01*
Y243000D01*
X296442Y243390D01*
X296221Y243721D01*
X295520Y244422D01*
Y252941D01*
X296500D01*
Y256941D01*
D02*
G37*
G36*
X228941Y222000D02*
X224941D01*
Y221067D01*
X217857D01*
X217595Y221119D01*
X215154D01*
X214743Y221037D01*
X214396Y220805D01*
X214163Y220457D01*
X214082Y220047D01*
X214163Y219637D01*
X214327Y219392D01*
X214368Y219063D01*
X214327Y218734D01*
X214163Y218489D01*
X214082Y218079D01*
X214152Y217723D01*
X213982Y217518D01*
X213776Y217348D01*
X213421Y217418D01*
X213011Y217337D01*
X212766Y217173D01*
X212437Y217132D01*
X212108Y217173D01*
X211863Y217337D01*
X211453Y217418D01*
X211043Y217337D01*
X210798Y217173D01*
X210469Y217132D01*
X210139Y217173D01*
X209894Y217337D01*
X209484Y217418D01*
X209074Y217337D01*
X208829Y217173D01*
X208500Y217132D01*
X208171Y217173D01*
X207926Y217337D01*
X207516Y217418D01*
X207106Y217337D01*
X206861Y217173D01*
X206532Y217132D01*
X206202Y217173D01*
X205957Y217337D01*
X205547Y217418D01*
X205137Y217337D01*
X204789Y217104D01*
X204557Y216757D01*
X204475Y216347D01*
Y213906D01*
X204557Y213495D01*
X204789Y213148D01*
X205137Y212915D01*
X205547Y212834D01*
X205957Y212915D01*
X206202Y213079D01*
X206532Y213120D01*
X206861Y213079D01*
X207106Y212915D01*
X207516Y212834D01*
X207926Y212915D01*
X208171Y213079D01*
X208500Y213120D01*
X208829Y213079D01*
X209074Y212915D01*
X209484Y212834D01*
X209894Y212915D01*
X210139Y213079D01*
X210469Y213120D01*
X210798Y213079D01*
X211043Y212915D01*
X211453Y212834D01*
X211863Y212915D01*
X212108Y213079D01*
X212437Y213120D01*
X212766Y213079D01*
X213011Y212915D01*
X213421Y212834D01*
X213831Y212915D01*
X214179Y213148D01*
X214411Y213495D01*
X214493Y213906D01*
Y216347D01*
X214422Y216702D01*
X214593Y216907D01*
X214798Y217078D01*
X215154Y217007D01*
X217595D01*
X218005Y217089D01*
X218352Y217321D01*
X218585Y217669D01*
X218666Y218079D01*
X218585Y218489D01*
X218559Y218528D01*
X218826Y219028D01*
X224941D01*
Y218000D01*
X225921D01*
Y216000D01*
X224941D01*
Y212000D01*
X225921D01*
Y210557D01*
X225602Y210079D01*
X225487Y209500D01*
X225602Y208921D01*
X225930Y208430D01*
X226421Y208102D01*
X227000Y207987D01*
X227579Y208102D01*
X228070Y208430D01*
X228398Y208921D01*
X228513Y209500D01*
X228398Y210079D01*
X228070Y210570D01*
X227960Y210644D01*
Y212000D01*
X228941D01*
Y216000D01*
X227960D01*
Y218000D01*
X228941D01*
Y222000D01*
D02*
G37*
G36*
X212437Y227478D02*
X204563D01*
X204180Y227320D01*
X204022Y226937D01*
Y220047D01*
X204022Y220047D01*
X204180Y219665D01*
X205165Y218680D01*
X205547Y218522D01*
X205547Y218522D01*
X212437D01*
X212820Y218680D01*
X212978Y219063D01*
Y226937D01*
X212820Y227320D01*
X212437Y227478D01*
D02*
G37*
G36*
X305500Y216868D02*
X304883Y216745D01*
X304359Y216395D01*
X304009Y215872D01*
X303886Y215254D01*
Y209546D01*
X303971Y209122D01*
Y208608D01*
X303360Y208140D01*
X302880Y207513D01*
X302577Y206783D01*
X302529Y206420D01*
X302029Y206453D01*
Y209122D01*
X302114Y209546D01*
Y215254D01*
X301991Y215872D01*
X301641Y216395D01*
X301117Y216745D01*
X300500Y216868D01*
X299883Y216745D01*
X299359Y216395D01*
X299009Y215872D01*
X298886Y215254D01*
Y209546D01*
X298971Y209122D01*
Y203608D01*
X298360Y203140D01*
X297880Y202513D01*
X297577Y201783D01*
X297529Y201420D01*
X297029Y201453D01*
Y209122D01*
X297114Y209546D01*
Y215254D01*
X296991Y215872D01*
X296641Y216395D01*
X296117Y216745D01*
X295500Y216868D01*
X294882Y216745D01*
X294359Y216395D01*
X294009Y215872D01*
X293886Y215254D01*
Y209546D01*
X293971Y209122D01*
Y199108D01*
X293360Y198640D01*
X292880Y198013D01*
X292577Y197283D01*
X292529Y196920D01*
X292029Y196953D01*
Y209122D01*
X292114Y209546D01*
Y215254D01*
X291991Y215872D01*
X291641Y216395D01*
X291118Y216745D01*
X290500Y216868D01*
X289882Y216745D01*
X289359Y216395D01*
X289009Y215872D01*
X288886Y215254D01*
Y209546D01*
X288971Y209122D01*
Y193000D01*
X289087Y192415D01*
X289419Y191919D01*
X297252Y184085D01*
X297141Y183940D01*
X296753Y183004D01*
X296621Y182000D01*
X296753Y180996D01*
X297141Y180060D01*
X297757Y179257D01*
X298561Y178640D01*
X299496Y178253D01*
X300500Y178120D01*
X301504Y178253D01*
X302440Y178640D01*
X303244Y179257D01*
X303860Y180060D01*
X304248Y180996D01*
X304380Y182000D01*
X304248Y183004D01*
X303860Y183940D01*
X303244Y184743D01*
X302440Y185360D01*
X301504Y185747D01*
X300500Y185880D01*
X299867Y185796D01*
X292029Y193633D01*
Y196047D01*
X292529Y196080D01*
X292577Y195717D01*
X292880Y194987D01*
X293360Y194360D01*
X293987Y193879D01*
X294717Y193577D01*
X295500Y193474D01*
X296283Y193577D01*
X297013Y193879D01*
X297640Y194360D01*
X298120Y194987D01*
X298423Y195717D01*
X298526Y196500D01*
X298423Y197283D01*
X298120Y198013D01*
X297640Y198640D01*
X297029Y199108D01*
Y200547D01*
X297529Y200580D01*
X297577Y200217D01*
X297880Y199487D01*
X298360Y198860D01*
X298987Y198380D01*
X299717Y198077D01*
X300500Y197974D01*
X301283Y198077D01*
X302013Y198380D01*
X302640Y198860D01*
X303120Y199487D01*
X303423Y200217D01*
X303526Y201000D01*
X303423Y201783D01*
X303120Y202513D01*
X302640Y203140D01*
X302029Y203608D01*
Y205547D01*
X302529Y205580D01*
X302577Y205217D01*
X302880Y204487D01*
X303360Y203860D01*
X303987Y203380D01*
X304717Y203077D01*
X305500Y202974D01*
X306283Y203077D01*
X307013Y203380D01*
X307640Y203860D01*
X308120Y204487D01*
X308423Y205217D01*
X308526Y206000D01*
X308423Y206783D01*
X308120Y207513D01*
X307640Y208140D01*
X307029Y208608D01*
Y209122D01*
X307114Y209546D01*
Y215254D01*
X306991Y215872D01*
X306641Y216395D01*
X306118Y216745D01*
X305500Y216868D01*
D02*
G37*
G36*
X265000Y222441D02*
X261000D01*
Y218441D01*
X265000D01*
Y218911D01*
X267426D01*
X268971Y217367D01*
Y215678D01*
X268886Y215254D01*
Y209546D01*
X268971Y209122D01*
Y208608D01*
X268360Y208140D01*
X267880Y207513D01*
X267577Y206783D01*
X267474Y206000D01*
X267577Y205217D01*
X267880Y204487D01*
X268360Y203860D01*
X268987Y203380D01*
X269717Y203077D01*
X270500Y202974D01*
X271283Y203077D01*
X272013Y203380D01*
X272640Y203860D01*
X273120Y204487D01*
X273423Y205217D01*
X273526Y206000D01*
X273423Y206783D01*
X273120Y207513D01*
X272640Y208140D01*
X272029Y208608D01*
Y209122D01*
X272114Y209546D01*
Y215254D01*
X272029Y215678D01*
Y218000D01*
X271913Y218585D01*
X271581Y219081D01*
X269141Y221522D01*
X268645Y221854D01*
X268059Y221970D01*
X265000D01*
Y222441D01*
D02*
G37*
G36*
X342500Y222526D02*
X341717Y222423D01*
X340987Y222120D01*
X340360Y221640D01*
X339879Y221013D01*
X339577Y220283D01*
X339474Y219500D01*
X339577Y218717D01*
X339879Y217987D01*
X340360Y217360D01*
X340445Y217295D01*
X340276Y216795D01*
X339941D01*
Y207919D01*
X332052Y200029D01*
X316500D01*
X315915Y199913D01*
X315419Y199581D01*
X309419Y193582D01*
X309087Y193086D01*
X308971Y192500D01*
Y185530D01*
X308560Y185360D01*
X307757Y184743D01*
X307140Y183940D01*
X306753Y183004D01*
X306621Y182000D01*
X306753Y180996D01*
X307140Y180060D01*
X307757Y179257D01*
X308560Y178640D01*
X309496Y178253D01*
X310500Y178120D01*
X311504Y178253D01*
X312440Y178640D01*
X313244Y179257D01*
X313860Y180060D01*
X314248Y180996D01*
X314380Y182000D01*
X314248Y183004D01*
X313860Y183940D01*
X313244Y184743D01*
X312440Y185360D01*
X312030Y185530D01*
Y191867D01*
X317133Y196971D01*
X332685D01*
X333270Y197087D01*
X333767Y197419D01*
X339479Y203131D01*
X339941Y202940D01*
Y200835D01*
X346059D01*
Y216795D01*
X344724D01*
X344555Y217295D01*
X344640Y217360D01*
X345121Y217987D01*
X345423Y218717D01*
X345526Y219500D01*
X345423Y220283D01*
X345121Y221013D01*
X344640Y221640D01*
X344013Y222120D01*
X343283Y222423D01*
X342500Y222526D01*
D02*
G37*
G36*
X344500Y198770D02*
X343921Y198654D01*
X343430Y198326D01*
X343102Y197835D01*
X342987Y197256D01*
X343102Y196677D01*
X343430Y196186D01*
X343480Y196152D01*
Y194000D01*
X342500D01*
Y190000D01*
X346500D01*
Y194000D01*
X345520D01*
Y196152D01*
X345570Y196186D01*
X345898Y196677D01*
X346013Y197256D01*
X345898Y197835D01*
X345570Y198326D01*
X345079Y198654D01*
X344500Y198770D01*
D02*
G37*
G36*
X341382Y194000D02*
X337382D01*
Y190000D01*
X338362D01*
Y185846D01*
X335595D01*
Y178154D01*
X343288D01*
Y185846D01*
X340402D01*
Y190000D01*
X341382D01*
Y194000D01*
D02*
G37*
G36*
X274347Y185846D02*
X266654D01*
Y178154D01*
X274347D01*
Y185846D01*
D02*
G37*
G36*
X290500Y185880D02*
X289496Y185747D01*
X288561Y185360D01*
X287757Y184743D01*
X287140Y183940D01*
X286753Y183004D01*
X286621Y182000D01*
X286753Y180996D01*
X287140Y180060D01*
X287757Y179257D01*
X288561Y178640D01*
X289496Y178253D01*
X290500Y178120D01*
X291504Y178253D01*
X292440Y178640D01*
X293244Y179257D01*
X293860Y180060D01*
X294248Y180996D01*
X294380Y182000D01*
X294248Y183004D01*
X293860Y183940D01*
X293244Y184743D01*
X292440Y185360D01*
X291504Y185747D01*
X290500Y185880D01*
D02*
G37*
G36*
X280500D02*
X279496Y185747D01*
X278560Y185360D01*
X277757Y184743D01*
X277140Y183940D01*
X276753Y183004D01*
X276621Y182000D01*
X276753Y180996D01*
X277140Y180060D01*
X277757Y179257D01*
X278560Y178640D01*
X279496Y178253D01*
X280500Y178120D01*
X281504Y178253D01*
X282440Y178640D01*
X283244Y179257D01*
X283860Y180060D01*
X284248Y180996D01*
X284380Y182000D01*
X284248Y183004D01*
X283860Y183940D01*
X283244Y184743D01*
X282440Y185360D01*
X281504Y185747D01*
X280500Y185880D01*
D02*
G37*
G36*
X211500Y209513D02*
X210921Y209398D01*
X210430Y209070D01*
X210102Y208579D01*
X209987Y208000D01*
X210102Y207421D01*
X210430Y206930D01*
X210480Y206896D01*
Y176000D01*
X210558Y175610D01*
X210779Y175279D01*
X216279Y169779D01*
X216610Y169558D01*
X217000Y169480D01*
X346500D01*
X346890Y169558D01*
X347221Y169779D01*
X350721Y173279D01*
X350942Y173610D01*
X351020Y174000D01*
Y178490D01*
X351381Y178640D01*
X352185Y179257D01*
X352801Y180060D01*
X353189Y180996D01*
X353321Y182000D01*
X353189Y183004D01*
X352801Y183940D01*
X352185Y184743D01*
X351381Y185360D01*
X350445Y185747D01*
X349441Y185880D01*
X348437Y185747D01*
X347501Y185360D01*
X346698Y184743D01*
X346081Y183940D01*
X345694Y183004D01*
X345562Y182000D01*
X345694Y180996D01*
X346081Y180060D01*
X346698Y179257D01*
X347501Y178640D01*
X348437Y178253D01*
X348980Y178181D01*
Y174422D01*
X346078Y171520D01*
X217422D01*
X212520Y176422D01*
Y206896D01*
X212570Y206930D01*
X212898Y207421D01*
X213013Y208000D01*
X212898Y208579D01*
X212570Y209070D01*
X212079Y209398D01*
X211500Y209513D01*
D02*
G37*
G36*
X374500Y174874D02*
X372877Y174747D01*
X371294Y174367D01*
X369790Y173744D01*
X368402Y172893D01*
X367164Y171836D01*
X366107Y170598D01*
X365256Y169210D01*
X364633Y167706D01*
X364253Y166123D01*
X364125Y164500D01*
X364253Y162877D01*
X364633Y161294D01*
X365256Y159790D01*
X366107Y158402D01*
X367164Y157164D01*
X368402Y156107D01*
X369790Y155256D01*
X371294Y154633D01*
X372877Y154253D01*
X374500Y154125D01*
X376123Y154253D01*
X377706Y154633D01*
X379210Y155256D01*
X380598Y156107D01*
X381836Y157164D01*
X382893Y158402D01*
X383744Y159790D01*
X384367Y161294D01*
X384747Y162877D01*
X384875Y164500D01*
X384747Y166123D01*
X384367Y167706D01*
X383744Y169210D01*
X382893Y170598D01*
X381836Y171836D01*
X380598Y172893D01*
X379210Y173744D01*
X377706Y174367D01*
X376123Y174747D01*
X374500Y174874D01*
D02*
G37*
G36*
X124500D02*
X122877Y174747D01*
X121294Y174367D01*
X119790Y173744D01*
X118402Y172893D01*
X117164Y171836D01*
X116107Y170598D01*
X115256Y169210D01*
X114633Y167706D01*
X114253Y166123D01*
X114126Y164500D01*
X114253Y162877D01*
X114633Y161294D01*
X115256Y159790D01*
X116107Y158402D01*
X117164Y157164D01*
X118402Y156107D01*
X119790Y155256D01*
X121294Y154633D01*
X122877Y154253D01*
X124500Y154125D01*
X126123Y154253D01*
X127706Y154633D01*
X129210Y155256D01*
X130598Y156107D01*
X131836Y157164D01*
X132893Y158402D01*
X133744Y159790D01*
X134367Y161294D01*
X134747Y162877D01*
X134874Y164500D01*
X134747Y166123D01*
X134367Y167706D01*
X133744Y169210D01*
X132893Y170598D01*
X131836Y171836D01*
X130598Y172893D01*
X129210Y173744D01*
X127706Y174367D01*
X126123Y174747D01*
X124500Y174874D01*
D02*
G37*
%LPD*%
G36*
X344986Y369492D02*
X347167D01*
Y369496D01*
X348655D01*
X348825Y368996D01*
X348360Y368640D01*
X347880Y368013D01*
X347577Y367283D01*
X347474Y366500D01*
X347577Y365717D01*
X347880Y364987D01*
X348360Y364360D01*
X348804Y364020D01*
X348635Y363520D01*
X345422D01*
X343159Y365783D01*
Y369492D01*
X343230D01*
Y369499D01*
X344986D01*
Y369492D01*
D02*
G37*
G36*
X337112D02*
X339152D01*
Y364329D01*
X339229Y363938D01*
X339451Y363608D01*
X343279Y359779D01*
X343610Y359558D01*
X344000Y359480D01*
X355078D01*
X356480Y358078D01*
Y334422D01*
X353538Y331480D01*
X346629D01*
X346422Y331980D01*
X348536Y334094D01*
X348757Y334425D01*
X348834Y334815D01*
Y336476D01*
X349815D01*
Y340476D01*
X348834D01*
Y342476D01*
X349815D01*
Y345034D01*
X350834Y346053D01*
X351079Y346102D01*
X351570Y346430D01*
X351898Y346921D01*
X352013Y347500D01*
X351898Y348079D01*
X351570Y348570D01*
X351079Y348898D01*
X350500Y349013D01*
X350374Y348988D01*
X349874Y349399D01*
Y352477D01*
X345874D01*
Y351496D01*
X344977D01*
X344586Y351419D01*
X344256Y351198D01*
X343279Y350221D01*
X343058Y349890D01*
X342980Y349500D01*
Y335488D01*
X338445D01*
Y337883D01*
X338452Y337921D01*
Y343418D01*
X339433D01*
Y347417D01*
X335433D01*
Y346437D01*
X334005D01*
X332520Y347922D01*
Y363675D01*
X333013Y363879D01*
X333640Y364360D01*
X334120Y364987D01*
X334423Y365717D01*
X334526Y366500D01*
X334423Y367283D01*
X334120Y368013D01*
X333640Y368640D01*
X333180Y368992D01*
X333350Y369492D01*
X333388D01*
Y369492D01*
X335356D01*
Y369496D01*
X337112D01*
Y369492D01*
D02*
G37*
G36*
X203000Y317000D02*
X205500Y314500D01*
X206000Y312500D01*
X196000D01*
Y313500D01*
X197000Y315500D01*
X198000Y316500D01*
X200000Y317500D01*
X203000Y317000D01*
D02*
G37*
G36*
X205500Y308500D02*
X203000Y306000D01*
X200000Y305500D01*
X198000Y306500D01*
X197000Y307500D01*
X196000Y309500D01*
Y310500D01*
X206000D01*
X205500Y308500D01*
D02*
G37*
G36*
X212437Y219063D02*
X205547D01*
X204563Y220047D01*
Y226937D01*
X212437D01*
Y219063D01*
D02*
G37*
D10*
X201976Y305596D02*
G03*
X205583Y308500I-976J4904D01*
G01*
X196000Y310500D02*
G03*
X201976Y305596I5000J0D01*
G01*
X205583Y308500D02*
G03*
X206000Y310500I-4583J2000D01*
G01*
X205000Y315500D02*
G03*
X196000Y312500I-4000J-3000D01*
G01*
X206000D02*
G03*
X205000Y315500I-5000J0D01*
G01*
X210000D02*
G03*
X210653Y316154I0J654D01*
G01*
X338861Y380860D02*
X341140D01*
X337500Y379500D02*
X338861Y380860D01*
X337500Y375256D02*
Y379500D01*
Y375256D02*
X337825Y374930D01*
Y372633D02*
Y374930D01*
Y372633D02*
X338203Y372256D01*
X340000Y372433D02*
Y378500D01*
X342140Y372256D02*
Y379860D01*
X341140Y380860D02*
X342140Y379860D01*
X314024Y287976D02*
X324233D01*
X298000Y304000D02*
X314024Y287976D01*
X263500Y304000D02*
X298000D01*
X210662Y300662D02*
X212500Y302500D01*
X210617Y300662D02*
X210662D01*
X209850Y298353D02*
Y299895D01*
X206000Y302000D02*
X206171D01*
X208275Y298353D02*
Y299895D01*
X206171Y302000D02*
X208275Y299895D01*
X209850D02*
X210617Y300662D01*
X213421Y233421D02*
X215000Y235000D01*
X213421Y230874D02*
Y233421D01*
X226500Y318500D02*
X229500Y321500D01*
X216000Y318500D02*
X226500D01*
X214000Y316500D02*
X216000Y318500D01*
X229500Y321500D02*
Y325000D01*
X226941Y327559D02*
X229500Y325000D01*
X225000Y327559D02*
X226941D01*
X214000Y307000D02*
Y316500D01*
X349441Y182000D02*
X350000Y181441D01*
Y174000D02*
Y181441D01*
X346500Y170500D02*
X350000Y174000D01*
X217000Y170500D02*
X346500D01*
X211500Y176000D02*
X217000Y170500D01*
X211500Y176000D02*
Y208000D01*
Y238500D02*
Y241500D01*
X300500Y244000D02*
Y254940D01*
Y233500D02*
Y244000D01*
X305500Y233500D02*
Y241000D01*
Y243000D01*
X306500Y244000D01*
X295500Y226500D02*
Y233500D01*
X193276Y276276D02*
X195647D01*
X192500Y275500D02*
X193276Y276276D01*
X192500Y274500D02*
Y275500D01*
X192000Y280500D02*
X193074Y279426D01*
X195647D01*
X140500Y335500D02*
X140500Y335500D01*
X140500Y335500D02*
Y355941D01*
X155500Y335500D02*
Y355941D01*
X155500Y355941D02*
X155500Y355941D01*
X148000Y335500D02*
Y355941D01*
X148000Y355941D02*
X148000Y355941D01*
X263500Y304000D02*
Y321940D01*
X264000Y322441D01*
X184500Y338000D02*
X202000D01*
X202000Y338000D01*
X353500Y324000D02*
X358000Y319500D01*
Y288000D02*
Y319500D01*
X354000Y284000D02*
X358000Y288000D01*
X344209Y284000D02*
X354000D01*
X340233Y287976D02*
X344209Y284000D01*
X178059Y344441D02*
X184500Y338000D01*
X178059Y344441D02*
Y350000D01*
X251441Y335000D02*
X264000Y322441D01*
X210000Y335000D02*
X251441D01*
X198941Y346059D02*
X210000Y335000D01*
X198941Y346059D02*
Y350000D01*
X275941Y327559D02*
X276000Y327500D01*
X270500Y327559D02*
X275941D01*
X264000D02*
X270500D01*
X198941Y350000D02*
X199000Y350059D01*
Y359500D01*
X178000Y350058D02*
X178059Y350000D01*
X178000Y350058D02*
Y359500D01*
X333582Y345417D02*
X337433D01*
X331500Y347500D02*
X333582Y345417D01*
X331500Y347500D02*
Y366500D01*
X155500Y361059D02*
X156026Y361585D01*
Y383500D01*
X148000Y383500D02*
X148000Y383500D01*
X148000Y361059D02*
Y383500D01*
X140026Y361533D02*
X140500Y361059D01*
X140026Y361533D02*
Y383500D01*
Y390499D02*
X156026D01*
X161999D02*
X162000Y390500D01*
X156026Y390499D02*
X161999D01*
X231941Y379000D02*
X231999Y379059D01*
Y386474D01*
X236142Y274702D02*
X236441Y275000D01*
X183000Y257500D02*
Y276500D01*
X239000Y386474D02*
X242000Y383474D01*
Y378000D02*
Y383474D01*
Y378000D02*
X244500Y375500D01*
X246000D01*
X246193Y375693D01*
X340799Y334398D02*
X343397D01*
X344000Y335000D01*
Y349500D01*
X344977Y350477D01*
X347874D01*
X350500Y347161D02*
Y347500D01*
X355500Y360500D02*
X357500Y358500D01*
Y334000D02*
Y358500D01*
X359500Y332500D02*
Y359500D01*
X347815Y344476D02*
X350500Y347161D01*
X340799Y332429D02*
X345429D01*
X347815Y334815D01*
Y338476D01*
Y344476D01*
X335386Y343371D02*
X337433Y345417D01*
X335386Y337842D02*
Y343371D01*
X337354Y337842D02*
X337433Y337921D01*
Y345417D01*
X351000Y372077D02*
X351195Y372272D01*
X351000Y368000D02*
Y372077D01*
X350013Y368987D02*
Y372272D01*
X331116Y367790D02*
Y372256D01*
X340000Y372433D02*
X340172Y372262D01*
X344109D02*
Y378608D01*
X353960Y330461D02*
X357500Y334000D01*
X340799Y330461D02*
X353960D01*
X355492Y328492D02*
X359500Y332500D01*
X340799Y328492D02*
X355492D01*
X345000Y362500D02*
X356500D01*
X342140Y365360D02*
X345000Y362500D01*
X342140Y365360D02*
Y372256D01*
X344000Y360500D02*
X355500D01*
X340172Y364329D02*
X344000Y360500D01*
X340172Y364329D02*
Y372262D01*
X356500Y362500D02*
X359500Y359500D01*
X331449Y321110D02*
X331500Y321059D01*
Y316000D02*
Y321059D01*
X329480Y312520D02*
Y321110D01*
Y312520D02*
X329500Y312500D01*
X327512Y308055D02*
Y321110D01*
X326933Y307476D02*
X327512Y308055D01*
X343933Y295976D02*
X344000Y296043D01*
Y301000D01*
X316839Y302500D02*
X321815Y307476D01*
X327933Y295976D02*
X331909Y292000D01*
X347500D01*
X349000Y293500D01*
Y305000D01*
X346524Y307476D02*
X349000Y305000D01*
X342933Y307476D02*
X346524D01*
X336433Y295976D02*
X337815Y297358D01*
Y307476D01*
X320433Y295976D02*
X326933Y302476D01*
Y307476D01*
X335386Y309905D02*
X337815Y307476D01*
X335386Y309905D02*
Y321110D01*
X220149Y277851D02*
X222478D01*
X219000Y279000D02*
X220149Y277851D01*
X219000Y279000D02*
Y282000D01*
X273000Y291500D02*
X290169D01*
X272500Y286500D02*
X290169D01*
X265000Y294000D02*
X272500Y286500D01*
X235000Y294000D02*
X265000D01*
X222478Y279426D02*
X227074D01*
X228000Y278500D01*
X252500Y281500D02*
X255000Y284000D01*
X268000D01*
X270500Y281500D01*
X290169D01*
X266500Y272118D02*
X271118D01*
X260500D02*
X266500D01*
X260500D02*
Y281500D01*
X230776Y276276D02*
X232000Y277500D01*
X222478Y276276D02*
X230776D01*
X254000Y286500D02*
X260500D01*
X233500Y288500D02*
X236500Y291500D01*
X233500Y284500D02*
Y288500D01*
X230001Y281001D02*
X233500Y284500D01*
X231500Y290500D02*
X235000Y294000D01*
X231500Y285500D02*
Y290500D01*
X228576Y282576D02*
X231500Y285500D01*
X229500Y292000D02*
X234000Y296500D01*
X229500Y286500D02*
Y292000D01*
X227150Y284150D02*
X229500Y286500D01*
X222478Y281001D02*
X230001D01*
X222478Y282576D02*
X228576D01*
X222478Y284150D02*
X227150D01*
X236500Y291500D02*
X260500D01*
X234000Y296500D02*
X260500D01*
X196500Y264000D02*
X200401Y267901D01*
Y271522D01*
X196500Y268000D02*
X198827Y270327D01*
Y271522D01*
X195647Y274702D02*
X198798D01*
X205126Y247874D02*
X211500Y241500D01*
X306500Y260059D02*
X311941D01*
X300500D02*
X306500D01*
X294500D02*
X300500D01*
X288500D02*
X294500D01*
X290500Y233500D02*
Y240500D01*
X288500Y242500D02*
X290500Y240500D01*
X288500Y242500D02*
Y254941D01*
X306500Y244000D02*
Y254941D01*
X294500Y244000D02*
Y254941D01*
Y244000D02*
X295500Y243000D01*
X300500Y254940D02*
X300500Y254941D01*
X295500Y233500D02*
Y243000D01*
X205126Y247874D02*
Y271522D01*
X192500Y289000D02*
X192625Y288875D01*
X195647D01*
Y290450D02*
X198950D01*
X195647Y277851D02*
X198851D01*
X195648Y281000D02*
X199000D01*
X195647Y281001D02*
X195648Y281000D01*
X204000Y244500D02*
Y246500D01*
X203551Y246949D02*
X204000Y246500D01*
X203551Y246949D02*
Y271522D01*
X194000Y223000D02*
X195500Y221500D01*
X197000D02*
X198453Y220047D01*
X195500Y221500D02*
X197000D01*
X198453Y220047D02*
X200626D01*
X189559Y226000D02*
X200579D01*
X197421Y218079D02*
X200626D01*
X196000Y219500D02*
X197421Y218079D01*
X201976Y237524D02*
X202000Y237500D01*
X201976Y237524D02*
Y271522D01*
X344500Y192000D02*
Y197256D01*
X339382Y182059D02*
X339441Y182000D01*
X339382Y182059D02*
Y192000D01*
X222500Y226000D02*
X226941D01*
X220484Y223984D02*
X222500Y226000D01*
X216374Y223984D02*
X220484D01*
X226941Y214000D02*
Y220000D01*
Y209559D02*
Y214000D01*
Y209559D02*
X227000Y209500D01*
X226893Y220047D02*
X226941Y220000D01*
X216374Y220047D02*
X226893D01*
X200579Y226000D02*
X200626Y225953D01*
X188500Y288500D02*
Y290500D01*
Y282118D02*
Y288500D01*
X192024Y292024D02*
X195647D01*
X188500Y288500D02*
X192024Y292024D01*
X191599Y293599D02*
X195647D01*
X188500Y290500D02*
X191599Y293599D01*
X183000Y253000D02*
Y257500D01*
X182500Y277000D02*
X183000Y276500D01*
X188382Y282000D02*
X188500Y282118D01*
X182500Y282000D02*
X188382D01*
X180559Y309441D02*
X185000D01*
X180500Y309500D02*
X180559Y309441D01*
X197000Y303000D02*
X199000D01*
X192500D02*
X197000D01*
X198827Y301173D01*
Y298353D02*
Y301173D01*
X185000Y309441D02*
X191000D01*
Y304500D02*
Y309441D01*
Y304500D02*
X192500Y303000D01*
X199000D02*
X200401Y301599D01*
Y298353D02*
Y301599D01*
X225000Y309441D02*
X229941D01*
X217559Y261500D02*
X222000D01*
X217500Y261559D02*
X217559Y261500D01*
X236441Y275000D02*
Y280500D01*
Y284941D01*
X211500Y261559D02*
X217500D01*
X207941D02*
X211500D01*
X206701Y262799D02*
X207941Y261559D01*
X206701Y262799D02*
Y271522D01*
X222478Y274702D02*
X236142D01*
X214575Y298353D02*
Y305015D01*
X219000Y309441D01*
X225000D01*
X210653Y322441D02*
X210653Y322441D01*
X202500Y322441D02*
X210653D01*
X217347Y327559D02*
X217347Y327559D01*
X225000D01*
X212000Y305000D02*
X214000Y307000D01*
X206000Y305000D02*
X212000D01*
X203551Y302551D02*
X206000Y305000D01*
X203551Y298353D02*
Y302551D01*
X201976Y305596D02*
Y307024D01*
Y298353D02*
Y305596D01*
X201000Y308000D02*
X201976Y307024D01*
X205583Y308500D02*
X210000D01*
X205000Y315500D02*
X210000D01*
X201500D02*
X205000D01*
X201000Y315000D02*
X201500Y315500D01*
X210653Y316154D02*
Y322441D01*
X196000Y312500D02*
X206000D01*
X196000Y310500D02*
X206000D01*
D22*
X354345Y372262D02*
D03*
X351195Y372272D02*
D03*
X344109Y372262D02*
D03*
X340172D02*
D03*
X331116Y372255D02*
D03*
X327966Y372256D02*
D03*
D23*
X353164Y372262D02*
D03*
X350013Y372272D02*
D03*
X346076Y372256D02*
D03*
X342139D02*
D03*
X338202D02*
D03*
X334265D02*
D03*
X332298Y372256D02*
D03*
X329147Y372256D02*
D03*
D24*
X348045D02*
D03*
D25*
X336235D02*
D03*
D26*
X208500Y223000D02*
D03*
D27*
X213421Y215126D02*
D03*
X211453D02*
D03*
X209484D02*
D03*
X207516D02*
D03*
X205547D02*
D03*
X203579Y230874D02*
D03*
X205547D02*
D03*
X207516D02*
D03*
X209484D02*
D03*
X211453D02*
D03*
X213421D02*
D03*
D28*
X203579Y215126D02*
D03*
D29*
X216374Y227921D02*
D03*
Y225953D02*
D03*
Y223984D02*
D03*
Y222016D02*
D03*
Y220047D02*
D03*
Y218079D02*
D03*
X200626D02*
D03*
Y220047D02*
D03*
Y222016D02*
D03*
Y223984D02*
D03*
Y225953D02*
D03*
Y227921D02*
D03*
D30*
X343000Y208815D02*
D03*
D31*
Y248185D02*
D03*
D32*
X263000Y225559D02*
D03*
Y220441D02*
D03*
X306500Y254941D02*
D03*
Y260059D02*
D03*
X300500Y254941D02*
D03*
Y260059D02*
D03*
X294500Y254941D02*
D03*
Y260059D02*
D03*
X288500Y254941D02*
D03*
Y260059D02*
D03*
X337433Y345417D02*
D03*
Y350536D02*
D03*
X266500Y267000D02*
D03*
Y272118D02*
D03*
X260500Y267000D02*
D03*
Y272118D02*
D03*
X155500Y361059D02*
D03*
Y355941D02*
D03*
X148000Y361059D02*
D03*
Y355941D02*
D03*
X140500Y361059D02*
D03*
Y355941D02*
D03*
X225000Y327559D02*
D03*
Y322441D02*
D03*
X202500Y322441D02*
D03*
Y327559D02*
D03*
X217500Y256441D02*
D03*
Y261559D02*
D03*
X211500Y256441D02*
D03*
Y261559D02*
D03*
X264000Y322441D02*
D03*
Y327559D02*
D03*
X270500D02*
D03*
Y322441D02*
D03*
X225000Y314559D02*
D03*
Y309441D02*
D03*
X219000Y314559D02*
D03*
Y309441D02*
D03*
X191000Y314559D02*
D03*
Y309441D02*
D03*
X185000Y314559D02*
D03*
Y309441D02*
D03*
X188500Y277000D02*
D03*
Y282118D02*
D03*
D33*
X226941Y226000D02*
D03*
X232059D02*
D03*
X189559Y226000D02*
D03*
X184441D02*
D03*
X232059Y214000D02*
D03*
X226941D02*
D03*
X232059Y220000D02*
D03*
X226941D02*
D03*
X339382Y192000D02*
D03*
X344500D02*
D03*
X347874Y350477D02*
D03*
X352993D02*
D03*
X347815Y344476D02*
D03*
X352933D02*
D03*
X347815Y338476D02*
D03*
X352933D02*
D03*
X326933Y307476D02*
D03*
X321815D02*
D03*
X337815D02*
D03*
X342933D02*
D03*
X198941Y350000D02*
D03*
X204059D02*
D03*
X178059Y350000D02*
D03*
X172941D02*
D03*
X231941Y379000D02*
D03*
X237059D02*
D03*
X241559Y274500D02*
D03*
X236441D02*
D03*
X241559Y280500D02*
D03*
X236441D02*
D03*
X188118Y257500D02*
D03*
X183000D02*
D03*
X188059Y264000D02*
D03*
X182941D02*
D03*
X188059Y270500D02*
D03*
X182941D02*
D03*
D34*
X336433Y295976D02*
D03*
X343933D02*
D03*
X320433D02*
D03*
X327933D02*
D03*
D35*
X340233Y287976D02*
D03*
X324233D02*
D03*
D36*
X199000Y359500D02*
D03*
X198921Y390731D02*
D03*
X178000Y359500D02*
D03*
X177921Y390731D02*
D03*
D37*
X156026Y383500D02*
D03*
X148000Y383500D02*
D03*
X140026Y383500D02*
D03*
D38*
X156026Y390499D02*
D03*
X148000Y390500D02*
D03*
X140026Y390499D02*
D03*
D39*
X231999Y386474D02*
D03*
D40*
X239000D02*
D03*
D41*
X195647Y295174D02*
D03*
Y293599D02*
D03*
Y292024D02*
D03*
Y290450D02*
D03*
Y288875D02*
D03*
Y287300D02*
D03*
Y285725D02*
D03*
Y284150D02*
D03*
Y282576D02*
D03*
Y281001D02*
D03*
Y279426D02*
D03*
Y277851D02*
D03*
Y276276D02*
D03*
Y274702D02*
D03*
X222478D02*
D03*
Y276276D02*
D03*
Y277851D02*
D03*
Y279426D02*
D03*
Y281001D02*
D03*
Y282576D02*
D03*
Y284150D02*
D03*
Y285725D02*
D03*
Y287300D02*
D03*
Y288875D02*
D03*
Y290450D02*
D03*
Y292024D02*
D03*
Y293599D02*
D03*
Y295174D02*
D03*
D42*
X198827Y271522D02*
D03*
X200401D02*
D03*
X201976D02*
D03*
X203551D02*
D03*
X205126D02*
D03*
X206701D02*
D03*
X208275D02*
D03*
X209850D02*
D03*
X211425D02*
D03*
X213000D02*
D03*
X214575D02*
D03*
X216149D02*
D03*
X217724D02*
D03*
X219299D02*
D03*
Y298353D02*
D03*
X217724D02*
D03*
X216149D02*
D03*
X214575D02*
D03*
X213000D02*
D03*
X211425D02*
D03*
X209850D02*
D03*
X208275D02*
D03*
X206701D02*
D03*
X205126D02*
D03*
X203551D02*
D03*
X201976D02*
D03*
X200401D02*
D03*
X198827D02*
D03*
D43*
X209063Y284938D02*
D03*
D44*
X182500Y282000D02*
D03*
Y277000D02*
D03*
D45*
X276000Y385221D02*
D03*
D46*
X285055Y362779D02*
D03*
X276000D02*
D03*
X266945D02*
D03*
D47*
X298000Y376193D02*
D03*
Y362807D02*
D03*
X253500Y375693D02*
D03*
Y362307D02*
D03*
D48*
X210653Y327559D02*
D03*
X217347D02*
D03*
Y322441D02*
D03*
X210653D02*
D03*
D49*
X210000Y315500D02*
D03*
Y308500D02*
D03*
D50*
X132118Y260547D02*
D03*
Y239366D02*
D03*
D51*
X166648Y295221D02*
D03*
X171648D02*
D03*
D52*
X176647Y295178D02*
D03*
X176647Y298721D02*
D03*
X161648Y295221D02*
D03*
X161647Y291678D02*
D03*
D53*
X340799Y324555D02*
D03*
Y326523D02*
D03*
Y328492D02*
D03*
Y330461D02*
D03*
Y332429D02*
D03*
Y334398D02*
D03*
X324067D02*
D03*
Y332429D02*
D03*
Y330461D02*
D03*
Y328492D02*
D03*
Y326523D02*
D03*
Y324555D02*
D03*
D54*
X337354Y337842D02*
D03*
X335386D02*
D03*
X333417D02*
D03*
X331449D02*
D03*
X329480D02*
D03*
X327512D02*
D03*
X327512Y321110D02*
D03*
X329480D02*
D03*
X331449D02*
D03*
X333417D02*
D03*
X335386D02*
D03*
X337354D02*
D03*
D55*
X332433Y329476D02*
D03*
D56*
X270500Y212400D02*
D03*
X275500D02*
D03*
X280500D02*
D03*
X285500D02*
D03*
X290500D02*
D03*
X295500D02*
D03*
X300500D02*
D03*
X305500D02*
D03*
X270500Y233500D02*
D03*
X275500D02*
D03*
X280500D02*
D03*
X285500D02*
D03*
X290500D02*
D03*
X295500D02*
D03*
X300500D02*
D03*
X305500D02*
D03*
D57*
X260500Y296500D02*
D03*
Y291500D02*
D03*
Y286500D02*
D03*
Y281500D02*
D03*
X290169Y296500D02*
D03*
Y291500D02*
D03*
Y286500D02*
D03*
Y281500D02*
D03*
D101*
X151130Y295221D02*
G03*
X132118Y276209I0J-19012D01*
G01*
Y260547D02*
Y276209D01*
X151130Y295221D02*
X161648D01*
X171648Y295174D02*
X194000D01*
X161648Y295221D02*
X166648D01*
D102*
X201000Y308000D02*
D03*
Y315000D02*
D03*
D103*
X332297Y372256D02*
Y375985D01*
X349500Y375472D02*
Y378500D01*
X344500Y383500D02*
X349500Y378500D01*
X337523Y383500D02*
X344500D01*
X332541Y378519D02*
X337523Y383500D01*
X349500Y375472D02*
X349923Y375049D01*
Y372363D02*
Y375049D01*
Y372363D02*
X350013Y372272D01*
X332541Y376229D02*
Y378519D01*
X332297Y375985D02*
X332541Y376229D01*
D104*
X342500Y209315D02*
X343000Y208815D01*
X342500Y209315D02*
Y219500D01*
X298000Y376193D02*
X306807D01*
X253500Y376693D02*
X254193Y376000D01*
X246193Y375693D02*
X253500D01*
X276000Y362779D02*
Y372000D01*
X272000Y376000D02*
X276000Y372000D01*
X254193Y376000D02*
X272000D01*
X289193Y376193D02*
X298000D01*
X285055Y372055D02*
X289193Y376193D01*
X285055Y362779D02*
Y372055D01*
X310500Y182000D02*
Y192500D01*
X316500Y198500D01*
X332685D01*
X343000Y208815D01*
X270500Y206000D02*
Y212400D01*
X300500Y182000D02*
Y183000D01*
X290500Y193000D02*
X300500Y183000D01*
Y182000D02*
X300500Y182000D01*
X295500Y196500D02*
Y212400D01*
X305500Y206000D02*
X306500D01*
X305500D02*
Y212400D01*
X300500Y202000D02*
Y212400D01*
X290500Y193000D02*
Y212400D01*
X270500D02*
Y218000D01*
X268059Y220441D02*
X270500Y218000D01*
X263000Y220441D02*
X268059D01*
D105*
X171648Y295174D02*
Y295221D01*
D106*
X352534Y377374D02*
D03*
X329778D02*
D03*
D107*
X359217Y391744D02*
D03*
X323784Y391744D02*
D03*
D108*
X323783Y375406D02*
D03*
X359216Y375406D02*
D03*
D109*
X310500Y182000D02*
D03*
X280500D02*
D03*
X290500D02*
D03*
X300500D02*
D03*
X349441D02*
D03*
D110*
X270500D02*
D03*
X339441D02*
D03*
D111*
X377500Y371500D02*
D03*
X366500Y371000D02*
D03*
X349000Y393000D02*
D03*
X354500Y385000D02*
D03*
X345500Y389000D02*
D03*
X312500Y381000D02*
D03*
X307500Y390000D02*
D03*
X329000Y385000D02*
D03*
X334000Y391500D02*
D03*
X283500Y270500D02*
D03*
X282000Y256500D02*
D03*
X280000Y243000D02*
D03*
X298000Y222500D02*
D03*
X284500Y225000D02*
D03*
X275500Y225500D02*
D03*
X262500Y235000D02*
D03*
X285500Y156500D02*
D03*
X297500Y166000D02*
D03*
X297000Y160500D02*
D03*
X317000Y164500D02*
D03*
X317500Y174500D02*
D03*
X324500Y178000D02*
D03*
X358000Y197000D02*
D03*
X327000Y194000D02*
D03*
X320500Y190500D02*
D03*
X329000Y186500D02*
D03*
X332500Y176000D02*
D03*
X336000Y157500D02*
D03*
Y163500D02*
D03*
X343000Y167000D02*
D03*
X353000Y161500D02*
D03*
X354500Y170500D02*
D03*
X368000Y179500D02*
D03*
X361500Y188000D02*
D03*
X378500Y189000D02*
D03*
X377000Y210500D02*
D03*
X372000Y194000D02*
D03*
X380500Y205000D02*
D03*
X368000Y204000D02*
D03*
X370500Y212500D02*
D03*
X378500Y219500D02*
D03*
X379000Y232000D02*
D03*
X370500Y236500D02*
D03*
X375000Y225000D02*
D03*
X379500Y244000D02*
D03*
X377000Y267500D02*
D03*
X368000Y255000D02*
D03*
X360500Y268500D02*
D03*
X377000Y260000D02*
D03*
X343000Y269500D02*
D03*
Y279000D02*
D03*
X327500Y281500D02*
D03*
X335000Y275000D02*
D03*
X352500Y273000D02*
D03*
X363500Y281000D02*
D03*
X362500Y296500D02*
D03*
X378000Y313000D02*
D03*
X378500Y285500D02*
D03*
X372500Y317000D02*
D03*
X377500Y301500D02*
D03*
X380000Y325500D02*
D03*
Y358500D02*
D03*
X373500Y344500D02*
D03*
X379000Y335500D02*
D03*
X377000Y349500D02*
D03*
X373500Y363500D02*
D03*
X315500Y363000D02*
D03*
X326000Y358500D02*
D03*
X341500Y358000D02*
D03*
X361000Y325500D02*
D03*
X346000Y317500D02*
D03*
X316000Y317000D02*
D03*
X311500Y322000D02*
D03*
X289000Y320000D02*
D03*
X279000Y321500D02*
D03*
X280500Y308500D02*
D03*
X276500Y275500D02*
D03*
X271500Y284500D02*
D03*
X278000Y289000D02*
D03*
X276000Y297500D02*
D03*
X301000Y283000D02*
D03*
X302000Y291000D02*
D03*
X311500Y284500D02*
D03*
X317500Y272000D02*
D03*
X329000Y267500D02*
D03*
X309500Y244500D02*
D03*
X312000Y251500D02*
D03*
X317500Y247500D02*
D03*
X326500Y245000D02*
D03*
X335500Y239500D02*
D03*
X350500D02*
D03*
X352000Y224500D02*
D03*
X357000Y235000D02*
D03*
X326000Y219000D02*
D03*
X330500Y227000D02*
D03*
X332000Y230500D02*
D03*
X316500Y241000D02*
D03*
Y231000D02*
D03*
X312000Y220000D02*
D03*
Y207500D02*
D03*
X315500Y211500D02*
D03*
X314500Y202500D02*
D03*
X291500Y173500D02*
D03*
X307000Y198000D02*
D03*
X301500Y188000D02*
D03*
X286500Y188500D02*
D03*
X286000Y196500D02*
D03*
X265000Y202000D02*
D03*
X276500Y199500D02*
D03*
X276000Y188500D02*
D03*
X273500Y175500D02*
D03*
X307500Y165000D02*
D03*
X297000Y173500D02*
D03*
X273000Y166000D02*
D03*
X281500Y172500D02*
D03*
X286500Y164500D02*
D03*
X215500Y180500D02*
D03*
X224000Y166500D02*
D03*
X237000Y177500D02*
D03*
X243500Y166500D02*
D03*
X264500Y173500D02*
D03*
X266000Y162500D02*
D03*
X248000Y161500D02*
D03*
X245000Y176000D02*
D03*
X313500Y330000D02*
D03*
X314500Y344500D02*
D03*
X300500Y329000D02*
D03*
X281000Y342500D02*
D03*
X288500Y332000D02*
D03*
X258000Y342500D02*
D03*
X246000Y344000D02*
D03*
X232500Y348500D02*
D03*
X230000Y359500D02*
D03*
X235500Y368500D02*
D03*
X243000Y356500D02*
D03*
X260500D02*
D03*
X272000Y361500D02*
D03*
X281000Y362500D02*
D03*
X291000Y361500D02*
D03*
X292500Y369500D02*
D03*
X285000Y385000D02*
D03*
X282500Y392500D02*
D03*
X271500Y392000D02*
D03*
X261000Y384500D02*
D03*
X275500Y378000D02*
D03*
X281500Y370500D02*
D03*
X280000Y377000D02*
D03*
X268000Y372000D02*
D03*
X340000Y378500D02*
D03*
X244500Y364500D02*
D03*
X253000Y370500D02*
D03*
X310000Y364500D02*
D03*
X300000Y370500D02*
D03*
X293500Y383000D02*
D03*
X292500Y394000D02*
D03*
X287000Y388000D02*
D03*
X299500Y391000D02*
D03*
X162000Y373000D02*
D03*
X167000Y384500D02*
D03*
X201000Y370000D02*
D03*
X201500Y382000D02*
D03*
X179500Y383000D02*
D03*
X182000Y369000D02*
D03*
X189500Y368500D02*
D03*
X187500Y378500D02*
D03*
X188500Y393500D02*
D03*
X221500Y373000D02*
D03*
X210500Y390500D02*
D03*
X213500Y382500D02*
D03*
X218000Y392500D02*
D03*
X226000D02*
D03*
X245000Y392000D02*
D03*
X248000Y388000D02*
D03*
X257500Y392500D02*
D03*
X266000Y385500D02*
D03*
X264000Y393500D02*
D03*
X310000Y351000D02*
D03*
X282500Y354000D02*
D03*
X297500Y346000D02*
D03*
X287000Y355000D02*
D03*
X269000Y354500D02*
D03*
X277000Y347500D02*
D03*
X295000Y355500D02*
D03*
X266500Y347000D02*
D03*
X275000Y352500D02*
D03*
X250500Y353000D02*
D03*
X240500Y360000D02*
D03*
X260500Y350000D02*
D03*
X287000Y346500D02*
D03*
X286000Y326000D02*
D03*
X308000Y307000D02*
D03*
X298500Y321000D02*
D03*
X305000Y279500D02*
D03*
X276000Y256000D02*
D03*
Y268000D02*
D03*
X253000Y267500D02*
D03*
X254000Y256000D02*
D03*
Y237000D02*
D03*
X255500Y213000D02*
D03*
X263500Y196000D02*
D03*
X259500Y205000D02*
D03*
X250500Y184500D02*
D03*
X252500Y197000D02*
D03*
X244000Y185500D02*
D03*
X233500Y193000D02*
D03*
X235500Y184500D02*
D03*
X236000Y161500D02*
D03*
X199500Y158500D02*
D03*
X140500Y161500D02*
D03*
X154000Y156500D02*
D03*
X175500Y160500D02*
D03*
X217500Y160000D02*
D03*
X186500Y161500D02*
D03*
X195500Y172500D02*
D03*
X224500Y177000D02*
D03*
X205000Y166500D02*
D03*
X202500Y182000D02*
D03*
X214500Y198500D02*
D03*
X221500Y188000D02*
D03*
X243000Y192000D02*
D03*
X236000Y203000D02*
D03*
X253500Y228500D02*
D03*
X246000Y205000D02*
D03*
X257500Y240500D02*
D03*
X237000Y235000D02*
D03*
X244500Y236500D02*
D03*
X235000Y256500D02*
D03*
X234500Y267000D02*
D03*
X243500Y255500D02*
D03*
X242000Y267000D02*
D03*
X241500Y303000D02*
D03*
X227000Y300000D02*
D03*
X226500Y293500D02*
D03*
X220000Y267000D02*
D03*
X228000Y271000D02*
D03*
X196000Y211500D02*
D03*
X205000Y206000D02*
D03*
X206000Y194500D02*
D03*
X227000Y198000D02*
D03*
X206500Y236500D02*
D03*
X189500Y233000D02*
D03*
X199500Y200000D02*
D03*
X182000Y200500D02*
D03*
X169000Y208500D02*
D03*
X167500Y201000D02*
D03*
X184000Y185000D02*
D03*
X190000Y197500D02*
D03*
X173000Y199000D02*
D03*
X190500Y187500D02*
D03*
X175500Y178500D02*
D03*
X178000Y188500D02*
D03*
X185000Y173000D02*
D03*
X165500Y164000D02*
D03*
X168000Y184500D02*
D03*
X171500Y173000D02*
D03*
X154000Y162000D02*
D03*
X161000Y171500D02*
D03*
X142500Y169000D02*
D03*
X147000Y185000D02*
D03*
X151000Y171500D02*
D03*
X156000Y184500D02*
D03*
X136500Y181500D02*
D03*
X146500Y178000D02*
D03*
X156000Y197000D02*
D03*
X159500Y191500D02*
D03*
X157500Y204000D02*
D03*
X148500Y192000D02*
D03*
X138000Y188000D02*
D03*
X150000Y202000D02*
D03*
X139000Y204000D02*
D03*
X131500Y203500D02*
D03*
X134500Y197000D02*
D03*
X123500Y182000D02*
D03*
X131000Y187500D02*
D03*
X120500Y191000D02*
D03*
X120000Y205500D02*
D03*
X121500Y199000D02*
D03*
X130000Y208500D02*
D03*
X127000Y195500D02*
D03*
X126000Y205500D02*
D03*
X134500Y208500D02*
D03*
X145000Y199500D02*
D03*
X162500Y216500D02*
D03*
X161500Y211500D02*
D03*
X189000Y208000D02*
D03*
X188500Y217500D02*
D03*
X176500Y209000D02*
D03*
X171000Y220000D02*
D03*
X182000Y215500D02*
D03*
X178500Y238500D02*
D03*
X180500Y232500D02*
D03*
X168500Y215000D02*
D03*
X162000Y222500D02*
D03*
X171000Y247500D02*
D03*
X166000Y229000D02*
D03*
X173500Y235000D02*
D03*
X162500Y236500D02*
D03*
X160500Y265500D02*
D03*
X161500Y252500D02*
D03*
X162500Y244500D02*
D03*
X168500Y242500D02*
D03*
X179000Y247000D02*
D03*
X173500Y243500D02*
D03*
X186000Y240000D02*
D03*
X224500Y235500D02*
D03*
X231500Y241000D02*
D03*
X224000Y255000D02*
D03*
X228000Y255500D02*
D03*
X221000Y242000D02*
D03*
X207500Y251500D02*
D03*
X210500Y267500D02*
D03*
X199500Y259000D02*
D03*
X197000Y245000D02*
D03*
X186000Y247500D02*
D03*
X195500Y250000D02*
D03*
X194000Y257500D02*
D03*
X172500Y253500D02*
D03*
X163500Y258500D02*
D03*
X166000Y251500D02*
D03*
X168000Y261000D02*
D03*
X178500Y252500D02*
D03*
X170500Y267500D02*
D03*
X163000Y272000D02*
D03*
X165500Y267000D02*
D03*
X176500Y275000D02*
D03*
X168500Y274500D02*
D03*
X175500Y280000D02*
D03*
X166000Y280500D02*
D03*
X169500Y284500D02*
D03*
X162500Y276500D02*
D03*
X159500Y282000D02*
D03*
X153000Y284500D02*
D03*
X236000Y304000D02*
D03*
X247000Y306000D02*
D03*
X252500Y321500D02*
D03*
X214500Y366000D02*
D03*
X220500Y342000D02*
D03*
X219000Y332000D02*
D03*
X236500Y321000D02*
D03*
X241500Y326000D02*
D03*
X196500Y330500D02*
D03*
X178500Y320500D02*
D03*
X185500Y330000D02*
D03*
X213000Y344000D02*
D03*
X196500Y342500D02*
D03*
X224000Y349000D02*
D03*
X227500Y368500D02*
D03*
X163500Y364500D02*
D03*
X192000Y354000D02*
D03*
X221000Y358000D02*
D03*
X177000Y339000D02*
D03*
X188000Y343500D02*
D03*
X172500Y330000D02*
D03*
X180000Y333000D02*
D03*
X169000Y340500D02*
D03*
X151000Y344500D02*
D03*
X164500Y353500D02*
D03*
X161500Y349000D02*
D03*
X159000Y342000D02*
D03*
X162000Y336500D02*
D03*
X166000Y332500D02*
D03*
X160500Y330000D02*
D03*
X160000Y323000D02*
D03*
X165000Y326000D02*
D03*
X169500Y319500D02*
D03*
X173000Y321500D02*
D03*
X170500Y315000D02*
D03*
X175000Y311500D02*
D03*
X171000Y306500D02*
D03*
X169000Y310000D02*
D03*
X164500Y313500D02*
D03*
X160000Y318000D02*
D03*
X165000Y320000D02*
D03*
X151500Y317000D02*
D03*
X152000Y322500D02*
D03*
X145000Y318500D02*
D03*
X155500Y312500D02*
D03*
X158500Y309000D02*
D03*
X155000Y304500D02*
D03*
X149000Y308000D02*
D03*
X141000Y304000D02*
D03*
X131000Y306500D02*
D03*
X136000Y310500D02*
D03*
X135000Y304000D02*
D03*
X145000Y311500D02*
D03*
X126500Y312000D02*
D03*
X137500Y319000D02*
D03*
X131500Y311000D02*
D03*
X134000Y316000D02*
D03*
X130000Y327000D02*
D03*
Y318000D02*
D03*
X122500Y314500D02*
D03*
X118000Y320500D02*
D03*
X121000Y328500D02*
D03*
X123000Y321500D02*
D03*
X120000Y343500D02*
D03*
X119500Y336000D02*
D03*
X128500Y342000D02*
D03*
X126500Y331000D02*
D03*
X135500Y330500D02*
D03*
X136000Y324500D02*
D03*
X145000Y328500D02*
D03*
X152000Y330000D02*
D03*
X142500Y339000D02*
D03*
X151500Y340000D02*
D03*
X135000Y337500D02*
D03*
X144500Y342500D02*
D03*
X136000Y349000D02*
D03*
X134500Y343000D02*
D03*
X135000Y360000D02*
D03*
X136500Y370000D02*
D03*
X133000Y374500D02*
D03*
X126500Y371500D02*
D03*
X132000Y367500D02*
D03*
X132500Y355500D02*
D03*
X125500Y337000D02*
D03*
X131000Y347000D02*
D03*
X119000Y353000D02*
D03*
X118500Y363000D02*
D03*
X121000Y347000D02*
D03*
X126000Y360500D02*
D03*
X126500Y353000D02*
D03*
X131500Y362500D02*
D03*
X121000Y366500D02*
D03*
X120500Y357500D02*
D03*
X124500Y366500D02*
D03*
X118000Y371500D02*
D03*
X114000Y377500D02*
D03*
Y373500D02*
D03*
Y369500D02*
D03*
Y365500D02*
D03*
Y361500D02*
D03*
Y357500D02*
D03*
Y354000D02*
D03*
Y350000D02*
D03*
Y346000D02*
D03*
Y342000D02*
D03*
Y338000D02*
D03*
Y334000D02*
D03*
Y330000D02*
D03*
Y326000D02*
D03*
Y322000D02*
D03*
X114500Y172000D02*
D03*
Y176500D02*
D03*
Y181000D02*
D03*
Y186000D02*
D03*
Y191000D02*
D03*
Y196000D02*
D03*
Y201000D02*
D03*
Y206000D02*
D03*
Y210500D02*
D03*
X119000D02*
D03*
X123500D02*
D03*
X128000Y213000D02*
D03*
X130000Y217000D02*
D03*
Y221000D02*
D03*
Y225000D02*
D03*
Y229500D02*
D03*
Y233500D02*
D03*
X134000D02*
D03*
Y229500D02*
D03*
Y225000D02*
D03*
Y221000D02*
D03*
Y217000D02*
D03*
X135500Y213000D02*
D03*
X140000Y210500D02*
D03*
X145000Y210000D02*
D03*
X150000Y210500D02*
D03*
X154500Y213000D02*
D03*
X157000Y217000D02*
D03*
Y221500D02*
D03*
Y226000D02*
D03*
Y231000D02*
D03*
Y236500D02*
D03*
Y241500D02*
D03*
Y246500D02*
D03*
Y251500D02*
D03*
Y256000D02*
D03*
Y261000D02*
D03*
Y265500D02*
D03*
Y270000D02*
D03*
Y274500D02*
D03*
X154000Y278000D02*
D03*
X151000Y281000D02*
D03*
X147500Y283500D02*
D03*
X144000Y286500D02*
D03*
X147500Y288500D02*
D03*
X152500Y289000D02*
D03*
X157000D02*
D03*
X165000Y289500D02*
D03*
X173000Y286000D02*
D03*
X169000Y289500D02*
D03*
X179000Y289000D02*
D03*
X188000Y301000D02*
D03*
X183500D02*
D03*
X150000Y304000D02*
D03*
X163000D02*
D03*
X179500Y302500D02*
D03*
X175000D02*
D03*
X167000Y301000D02*
D03*
X158000D02*
D03*
X153500D02*
D03*
X146500Y300500D02*
D03*
X142500Y299500D02*
D03*
X138500Y298000D02*
D03*
X135000Y295500D02*
D03*
X131500Y298000D02*
D03*
X128000Y301000D02*
D03*
X124500Y304000D02*
D03*
X121000Y307500D02*
D03*
X117500Y310500D02*
D03*
X114000Y314000D02*
D03*
Y318000D02*
D03*
X215000Y235000D02*
D03*
X211500Y208000D02*
D03*
Y238500D02*
D03*
X300500Y244000D02*
D03*
X305500Y241000D02*
D03*
X295500Y226500D02*
D03*
X290500Y240500D02*
D03*
X192500Y274500D02*
D03*
X192000Y280500D02*
D03*
X140500Y335500D02*
D03*
X155500D02*
D03*
X148000D02*
D03*
X263500Y304000D02*
D03*
X202000Y338000D02*
D03*
X353500Y324000D02*
D03*
X184500Y338000D02*
D03*
X276000Y327500D02*
D03*
X162000Y390500D02*
D03*
X350500Y347500D02*
D03*
X344109Y378608D02*
D03*
X329500Y312500D02*
D03*
X331500Y316000D02*
D03*
X344000Y301000D02*
D03*
X316839Y302500D02*
D03*
X212500D02*
D03*
X206000Y302000D02*
D03*
X219000Y282000D02*
D03*
X273000Y291500D02*
D03*
X228000Y278500D02*
D03*
X252500Y281500D02*
D03*
X271118Y272118D02*
D03*
X232000Y277500D02*
D03*
X254000Y286500D02*
D03*
X196500Y264000D02*
D03*
Y268000D02*
D03*
X198798Y274702D02*
D03*
X311941Y260059D02*
D03*
X192500Y289000D02*
D03*
X198950Y290450D02*
D03*
X198851Y277851D02*
D03*
X199000Y281000D02*
D03*
X204000Y244500D02*
D03*
X194000Y223000D02*
D03*
X196000Y219500D02*
D03*
X202000Y237500D02*
D03*
X344500Y197256D02*
D03*
X227000Y209500D02*
D03*
X183000Y253000D02*
D03*
X180500Y309500D02*
D03*
X229941Y309441D02*
D03*
X222000Y261500D02*
D03*
X236441Y284941D02*
D03*
D112*
X342500Y219500D02*
D03*
X306807Y376193D02*
D03*
X246000Y375500D02*
D03*
X350500Y366500D02*
D03*
X331500D02*
D03*
X270500Y206000D02*
D03*
X300500Y201000D02*
D03*
X295500Y196500D02*
D03*
X305500Y206000D02*
D03*
D113*
X374500Y385000D02*
D03*
X374500Y164500D02*
D03*
X124500D02*
D03*
Y385000D02*
D03*
D114*
X213000Y284937D02*
D03*
Y288874D02*
D03*
X205127Y284938D02*
D03*
Y288874D02*
D03*
X213000Y281000D02*
D03*
X205126D02*
D03*
X209063Y284937D02*
D03*
X209065Y281002D02*
D03*
X209063Y288874D02*
D03*
M02*
