G04*
G04 #@! TF.GenerationSoftware,Altium Limited,Altium Designer,18.0.10 (644)*
G04*
G04 Layer_Color=32768*
%FSLAX25Y25*%
%MOIN*%
G70*
G01*
G75*
%ADD12C,0.00591*%
%ADD120C,0.00394*%
%ADD121C,0.00197*%
%ADD122C,0.00100*%
%ADD123C,0.00158*%
%ADD124C,0.02362*%
%ADD125C,0.00200*%
D12*
X194397Y295174D02*
G03*
X194397Y295174I-295J0D01*
G01*
D120*
X197870Y233630D02*
X219130D01*
Y212370D02*
Y233630D01*
X197870Y212370D02*
X219130D01*
X197870D02*
Y233630D01*
X274031Y374000D02*
X277969D01*
X276000Y372031D02*
Y375969D01*
X289583Y358252D02*
Y389748D01*
X262417Y358252D02*
Y389748D01*
X289583D01*
X262417Y358252D02*
X289583D01*
X275335Y287032D02*
Y290968D01*
X273366Y289000D02*
X277303D01*
X255335Y299630D02*
X295335D01*
X255335Y278370D02*
X295335D01*
X255335D02*
Y299630D01*
X295335Y278370D02*
Y299630D01*
D121*
X209878Y223000D02*
G03*
X209878Y223000I-1378J0D01*
G01*
X344378Y228500D02*
G03*
X344378Y228500I-1378J0D01*
G01*
X200299Y375231D02*
G03*
X200299Y375231I-1378J0D01*
G01*
X179299D02*
G03*
X179299Y375231I-1378J0D01*
G01*
X157378Y387000D02*
G03*
X157378Y387000I-1378J0D01*
G01*
X149352Y387000D02*
G03*
X149352Y387000I-1378J0D01*
G01*
X141378Y387000D02*
G03*
X141378Y387000I-1378J0D01*
G01*
X236878Y386500D02*
G03*
X236878Y386500I-1378J0D01*
G01*
X299378Y369500D02*
G03*
X299378Y369500I-1378J0D01*
G01*
X254878Y369000D02*
G03*
X254878Y369000I-1378J0D01*
G01*
X208500Y221031D02*
Y224969D01*
X206532Y223000D02*
X210469D01*
X343000Y226532D02*
Y230469D01*
X341032Y228500D02*
X344969D01*
X198921Y373263D02*
Y377200D01*
X196953Y375231D02*
X200890D01*
X177921Y373263D02*
Y377200D01*
X175953Y375231D02*
X179890D01*
X156000Y385032D02*
Y388968D01*
X154032Y387000D02*
X157968D01*
X147974Y385032D02*
Y388969D01*
X146006Y387000D02*
X149943D01*
X140000Y385032D02*
Y388968D01*
X138031Y387000D02*
X141969D01*
X233531Y386500D02*
X237469D01*
X235500Y384531D02*
Y388469D01*
X296031Y369500D02*
X299969D01*
X298000Y367531D02*
Y371468D01*
X251532Y369000D02*
X255469D01*
X253500Y367032D02*
Y370969D01*
D122*
X263500Y223000D02*
G03*
X263500Y223000I-500J0D01*
G01*
X230000Y226000D02*
G03*
X230000Y226000I-500J0D01*
G01*
X187500D02*
G03*
X187500Y226000I-500J0D01*
G01*
X230000Y214000D02*
G03*
X230000Y214000I-500J0D01*
G01*
Y220000D02*
G03*
X230000Y220000I-500J0D01*
G01*
X307000Y257500D02*
G03*
X307000Y257500I-500J0D01*
G01*
X301000D02*
G03*
X301000Y257500I-500J0D01*
G01*
X295000D02*
G03*
X295000Y257500I-500J0D01*
G01*
X289000D02*
G03*
X289000Y257500I-500J0D01*
G01*
X342441Y192000D02*
G03*
X342441Y192000I-500J0D01*
G01*
X350933Y350476D02*
G03*
X350933Y350476I-500J0D01*
G01*
X350874Y344476D02*
G03*
X350874Y344476I-500J0D01*
G01*
Y338476D02*
G03*
X350874Y338476I-500J0D01*
G01*
X337933Y347976D02*
G03*
X337933Y347976I-500J0D01*
G01*
X324874Y307476D02*
G03*
X324874Y307476I-500J0D01*
G01*
X340874Y307477D02*
G03*
X340874Y307477I-500J0D01*
G01*
X267000Y269559D02*
G03*
X267000Y269559I-500J0D01*
G01*
X261000D02*
G03*
X261000Y269559I-500J0D01*
G01*
X202000Y350000D02*
G03*
X202000Y350000I-500J0D01*
G01*
X176000D02*
G03*
X176000Y350000I-500J0D01*
G01*
X156000Y358500D02*
G03*
X156000Y358500I-500J0D01*
G01*
X148500D02*
G03*
X148500Y358500I-500J0D01*
G01*
X141000D02*
G03*
X141000Y358500I-500J0D01*
G01*
X225500Y325000D02*
G03*
X225500Y325000I-500J0D01*
G01*
X203000D02*
G03*
X203000Y325000I-500J0D01*
G01*
X218000Y259000D02*
G03*
X218000Y259000I-500J0D01*
G01*
X212000D02*
G03*
X212000Y259000I-500J0D01*
G01*
X235000Y379000D02*
G03*
X235000Y379000I-500J0D01*
G01*
X264500Y325000D02*
G03*
X264500Y325000I-500J0D01*
G01*
X271000D02*
G03*
X271000Y325000I-500J0D01*
G01*
X225500Y312000D02*
G03*
X225500Y312000I-500J0D01*
G01*
X219500D02*
G03*
X219500Y312000I-500J0D01*
G01*
X239500Y274500D02*
G03*
X239500Y274500I-500J0D01*
G01*
Y280500D02*
G03*
X239500Y280500I-500J0D01*
G01*
X191500Y312000D02*
G03*
X191500Y312000I-500J0D01*
G01*
X185500D02*
G03*
X185500Y312000I-500J0D01*
G01*
X186059Y257500D02*
G03*
X186059Y257500I-500J0D01*
G01*
X186000Y264000D02*
G03*
X186000Y264000I-500J0D01*
G01*
Y270500D02*
G03*
X186000Y270500I-500J0D01*
G01*
X189000Y279559D02*
G03*
X189000Y279559I-500J0D01*
G01*
X177147Y296950D02*
G03*
X177147Y296950I-500J0D01*
G01*
X162147Y293450D02*
G03*
X162147Y293450I-500J0D01*
G01*
X263000Y222213D02*
Y223787D01*
X262213Y223000D02*
X263787D01*
X228713Y226000D02*
X230287D01*
X229500Y225213D02*
Y226787D01*
X186213Y226000D02*
X187787D01*
X187000Y225213D02*
Y226787D01*
X228713Y214000D02*
X230287D01*
X229500Y213213D02*
Y214787D01*
X228713Y220000D02*
X230287D01*
X229500Y219213D02*
Y220787D01*
X305713Y257500D02*
X307287D01*
X306500Y256713D02*
Y258287D01*
X299713Y257500D02*
X301287D01*
X300500Y256713D02*
Y258287D01*
X293713Y257500D02*
X295287D01*
X294500Y256713D02*
Y258287D01*
X287713Y257500D02*
X289287D01*
X288500Y256713D02*
Y258287D01*
X341941Y191213D02*
Y192787D01*
X341154Y192000D02*
X342729D01*
X349646Y350476D02*
X351220D01*
X350433Y349689D02*
Y351264D01*
X349586Y344476D02*
X351161D01*
X350374Y343689D02*
Y345263D01*
X349586Y338476D02*
X351161D01*
X350374Y337689D02*
Y339263D01*
X337433Y347189D02*
Y348764D01*
X336646Y347976D02*
X338221D01*
X324374Y306689D02*
Y308263D01*
X323586Y307476D02*
X325161D01*
X340374Y306689D02*
Y308264D01*
X339587Y307477D02*
X341162D01*
X266500Y268771D02*
Y270346D01*
X265713Y269559D02*
X267288D01*
X260500Y268771D02*
Y270346D01*
X259713Y269559D02*
X261288D01*
X200713Y350000D02*
X202287D01*
X201500Y349213D02*
Y350787D01*
X174713Y350000D02*
X176287D01*
X175500Y349213D02*
Y350787D01*
X154713Y358500D02*
X156287D01*
X155500Y357713D02*
Y359287D01*
X147213Y358500D02*
X148787D01*
X148000Y357713D02*
Y359287D01*
X139713Y358500D02*
X141287D01*
X140500Y357713D02*
Y359287D01*
X225000Y324213D02*
Y325787D01*
X224213Y325000D02*
X225787D01*
X202500Y324213D02*
Y325787D01*
X201713Y325000D02*
X203287D01*
X217500Y258213D02*
Y259787D01*
X216713Y259000D02*
X218287D01*
X211500Y258213D02*
Y259787D01*
X210713Y259000D02*
X212287D01*
X234500Y378213D02*
Y379787D01*
X233713Y379000D02*
X235287D01*
X263213Y325000D02*
X264787D01*
X264000Y324213D02*
Y325787D01*
X270500Y324213D02*
Y325787D01*
X269713Y325000D02*
X271287D01*
X225000Y311213D02*
Y312787D01*
X224213Y312000D02*
X225787D01*
X219000Y311213D02*
Y312787D01*
X218213Y312000D02*
X219787D01*
X238213Y274500D02*
X239787D01*
X239000Y273713D02*
Y275287D01*
X238213Y280500D02*
X239787D01*
X239000Y279713D02*
Y281287D01*
X191000Y311213D02*
Y312787D01*
X190213Y312000D02*
X191787D01*
X185000Y311213D02*
Y312787D01*
X184213Y312000D02*
X185787D01*
X184772Y257500D02*
X186347D01*
X185559Y256713D02*
Y258288D01*
X184713Y264000D02*
X186287D01*
X185500Y263213D02*
Y264787D01*
X184713Y270500D02*
X186287D01*
X185500Y269713D02*
Y271287D01*
X188500Y278771D02*
Y280346D01*
X187713Y279559D02*
X189288D01*
X176647Y296162D02*
Y297737D01*
X175860Y296950D02*
X177435D01*
X161647Y292662D02*
Y294237D01*
X160860Y293450D02*
X162435D01*
D123*
X214707Y325000D02*
G03*
X214707Y325000I-707J0D01*
G01*
X213000D02*
X215000D01*
X214000Y324000D02*
Y326000D01*
D124*
X133299Y255957D02*
G03*
X133299Y255957I-1181J0D01*
G01*
D125*
X182000Y279500D02*
X183000D01*
X182500Y279000D02*
Y280000D01*
X210000Y312000D02*
X210500D01*
X209500D02*
X210000D01*
Y311500D02*
Y312500D01*
X169148Y294721D02*
Y295721D01*
X168648Y295221D02*
X169648D01*
M02*
