G04*
G04 #@! TF.GenerationSoftware,Altium Limited,Altium Designer,18.0.10 (644)*
G04*
G04 Layer_Color=65535*
%FSLAX25Y25*%
%MOIN*%
G70*
G01*
G75*
%ADD10C,0.01000*%
%ADD11C,0.00984*%
%ADD12C,0.00591*%
%ADD13C,0.00787*%
%ADD14C,0.01968*%
%ADD15C,0.01000*%
%ADD16C,0.00700*%
%ADD17C,0.01500*%
%ADD18C,0.00800*%
%ADD19C,0.00600*%
%ADD20C,0.00591*%
%ADD21C,0.00709*%
G36*
X199239Y165733D02*
X198367D01*
Y166540D01*
X199239D01*
Y165733D01*
D02*
G37*
G36*
X202119Y165359D02*
X202191Y165352D01*
X202270Y165339D01*
X202355Y165319D01*
X202447Y165293D01*
X202539Y165260D01*
X202552Y165254D01*
X202578Y165241D01*
X202624Y165221D01*
X202677Y165188D01*
X202736Y165149D01*
X202795Y165103D01*
X202854Y165050D01*
X202906Y164991D01*
X202913Y164985D01*
X202926Y164965D01*
X202946Y164932D01*
X202972Y164886D01*
X203005Y164834D01*
X203031Y164768D01*
X203057Y164703D01*
X203077Y164624D01*
Y164617D01*
X203083Y164585D01*
X203097Y164539D01*
X203103Y164473D01*
X203116Y164394D01*
X203123Y164289D01*
X203129Y164178D01*
Y164040D01*
Y162000D01*
X202257D01*
Y163673D01*
Y163679D01*
Y163699D01*
Y163725D01*
Y163758D01*
Y163804D01*
Y163850D01*
X202250Y163961D01*
X202244Y164073D01*
X202231Y164191D01*
X202217Y164289D01*
X202211Y164329D01*
X202198Y164362D01*
Y164368D01*
X202185Y164388D01*
X202171Y164414D01*
X202152Y164453D01*
X202093Y164532D01*
X202060Y164571D01*
X202014Y164604D01*
X202008Y164611D01*
X201994Y164617D01*
X201968Y164631D01*
X201929Y164650D01*
X201883Y164670D01*
X201837Y164683D01*
X201778Y164690D01*
X201712Y164696D01*
X201673D01*
X201634Y164690D01*
X201581Y164683D01*
X201516Y164663D01*
X201450Y164644D01*
X201378Y164611D01*
X201306Y164571D01*
X201299Y164565D01*
X201279Y164552D01*
X201247Y164519D01*
X201207Y164486D01*
X201168Y164434D01*
X201129Y164381D01*
X201089Y164309D01*
X201063Y164237D01*
Y164230D01*
X201050Y164198D01*
X201043Y164145D01*
X201030Y164066D01*
X201024Y164021D01*
X201017Y163961D01*
X201010Y163902D01*
Y163830D01*
X201004Y163758D01*
X200997Y163673D01*
Y163581D01*
Y163483D01*
Y162000D01*
X200125D01*
Y165293D01*
X200932D01*
Y164808D01*
X200938Y164814D01*
X200951Y164834D01*
X200978Y164860D01*
X201010Y164893D01*
X201050Y164939D01*
X201102Y164985D01*
X201161Y165037D01*
X201227Y165090D01*
X201299Y165136D01*
X201384Y165188D01*
X201470Y165234D01*
X201568Y165280D01*
X201673Y165313D01*
X201778Y165339D01*
X201896Y165359D01*
X202014Y165365D01*
X202060D01*
X202119Y165359D01*
D02*
G37*
G36*
X185542D02*
X185614Y165352D01*
X185693Y165339D01*
X185778Y165319D01*
X185870Y165293D01*
X185962Y165260D01*
X185975Y165254D01*
X186001Y165241D01*
X186047Y165221D01*
X186100Y165188D01*
X186159Y165149D01*
X186218Y165103D01*
X186277Y165050D01*
X186329Y164991D01*
X186336Y164985D01*
X186349Y164965D01*
X186369Y164932D01*
X186395Y164886D01*
X186427Y164834D01*
X186454Y164768D01*
X186480Y164703D01*
X186500Y164624D01*
Y164617D01*
X186506Y164585D01*
X186519Y164539D01*
X186526Y164473D01*
X186539Y164394D01*
X186546Y164289D01*
X186552Y164178D01*
Y164040D01*
Y162000D01*
X185680D01*
Y163673D01*
Y163679D01*
Y163699D01*
Y163725D01*
Y163758D01*
Y163804D01*
Y163850D01*
X185673Y163961D01*
X185667Y164073D01*
X185653Y164191D01*
X185640Y164289D01*
X185634Y164329D01*
X185621Y164362D01*
Y164368D01*
X185608Y164388D01*
X185594Y164414D01*
X185575Y164453D01*
X185516Y164532D01*
X185483Y164571D01*
X185437Y164604D01*
X185430Y164611D01*
X185417Y164617D01*
X185391Y164631D01*
X185352Y164650D01*
X185306Y164670D01*
X185260Y164683D01*
X185201Y164690D01*
X185135Y164696D01*
X185096D01*
X185056Y164690D01*
X185004Y164683D01*
X184938Y164663D01*
X184873Y164644D01*
X184801Y164611D01*
X184729Y164571D01*
X184722Y164565D01*
X184702Y164552D01*
X184669Y164519D01*
X184630Y164486D01*
X184591Y164434D01*
X184551Y164381D01*
X184512Y164309D01*
X184486Y164237D01*
Y164230D01*
X184473Y164198D01*
X184466Y164145D01*
X184453Y164066D01*
X184446Y164021D01*
X184440Y163961D01*
X184433Y163902D01*
Y163830D01*
X184427Y163758D01*
X184420Y163673D01*
Y163581D01*
Y163483D01*
Y162000D01*
X183548D01*
Y165293D01*
X184355D01*
Y164808D01*
X184361Y164814D01*
X184374Y164834D01*
X184400Y164860D01*
X184433Y164893D01*
X184473Y164939D01*
X184525Y164985D01*
X184584Y165037D01*
X184650Y165090D01*
X184722Y165136D01*
X184807Y165188D01*
X184892Y165234D01*
X184991Y165280D01*
X185096Y165313D01*
X185201Y165339D01*
X185319Y165359D01*
X185437Y165365D01*
X185483D01*
X185542Y165359D01*
D02*
G37*
G36*
X181284Y164768D02*
X183089Y162000D01*
X181901D01*
X180648Y164132D01*
X179907Y163371D01*
Y162000D01*
X178989D01*
Y166540D01*
X179907D01*
Y164519D01*
X181770Y166540D01*
X183003D01*
X181284Y164768D01*
D02*
G37*
G36*
X217135Y165359D02*
X217187D01*
X217246Y165352D01*
X217312Y165346D01*
X217384Y165332D01*
X217535Y165300D01*
X217692Y165254D01*
X217850Y165188D01*
X217994Y165103D01*
X218001D01*
X218007Y165090D01*
X218027Y165077D01*
X218053Y165057D01*
X218112Y164998D01*
X218191Y164913D01*
X218276Y164801D01*
X218362Y164670D01*
X218440Y164513D01*
X218506Y164329D01*
X217647Y164171D01*
Y164184D01*
X217640Y164211D01*
X217627Y164257D01*
X217607Y164316D01*
X217574Y164375D01*
X217542Y164440D01*
X217496Y164499D01*
X217443Y164552D01*
X217437Y164558D01*
X217417Y164571D01*
X217384Y164591D01*
X217338Y164618D01*
X217279Y164644D01*
X217214Y164663D01*
X217135Y164676D01*
X217050Y164683D01*
X217037D01*
X216997Y164676D01*
X216938Y164670D01*
X216859Y164657D01*
X216781Y164624D01*
X216695Y164585D01*
X216610Y164532D01*
X216531Y164453D01*
X216525Y164440D01*
X216505Y164408D01*
X216472Y164355D01*
X216440Y164276D01*
X216400Y164171D01*
X216387Y164112D01*
X216374Y164047D01*
X216361Y163968D01*
X216348Y163889D01*
X216341Y163797D01*
Y163706D01*
Y163699D01*
Y163679D01*
Y163647D01*
X216348Y163607D01*
Y163561D01*
X216354Y163509D01*
X216367Y163378D01*
X216387Y163240D01*
X216426Y163102D01*
X216472Y162977D01*
X216505Y162925D01*
X216538Y162873D01*
X216545Y162859D01*
X216577Y162833D01*
X216617Y162800D01*
X216676Y162754D01*
X216754Y162708D01*
X216840Y162676D01*
X216945Y162650D01*
X217063Y162636D01*
X217102D01*
X217148Y162643D01*
X217207Y162656D01*
X217273Y162669D01*
X217338Y162695D01*
X217404Y162728D01*
X217469Y162774D01*
X217476Y162781D01*
X217496Y162800D01*
X217522Y162833D01*
X217561Y162886D01*
X217601Y162951D01*
X217633Y163037D01*
X217673Y163142D01*
X217699Y163259D01*
X218552Y163115D01*
Y163109D01*
X218545Y163089D01*
X218539Y163056D01*
X218526Y163017D01*
X218506Y162971D01*
X218486Y162912D01*
X218434Y162781D01*
X218368Y162636D01*
X218276Y162492D01*
X218165Y162348D01*
X218099Y162282D01*
X218034Y162223D01*
X218027D01*
X218014Y162210D01*
X217994Y162197D01*
X217968Y162177D01*
X217929Y162157D01*
X217883Y162131D01*
X217830Y162105D01*
X217765Y162079D01*
X217699Y162046D01*
X217620Y162020D01*
X217542Y161994D01*
X217450Y161974D01*
X217351Y161954D01*
X217246Y161941D01*
X217141Y161934D01*
X217023Y161928D01*
X216951D01*
X216905Y161934D01*
X216846Y161941D01*
X216774Y161954D01*
X216695Y161967D01*
X216610Y161987D01*
X216518Y162007D01*
X216426Y162039D01*
X216328Y162072D01*
X216236Y162118D01*
X216138Y162171D01*
X216046Y162230D01*
X215961Y162302D01*
X215875Y162381D01*
X215869Y162387D01*
X215856Y162400D01*
X215836Y162426D01*
X215810Y162466D01*
X215777Y162512D01*
X215738Y162564D01*
X215705Y162630D01*
X215665Y162708D01*
X215619Y162794D01*
X215587Y162886D01*
X215547Y162991D01*
X215515Y163102D01*
X215488Y163227D01*
X215469Y163351D01*
X215456Y163496D01*
X215449Y163640D01*
Y163647D01*
Y163673D01*
Y163719D01*
X215456Y163771D01*
X215462Y163843D01*
X215469Y163922D01*
X215482Y164007D01*
X215501Y164106D01*
X215554Y164309D01*
X215587Y164414D01*
X215626Y164519D01*
X215679Y164624D01*
X215738Y164722D01*
X215803Y164814D01*
X215875Y164906D01*
X215882Y164913D01*
X215895Y164926D01*
X215921Y164945D01*
X215954Y164978D01*
X216000Y165011D01*
X216053Y165050D01*
X216111Y165096D01*
X216184Y165136D01*
X216262Y165182D01*
X216348Y165221D01*
X216446Y165260D01*
X216551Y165293D01*
X216656Y165326D01*
X216781Y165346D01*
X216905Y165359D01*
X217037Y165365D01*
X217095D01*
X217135Y165359D01*
D02*
G37*
G36*
X192804Y165359D02*
X192856D01*
X192915Y165352D01*
X192981Y165346D01*
X193053Y165332D01*
X193204Y165300D01*
X193361Y165254D01*
X193519Y165188D01*
X193663Y165103D01*
X193670D01*
X193676Y165090D01*
X193696Y165077D01*
X193722Y165057D01*
X193781Y164998D01*
X193860Y164913D01*
X193945Y164801D01*
X194031Y164670D01*
X194109Y164513D01*
X194175Y164329D01*
X193315Y164171D01*
Y164184D01*
X193309Y164211D01*
X193296Y164257D01*
X193276Y164316D01*
X193243Y164375D01*
X193211Y164440D01*
X193165Y164499D01*
X193112Y164552D01*
X193106Y164558D01*
X193086Y164571D01*
X193053Y164591D01*
X193007Y164617D01*
X192948Y164644D01*
X192883Y164663D01*
X192804Y164676D01*
X192719Y164683D01*
X192705D01*
X192666Y164676D01*
X192607Y164670D01*
X192528Y164657D01*
X192450Y164624D01*
X192364Y164585D01*
X192279Y164532D01*
X192200Y164453D01*
X192194Y164440D01*
X192174Y164408D01*
X192141Y164355D01*
X192109Y164276D01*
X192069Y164171D01*
X192056Y164112D01*
X192043Y164047D01*
X192030Y163968D01*
X192017Y163889D01*
X192010Y163797D01*
Y163706D01*
Y163699D01*
Y163679D01*
Y163647D01*
X192017Y163607D01*
Y163561D01*
X192023Y163509D01*
X192036Y163378D01*
X192056Y163240D01*
X192095Y163102D01*
X192141Y162977D01*
X192174Y162925D01*
X192207Y162873D01*
X192213Y162859D01*
X192246Y162833D01*
X192286Y162800D01*
X192345Y162754D01*
X192423Y162708D01*
X192509Y162676D01*
X192614Y162649D01*
X192732Y162636D01*
X192771D01*
X192817Y162643D01*
X192876Y162656D01*
X192942Y162669D01*
X193007Y162695D01*
X193073Y162728D01*
X193138Y162774D01*
X193145Y162781D01*
X193165Y162800D01*
X193191Y162833D01*
X193230Y162886D01*
X193270Y162951D01*
X193302Y163037D01*
X193342Y163141D01*
X193368Y163259D01*
X194221Y163115D01*
Y163109D01*
X194214Y163089D01*
X194208Y163056D01*
X194195Y163017D01*
X194175Y162971D01*
X194155Y162912D01*
X194103Y162781D01*
X194037Y162636D01*
X193945Y162492D01*
X193834Y162348D01*
X193768Y162282D01*
X193703Y162223D01*
X193696D01*
X193683Y162210D01*
X193663Y162197D01*
X193637Y162177D01*
X193598Y162157D01*
X193552Y162131D01*
X193499Y162105D01*
X193434Y162079D01*
X193368Y162046D01*
X193289Y162020D01*
X193211Y161993D01*
X193119Y161974D01*
X193020Y161954D01*
X192915Y161941D01*
X192810Y161934D01*
X192692Y161928D01*
X192620D01*
X192574Y161934D01*
X192515Y161941D01*
X192443Y161954D01*
X192364Y161967D01*
X192279Y161987D01*
X192187Y162007D01*
X192095Y162039D01*
X191997Y162072D01*
X191905Y162118D01*
X191807Y162171D01*
X191715Y162230D01*
X191630Y162302D01*
X191544Y162381D01*
X191538Y162387D01*
X191525Y162400D01*
X191505Y162426D01*
X191479Y162466D01*
X191446Y162512D01*
X191407Y162564D01*
X191374Y162630D01*
X191334Y162708D01*
X191288Y162794D01*
X191256Y162886D01*
X191216Y162991D01*
X191183Y163102D01*
X191157Y163227D01*
X191138Y163351D01*
X191124Y163496D01*
X191118Y163640D01*
Y163647D01*
Y163673D01*
Y163719D01*
X191124Y163771D01*
X191131Y163843D01*
X191138Y163922D01*
X191151Y164007D01*
X191170Y164106D01*
X191223Y164309D01*
X191256Y164414D01*
X191295Y164519D01*
X191348Y164624D01*
X191407Y164722D01*
X191472Y164814D01*
X191544Y164906D01*
X191551Y164913D01*
X191564Y164926D01*
X191590Y164945D01*
X191623Y164978D01*
X191669Y165011D01*
X191721Y165050D01*
X191780Y165096D01*
X191853Y165136D01*
X191931Y165182D01*
X192017Y165221D01*
X192115Y165260D01*
X192220Y165293D01*
X192325Y165326D01*
X192450Y165346D01*
X192574Y165359D01*
X192705Y165365D01*
X192764D01*
X192804Y165359D01*
D02*
G37*
G36*
X176712Y163214D02*
X175000D01*
Y164086D01*
X176712D01*
Y163214D01*
D02*
G37*
G36*
X220015Y164132D02*
X221031Y165293D01*
X222101D01*
X220972Y164086D01*
X222180Y162000D01*
X221241D01*
X220408Y163476D01*
X220015Y163050D01*
Y162000D01*
X219142D01*
Y166540D01*
X220015D01*
Y164132D01*
D02*
G37*
G36*
X208837Y162768D02*
X211119D01*
Y162000D01*
X207918D01*
Y166507D01*
X208837D01*
Y162768D01*
D02*
G37*
G36*
X199239Y162000D02*
X198367D01*
Y165293D01*
X199239D01*
Y162000D01*
D02*
G37*
G36*
X195684Y164132D02*
X196701Y165293D01*
X197770D01*
X196641Y164086D01*
X197848Y162000D01*
X196910D01*
X196077Y163476D01*
X195684Y163050D01*
Y162000D01*
X194811D01*
Y166540D01*
X195684D01*
Y164132D01*
D02*
G37*
G36*
X213383Y165359D02*
X213448Y165352D01*
X213520Y165339D01*
X213606Y165326D01*
X213691Y165306D01*
X213789Y165280D01*
X213888Y165247D01*
X213986Y165208D01*
X214091Y165162D01*
X214196Y165103D01*
X214294Y165037D01*
X214393Y164965D01*
X214485Y164880D01*
X214491Y164873D01*
X214504Y164860D01*
X214531Y164827D01*
X214557Y164795D01*
X214596Y164742D01*
X214635Y164690D01*
X214681Y164618D01*
X214727Y164545D01*
X214767Y164460D01*
X214813Y164368D01*
X214852Y164263D01*
X214891Y164158D01*
X214918Y164040D01*
X214944Y163922D01*
X214957Y163791D01*
X214964Y163653D01*
Y163647D01*
Y163620D01*
Y163581D01*
X214957Y163529D01*
X214950Y163463D01*
X214937Y163391D01*
X214924Y163305D01*
X214904Y163220D01*
X214878Y163122D01*
X214845Y163023D01*
X214806Y162918D01*
X214760Y162813D01*
X214701Y162708D01*
X214635Y162610D01*
X214563Y162512D01*
X214478Y162413D01*
X214472Y162407D01*
X214458Y162394D01*
X214432Y162367D01*
X214393Y162335D01*
X214347Y162302D01*
X214288Y162262D01*
X214222Y162216D01*
X214150Y162171D01*
X214065Y162125D01*
X213973Y162079D01*
X213875Y162039D01*
X213763Y162007D01*
X213651Y161974D01*
X213527Y161948D01*
X213402Y161934D01*
X213264Y161928D01*
X213219D01*
X213186Y161934D01*
X213146D01*
X213101Y161941D01*
X212989Y161954D01*
X212851Y161980D01*
X212707Y162013D01*
X212556Y162066D01*
X212399Y162131D01*
X212392D01*
X212379Y162138D01*
X212359Y162151D01*
X212333Y162171D01*
X212261Y162216D01*
X212169Y162282D01*
X212071Y162367D01*
X211966Y162472D01*
X211867Y162590D01*
X211775Y162728D01*
Y162735D01*
X211769Y162748D01*
X211756Y162768D01*
X211743Y162800D01*
X211729Y162840D01*
X211710Y162886D01*
X211690Y162938D01*
X211670Y162997D01*
X211651Y163063D01*
X211631Y163135D01*
X211598Y163299D01*
X211572Y163489D01*
X211565Y163692D01*
Y163699D01*
Y163712D01*
Y163738D01*
X211572Y163765D01*
Y163804D01*
X211579Y163850D01*
X211592Y163961D01*
X211618Y164086D01*
X211657Y164224D01*
X211703Y164375D01*
X211775Y164526D01*
Y164532D01*
X211789Y164545D01*
X211795Y164565D01*
X211815Y164591D01*
X211867Y164663D01*
X211933Y164755D01*
X212018Y164854D01*
X212123Y164959D01*
X212241Y165057D01*
X212379Y165149D01*
X212385D01*
X212399Y165155D01*
X212418Y165168D01*
X212451Y165182D01*
X212484Y165201D01*
X212530Y165214D01*
X212582Y165234D01*
X212635Y165260D01*
X212766Y165300D01*
X212917Y165332D01*
X213081Y165359D01*
X213258Y165365D01*
X213330D01*
X213383Y165359D01*
D02*
G37*
G36*
X189051Y165359D02*
X189117Y165352D01*
X189189Y165339D01*
X189275Y165326D01*
X189360Y165306D01*
X189458Y165280D01*
X189557Y165247D01*
X189655Y165208D01*
X189760Y165162D01*
X189865Y165103D01*
X189963Y165037D01*
X190062Y164965D01*
X190154Y164880D01*
X190160Y164873D01*
X190173Y164860D01*
X190199Y164827D01*
X190226Y164795D01*
X190265Y164742D01*
X190305Y164690D01*
X190350Y164617D01*
X190396Y164545D01*
X190436Y164460D01*
X190482Y164368D01*
X190521Y164263D01*
X190560Y164158D01*
X190587Y164040D01*
X190613Y163922D01*
X190626Y163791D01*
X190632Y163653D01*
Y163647D01*
Y163620D01*
Y163581D01*
X190626Y163529D01*
X190619Y163463D01*
X190606Y163391D01*
X190593Y163305D01*
X190573Y163220D01*
X190547Y163122D01*
X190514Y163023D01*
X190475Y162918D01*
X190429Y162813D01*
X190370Y162708D01*
X190305Y162610D01*
X190232Y162512D01*
X190147Y162413D01*
X190140Y162407D01*
X190127Y162394D01*
X190101Y162367D01*
X190062Y162335D01*
X190016Y162302D01*
X189957Y162262D01*
X189891Y162216D01*
X189819Y162171D01*
X189734Y162125D01*
X189642Y162079D01*
X189543Y162039D01*
X189432Y162007D01*
X189321Y161974D01*
X189196Y161948D01*
X189071Y161934D01*
X188933Y161928D01*
X188888D01*
X188855Y161934D01*
X188815D01*
X188769Y161941D01*
X188658Y161954D01*
X188520Y161980D01*
X188376Y162013D01*
X188225Y162066D01*
X188067Y162131D01*
X188061D01*
X188048Y162138D01*
X188028Y162151D01*
X188002Y162171D01*
X187930Y162216D01*
X187838Y162282D01*
X187740Y162367D01*
X187635Y162472D01*
X187536Y162590D01*
X187444Y162728D01*
Y162735D01*
X187438Y162748D01*
X187425Y162768D01*
X187411Y162800D01*
X187398Y162840D01*
X187379Y162886D01*
X187359Y162938D01*
X187339Y162997D01*
X187320Y163063D01*
X187300Y163135D01*
X187267Y163299D01*
X187241Y163489D01*
X187234Y163692D01*
Y163699D01*
Y163712D01*
Y163738D01*
X187241Y163765D01*
Y163804D01*
X187248Y163850D01*
X187261Y163961D01*
X187287Y164086D01*
X187326Y164224D01*
X187372Y164375D01*
X187444Y164526D01*
Y164532D01*
X187457Y164545D01*
X187464Y164565D01*
X187484Y164591D01*
X187536Y164663D01*
X187602Y164755D01*
X187687Y164854D01*
X187792Y164959D01*
X187910Y165057D01*
X188048Y165149D01*
X188054D01*
X188067Y165155D01*
X188087Y165168D01*
X188120Y165182D01*
X188153Y165201D01*
X188199Y165214D01*
X188251Y165234D01*
X188304Y165260D01*
X188435Y165300D01*
X188586Y165332D01*
X188750Y165359D01*
X188927Y165365D01*
X188999D01*
X189051Y165359D01*
D02*
G37*
G36*
X205261Y165359D02*
X205307D01*
X205353Y165346D01*
X205419Y165339D01*
X205484Y165319D01*
X205557Y165300D01*
X205635Y165267D01*
X205714Y165234D01*
X205799Y165188D01*
X205885Y165136D01*
X205970Y165077D01*
X206055Y164998D01*
X206134Y164919D01*
X206212Y164821D01*
Y165293D01*
X207026D01*
Y162335D01*
Y162328D01*
Y162308D01*
Y162282D01*
Y162243D01*
Y162190D01*
X207019Y162138D01*
X207013Y162013D01*
X207000Y161869D01*
X206987Y161724D01*
X206960Y161587D01*
X206947Y161528D01*
X206927Y161469D01*
X206921Y161456D01*
X206908Y161423D01*
X206888Y161370D01*
X206855Y161305D01*
X206816Y161232D01*
X206770Y161154D01*
X206718Y161082D01*
X206652Y161016D01*
X206645Y161009D01*
X206619Y160990D01*
X206580Y160957D01*
X206534Y160924D01*
X206468Y160885D01*
X206390Y160839D01*
X206298Y160800D01*
X206193Y160760D01*
X206180Y160754D01*
X206140Y160747D01*
X206081Y160727D01*
X205996Y160714D01*
X205885Y160695D01*
X205760Y160675D01*
X205615Y160668D01*
X205458Y160662D01*
X205379D01*
X205320Y160668D01*
X205255D01*
X205176Y160675D01*
X205091Y160688D01*
X204999Y160701D01*
X204802Y160734D01*
X204605Y160786D01*
X204513Y160819D01*
X204422Y160859D01*
X204343Y160898D01*
X204271Y160950D01*
X204264Y160957D01*
X204258Y160963D01*
X204218Y161003D01*
X204159Y161062D01*
X204100Y161147D01*
X204035Y161252D01*
X203976Y161377D01*
X203936Y161521D01*
X203930Y161600D01*
X203923Y161679D01*
Y161685D01*
Y161711D01*
Y161744D01*
X203930Y161784D01*
X204927Y161665D01*
Y161659D01*
X204933Y161639D01*
X204940Y161606D01*
X204946Y161574D01*
X204979Y161495D01*
X205005Y161456D01*
X205038Y161429D01*
X205045Y161423D01*
X205065Y161416D01*
X205091Y161397D01*
X205137Y161383D01*
X205189Y161364D01*
X205255Y161344D01*
X205333Y161337D01*
X205425Y161331D01*
X205484D01*
X205543Y161337D01*
X205615Y161344D01*
X205701Y161357D01*
X205786Y161377D01*
X205865Y161403D01*
X205937Y161436D01*
X205943Y161442D01*
X205957Y161449D01*
X205976Y161462D01*
X206003Y161488D01*
X206029Y161521D01*
X206055Y161560D01*
X206081Y161606D01*
X206107Y161659D01*
Y161665D01*
X206114Y161679D01*
X206121Y161705D01*
X206134Y161751D01*
X206140Y161803D01*
X206147Y161869D01*
X206153Y161954D01*
Y162053D01*
Y162531D01*
X206147Y162525D01*
X206134Y162512D01*
X206114Y162485D01*
X206081Y162446D01*
X206048Y162407D01*
X206003Y162361D01*
X205943Y162315D01*
X205885Y162269D01*
X205819Y162216D01*
X205740Y162171D01*
X205576Y162085D01*
X205484Y162053D01*
X205386Y162026D01*
X205281Y162007D01*
X205169Y162000D01*
X205143D01*
X205104Y162007D01*
X205058D01*
X205005Y162020D01*
X204940Y162033D01*
X204868Y162046D01*
X204789Y162072D01*
X204710Y162098D01*
X204625Y162138D01*
X204533Y162184D01*
X204448Y162236D01*
X204363Y162302D01*
X204277Y162374D01*
X204199Y162459D01*
X204120Y162558D01*
Y162564D01*
X204107Y162577D01*
X204094Y162603D01*
X204074Y162636D01*
X204048Y162682D01*
X204021Y162735D01*
X203995Y162794D01*
X203969Y162866D01*
X203943Y162938D01*
X203917Y163023D01*
X203890Y163115D01*
X203864Y163214D01*
X203831Y163424D01*
X203825Y163542D01*
X203818Y163660D01*
Y163666D01*
Y163699D01*
Y163738D01*
X203825Y163797D01*
X203831Y163863D01*
X203838Y163942D01*
X203851Y164034D01*
X203871Y164126D01*
X203917Y164335D01*
X203949Y164440D01*
X203982Y164545D01*
X204028Y164644D01*
X204081Y164749D01*
X204139Y164840D01*
X204212Y164926D01*
X204218Y164932D01*
X204231Y164945D01*
X204251Y164965D01*
X204284Y164998D01*
X204323Y165031D01*
X204369Y165064D01*
X204422Y165103D01*
X204487Y165149D01*
X204553Y165188D01*
X204631Y165227D01*
X204796Y165300D01*
X204894Y165326D01*
X204992Y165346D01*
X205097Y165359D01*
X205202Y165365D01*
X205228D01*
X205261Y165359D01*
D02*
G37*
G36*
X172746Y160746D02*
X141312D01*
Y167336D01*
X172746D01*
Y160746D01*
D02*
G37*
%LPC*%
G36*
X213264Y164657D02*
X213232D01*
X213205Y164650D01*
X213146Y164644D01*
X213068Y164624D01*
X212976Y164591D01*
X212877Y164545D01*
X212779Y164480D01*
X212687Y164394D01*
X212681Y164381D01*
X212654Y164348D01*
X212615Y164283D01*
X212576Y164204D01*
X212530Y164099D01*
X212497Y163968D01*
X212471Y163817D01*
X212458Y163647D01*
Y163640D01*
Y163627D01*
Y163601D01*
X212464Y163568D01*
Y163522D01*
X212471Y163476D01*
X212484Y163371D01*
X212517Y163246D01*
X212556Y163122D01*
X212609Y162997D01*
X212687Y162892D01*
X212700Y162879D01*
X212727Y162853D01*
X212779Y162813D01*
X212851Y162768D01*
X212930Y162715D01*
X213028Y162676D01*
X213140Y162650D01*
X213264Y162636D01*
X213297D01*
X213323Y162643D01*
X213383Y162650D01*
X213461Y162669D01*
X213553Y162702D01*
X213651Y162741D01*
X213743Y162807D01*
X213835Y162892D01*
X213848Y162905D01*
X213875Y162938D01*
X213907Y163004D01*
X213953Y163082D01*
X213999Y163194D01*
X214032Y163319D01*
X214058Y163476D01*
X214071Y163647D01*
Y163653D01*
Y163666D01*
Y163692D01*
X214065Y163725D01*
Y163765D01*
X214058Y163817D01*
X214045Y163922D01*
X214012Y164040D01*
X213973Y164165D01*
X213914Y164289D01*
X213835Y164394D01*
X213822Y164408D01*
X213796Y164434D01*
X213743Y164480D01*
X213678Y164526D01*
X213593Y164571D01*
X213501Y164618D01*
X213389Y164644D01*
X213264Y164657D01*
D02*
G37*
G36*
X188933Y164657D02*
X188901D01*
X188874Y164650D01*
X188815Y164644D01*
X188737Y164624D01*
X188645Y164591D01*
X188546Y164545D01*
X188448Y164480D01*
X188356Y164394D01*
X188350Y164381D01*
X188323Y164348D01*
X188284Y164283D01*
X188245Y164204D01*
X188199Y164099D01*
X188166Y163968D01*
X188140Y163817D01*
X188127Y163647D01*
Y163640D01*
Y163627D01*
Y163601D01*
X188133Y163568D01*
Y163522D01*
X188140Y163476D01*
X188153Y163371D01*
X188186Y163246D01*
X188225Y163122D01*
X188277Y162997D01*
X188356Y162892D01*
X188369Y162879D01*
X188396Y162853D01*
X188448Y162813D01*
X188520Y162768D01*
X188599Y162715D01*
X188697Y162676D01*
X188809Y162649D01*
X188933Y162636D01*
X188966D01*
X188993Y162643D01*
X189051Y162649D01*
X189130Y162669D01*
X189222Y162702D01*
X189321Y162741D01*
X189412Y162807D01*
X189504Y162892D01*
X189517Y162905D01*
X189543Y162938D01*
X189576Y163004D01*
X189622Y163082D01*
X189668Y163194D01*
X189701Y163319D01*
X189727Y163476D01*
X189740Y163647D01*
Y163653D01*
Y163666D01*
Y163692D01*
X189734Y163725D01*
Y163765D01*
X189727Y163817D01*
X189714Y163922D01*
X189681Y164040D01*
X189642Y164165D01*
X189583Y164289D01*
X189504Y164394D01*
X189491Y164408D01*
X189465Y164434D01*
X189412Y164480D01*
X189347Y164526D01*
X189261Y164571D01*
X189170Y164617D01*
X189058Y164644D01*
X188933Y164657D01*
D02*
G37*
G36*
X205425Y164696D02*
X205412D01*
X205373Y164690D01*
X205314Y164683D01*
X205242Y164663D01*
X205163Y164637D01*
X205071Y164591D01*
X204986Y164532D01*
X204907Y164447D01*
X204901Y164434D01*
X204874Y164401D01*
X204848Y164342D01*
X204809Y164263D01*
X204776Y164158D01*
X204743Y164034D01*
X204717Y163883D01*
X204710Y163706D01*
Y163699D01*
Y163686D01*
Y163653D01*
X204717Y163620D01*
Y163581D01*
X204723Y163529D01*
X204736Y163417D01*
X204756Y163292D01*
X204796Y163168D01*
X204841Y163050D01*
X204907Y162945D01*
X204914Y162932D01*
X204946Y162905D01*
X204986Y162866D01*
X205045Y162827D01*
X205117Y162781D01*
X205202Y162741D01*
X205301Y162715D01*
X205406Y162702D01*
X205419D01*
X205458Y162708D01*
X205517Y162715D01*
X205596Y162735D01*
X205681Y162761D01*
X205766Y162807D01*
X205858Y162866D01*
X205943Y162951D01*
X205950Y162964D01*
X205976Y162997D01*
X206016Y163056D01*
X206055Y163135D01*
X206094Y163240D01*
X206134Y163365D01*
X206160Y163515D01*
X206167Y163686D01*
Y163692D01*
Y163706D01*
Y163732D01*
Y163771D01*
X206160Y163811D01*
X206153Y163863D01*
X206140Y163975D01*
X206114Y164099D01*
X206081Y164224D01*
X206029Y164342D01*
X205957Y164447D01*
X205950Y164460D01*
X205917Y164486D01*
X205871Y164526D01*
X205812Y164571D01*
X205734Y164618D01*
X205642Y164657D01*
X205543Y164683D01*
X205425Y164696D01*
D02*
G37*
G36*
X160302Y166046D02*
X158961D01*
X160302D01*
D01*
D02*
G37*
G36*
X166513Y166155D02*
X166448D01*
X166331Y166148D01*
X166214Y166141D01*
X166112Y166126D01*
X166025Y166112D01*
X165945Y166090D01*
X165894Y166075D01*
X165857Y166068D01*
X165843Y166060D01*
X165741Y166024D01*
X165653Y165980D01*
X165573Y165937D01*
X165500Y165893D01*
X165449Y165856D01*
X165405Y165827D01*
X165376Y165805D01*
X165369Y165798D01*
X165296Y165733D01*
X165237Y165667D01*
X165187Y165609D01*
X165143Y165543D01*
X165106Y165492D01*
X165084Y165448D01*
X165070Y165419D01*
X165063Y165412D01*
X165026Y165331D01*
X164997Y165244D01*
X164982Y165164D01*
X164968Y165091D01*
X164961Y165033D01*
X164953Y164982D01*
Y164952D01*
Y164938D01*
Y164858D01*
X164968Y164778D01*
X164975Y164712D01*
X164990Y164646D01*
X165004Y164602D01*
X165012Y164559D01*
X165026Y164537D01*
Y164530D01*
X165084Y164406D01*
X165121Y164355D01*
X165150Y164311D01*
X165172Y164267D01*
X165194Y164238D01*
X165208Y164224D01*
X165216Y164216D01*
X165310Y164121D01*
X165398Y164049D01*
X165434Y164019D01*
X165463Y164005D01*
X165485Y163990D01*
X165493Y163983D01*
X165609Y163917D01*
X165668Y163888D01*
X165719Y163866D01*
X165762Y163852D01*
X165792Y163837D01*
X165813Y163822D01*
X165821D01*
X166346Y163596D01*
X166455Y163560D01*
X166535Y163524D01*
X166572Y163516D01*
X166594Y163502D01*
X166608Y163495D01*
X166615D01*
X166695Y163458D01*
X166761Y163429D01*
X166798Y163400D01*
X166812Y163392D01*
X166863Y163349D01*
X166907Y163312D01*
X166929Y163283D01*
X166936Y163268D01*
X166965Y163217D01*
X166972Y163166D01*
X166980Y163123D01*
Y163115D01*
Y163108D01*
X166972Y163042D01*
X166958Y162984D01*
X166936Y162933D01*
X166907Y162897D01*
X166878Y162860D01*
X166856Y162838D01*
X166841Y162824D01*
X166834Y162817D01*
X166776Y162780D01*
X166703Y162758D01*
X166550Y162729D01*
X166477Y162722D01*
X166419Y162714D01*
X166367D01*
X166265Y162722D01*
X166171Y162736D01*
X166076Y162751D01*
X165996Y162773D01*
X165923Y162795D01*
X165872Y162817D01*
X165835Y162824D01*
X165821Y162831D01*
X165719Y162882D01*
X165631Y162933D01*
X165544Y162984D01*
X165471Y163035D01*
X165405Y163079D01*
X165361Y163115D01*
X165325Y163137D01*
X165318Y163145D01*
X164786Y162510D01*
X164917Y162408D01*
X165041Y162321D01*
X165165Y162241D01*
X165281Y162182D01*
X165376Y162131D01*
X165456Y162102D01*
X165485Y162088D01*
X165507Y162080D01*
X165515Y162073D01*
X165522D01*
X165675Y162022D01*
X165821Y161985D01*
X165959Y161964D01*
X166083Y161949D01*
X166185Y161934D01*
X166265Y161927D01*
X164786D01*
X167928D01*
X166338D01*
X166477Y161934D01*
X166608Y161942D01*
X166725Y161956D01*
X166819Y161978D01*
X166907Y162000D01*
X166965Y162015D01*
X167002Y162022D01*
X167016Y162029D01*
X167126Y162073D01*
X167220Y162117D01*
X167308Y162160D01*
X167374Y162204D01*
X167432Y162241D01*
X167475Y162270D01*
X167505Y162292D01*
X167512Y162299D01*
X167585Y162364D01*
X167643Y162437D01*
X167701Y162503D01*
X167745Y162569D01*
X167774Y162620D01*
X167796Y162663D01*
X167811Y162693D01*
X167818Y162700D01*
X167855Y162787D01*
X167884Y162875D01*
X167898Y162955D01*
X167913Y163028D01*
X167920Y163093D01*
X167928Y163145D01*
Y163188D01*
X167920Y163341D01*
X167891Y163480D01*
X167855Y163596D01*
X167811Y163699D01*
X167760Y163779D01*
X167723Y163830D01*
X167694Y163866D01*
X167687Y163881D01*
X167592Y163976D01*
X167490Y164056D01*
X167381Y164129D01*
X167286Y164187D01*
X167191Y164231D01*
X167118Y164267D01*
X167089Y164282D01*
X167067Y164289D01*
X167060Y164296D01*
X167053D01*
X166557Y164508D01*
X166448Y164544D01*
X166353Y164588D01*
X166273Y164617D01*
X166200Y164646D01*
X166141Y164668D01*
X166105Y164690D01*
X166076Y164697D01*
X166069Y164705D01*
X166010Y164741D01*
X165966Y164792D01*
X165930Y164836D01*
X165908Y164880D01*
X165894Y164923D01*
X165886Y164960D01*
Y164982D01*
Y164989D01*
X165894Y165055D01*
X165908Y165105D01*
X165930Y165149D01*
X165959Y165193D01*
X165988Y165222D01*
X166010Y165244D01*
X166025Y165251D01*
X166032Y165259D01*
X166090Y165295D01*
X166156Y165317D01*
X166295Y165346D01*
X166353Y165353D01*
X166404Y165361D01*
X166542D01*
X166630Y165346D01*
X166710Y165331D01*
X166783Y165317D01*
X166834Y165302D01*
X166878Y165288D01*
X166907Y165280D01*
X166914Y165273D01*
X166994Y165237D01*
X167067Y165200D01*
X167140Y165164D01*
X167206Y165120D01*
X167257Y165091D01*
X167301Y165062D01*
X167330Y165040D01*
X167337Y165033D01*
X167804Y165616D01*
X167694Y165711D01*
X167592Y165791D01*
X167483Y165856D01*
X167388Y165915D01*
X167301Y165958D01*
X167235Y165995D01*
X167191Y166009D01*
X167184Y166017D01*
X167177D01*
X167045Y166060D01*
X166914Y166097D01*
X166790Y166119D01*
X166681Y166141D01*
X166586Y166148D01*
X166513Y166155D01*
D02*
G37*
G36*
X147705D02*
X147640D01*
X147523Y166148D01*
X147406Y166141D01*
X147304Y166126D01*
X147217Y166112D01*
X147136Y166090D01*
X147085Y166075D01*
X147049Y166068D01*
X147034Y166060D01*
X146932Y166024D01*
X146845Y165980D01*
X146765Y165937D01*
X146692Y165893D01*
X146641Y165856D01*
X146597Y165827D01*
X146568Y165805D01*
X146561Y165798D01*
X146488Y165733D01*
X146429Y165667D01*
X146378Y165609D01*
X146335Y165543D01*
X146298Y165492D01*
X146276Y165448D01*
X146262Y165419D01*
X146254Y165412D01*
X146218Y165331D01*
X146189Y165244D01*
X146174Y165164D01*
X146160Y165091D01*
X146152Y165033D01*
X146145Y164982D01*
Y164952D01*
Y164938D01*
Y164858D01*
X146160Y164778D01*
X146167Y164712D01*
X146181Y164646D01*
X146196Y164602D01*
X146203Y164559D01*
X146218Y164537D01*
Y164530D01*
X146276Y164406D01*
X146313Y164355D01*
X146342Y164311D01*
X146364Y164267D01*
X146386Y164238D01*
X146400Y164224D01*
X146407Y164216D01*
X146502Y164121D01*
X146590Y164049D01*
X146626Y164019D01*
X146655Y164005D01*
X146677Y163990D01*
X146685Y163983D01*
X146801Y163917D01*
X146859Y163888D01*
X146910Y163866D01*
X146954Y163852D01*
X146983Y163837D01*
X147005Y163822D01*
X147012D01*
X147537Y163596D01*
X147647Y163560D01*
X147727Y163524D01*
X147763Y163516D01*
X147785Y163502D01*
X147800Y163495D01*
X147807D01*
X147887Y163458D01*
X147953Y163429D01*
X147989Y163400D01*
X148004Y163392D01*
X148055Y163349D01*
X148099Y163312D01*
X148121Y163283D01*
X148128Y163268D01*
X148157Y163217D01*
X148164Y163166D01*
X148172Y163123D01*
Y163115D01*
Y163108D01*
X148164Y163042D01*
X148150Y162984D01*
X148128Y162933D01*
X148099Y162897D01*
X148070Y162860D01*
X148048Y162838D01*
X148033Y162824D01*
X148026Y162817D01*
X147968Y162780D01*
X147895Y162758D01*
X147741Y162729D01*
X147669Y162722D01*
X147610Y162714D01*
X147559D01*
X147457Y162722D01*
X147362Y162736D01*
X147268Y162751D01*
X147187Y162773D01*
X147115Y162795D01*
X147064Y162817D01*
X147027Y162824D01*
X147012Y162831D01*
X146910Y162882D01*
X146823Y162933D01*
X146736Y162984D01*
X146663Y163035D01*
X146597Y163079D01*
X146553Y163115D01*
X146517Y163137D01*
X146510Y163145D01*
X145977Y162510D01*
X146108Y162408D01*
X146232Y162321D01*
X146356Y162241D01*
X146473Y162182D01*
X146568Y162131D01*
X146648Y162102D01*
X146677Y162088D01*
X146699Y162080D01*
X146706Y162073D01*
X146714D01*
X146867Y162022D01*
X147012Y161985D01*
X147151Y161964D01*
X147275Y161949D01*
X147377Y161934D01*
X147457Y161927D01*
X145977D01*
X149119D01*
Y163188D01*
X149112Y163341D01*
X149083Y163480D01*
X149046Y163596D01*
X149003Y163699D01*
X148952Y163779D01*
X148915Y163830D01*
X148886Y163866D01*
X148879Y163881D01*
X148784Y163976D01*
X148682Y164056D01*
X148573Y164129D01*
X148478Y164187D01*
X148383Y164231D01*
X148310Y164267D01*
X148281Y164282D01*
X148259Y164289D01*
X148252Y164296D01*
X148245D01*
X147749Y164508D01*
X147640Y164544D01*
X147545Y164588D01*
X147465Y164617D01*
X147392Y164646D01*
X147333Y164668D01*
X147297Y164690D01*
X147268Y164697D01*
X147260Y164705D01*
X147202Y164741D01*
X147158Y164792D01*
X147122Y164836D01*
X147100Y164880D01*
X147085Y164923D01*
X147078Y164960D01*
Y164982D01*
Y164989D01*
X147085Y165055D01*
X147100Y165105D01*
X147122Y165149D01*
X147151Y165193D01*
X147180Y165222D01*
X147202Y165244D01*
X147217Y165251D01*
X147224Y165259D01*
X147282Y165295D01*
X147348Y165317D01*
X147486Y165346D01*
X147545Y165353D01*
X147596Y165361D01*
X147734D01*
X147822Y165346D01*
X147902Y165331D01*
X147975Y165317D01*
X148026Y165302D01*
X148070Y165288D01*
X148099Y165280D01*
X148106Y165273D01*
X148186Y165237D01*
X148259Y165200D01*
X148332Y165164D01*
X148398Y165120D01*
X148449Y165091D01*
X148492Y165062D01*
X148521Y165040D01*
X148529Y165033D01*
X148995Y165616D01*
X148886Y165711D01*
X148784Y165791D01*
X148675Y165856D01*
X148580Y165915D01*
X148492Y165958D01*
X148427Y165995D01*
X148383Y166009D01*
X148376Y166017D01*
X148369D01*
X148237Y166060D01*
X148106Y166097D01*
X147982Y166119D01*
X147873Y166141D01*
X147778Y166148D01*
X147705Y166155D01*
D02*
G37*
G36*
X163692Y164187D02*
X161490D01*
Y163495D01*
X163692D01*
Y164187D01*
D02*
G37*
G36*
X171565Y166046D02*
X169969Y166046D01*
X169823Y166039D01*
X169692Y166024D01*
X169568Y166002D01*
X169458Y165980D01*
X169364Y165951D01*
X169298Y165929D01*
X169254Y165915D01*
X169247Y165907D01*
X169240D01*
X169116Y165856D01*
X168999Y165798D01*
X168897Y165733D01*
X168802Y165674D01*
X168722Y165623D01*
X168664Y165579D01*
X168627Y165550D01*
X168613Y165543D01*
X169079Y164974D01*
X169152Y165033D01*
X169225Y165084D01*
X169298Y165127D01*
X169356Y165164D01*
X169407Y165193D01*
X169444Y165215D01*
X169473Y165222D01*
X169480Y165229D01*
X169561Y165259D01*
X169633Y165288D01*
X169714Y165302D01*
X169779Y165310D01*
X169837Y165317D01*
X169881Y165324D01*
X169925D01*
X170020Y165317D01*
X170107Y165310D01*
X170180Y165288D01*
X170238Y165266D01*
X170282Y165244D01*
X170319Y165229D01*
X170341Y165215D01*
X170348Y165208D01*
X170399Y165164D01*
X170443Y165113D01*
X170472Y165062D01*
X170486Y165004D01*
X170501Y164960D01*
X170508Y164923D01*
Y164894D01*
Y164887D01*
X170501Y164807D01*
X170472Y164726D01*
X170435Y164661D01*
X170391Y164610D01*
X170341Y164559D01*
X170304Y164530D01*
X170275Y164508D01*
X170268Y164500D01*
X170217Y164479D01*
X170166Y164449D01*
X170034Y164413D01*
X169896Y164391D01*
X169765Y164376D01*
X169633Y164362D01*
X169582D01*
X169531Y164355D01*
X169437D01*
Y163706D01*
X169568D01*
X169677Y163699D01*
X169779Y163691D01*
X169859Y163684D01*
X169932Y163677D01*
X169976Y163669D01*
X170012Y163662D01*
X170020D01*
X170100Y163647D01*
X170180Y163633D01*
X170238Y163611D01*
X170297Y163596D01*
X170333Y163575D01*
X170370Y163567D01*
X170384Y163553D01*
X170391D01*
X170443Y163524D01*
X170479Y163495D01*
X170516Y163465D01*
X170537Y163436D01*
X170574Y163392D01*
X170581Y163378D01*
Y163371D01*
X170617Y163290D01*
X170632Y163217D01*
X170639Y163181D01*
Y163159D01*
Y163145D01*
Y163137D01*
X170632Y163057D01*
X170610Y162984D01*
X170574Y162926D01*
X170537Y162875D01*
X170494Y162838D01*
X170464Y162809D01*
X170435Y162795D01*
X170428Y162787D01*
X170348Y162744D01*
X170260Y162714D01*
X170173Y162693D01*
X170085Y162678D01*
X170012Y162671D01*
X169954Y162663D01*
X169896D01*
X169794Y162671D01*
X169699Y162678D01*
X169612Y162700D01*
X169531Y162722D01*
X169466Y162736D01*
X169415Y162758D01*
X169386Y162766D01*
X169371Y162773D01*
X169283Y162817D01*
X169196Y162867D01*
X169123Y162918D01*
X169058Y162962D01*
X168999Y163006D01*
X168963Y163035D01*
X168933Y163057D01*
X168926Y163064D01*
X168503Y162488D01*
X168591Y162394D01*
X168693Y162313D01*
X168795Y162241D01*
X168890Y162182D01*
X168970Y162138D01*
X169043Y162102D01*
X169087Y162080D01*
X169094Y162073D01*
X169101D01*
X169247Y162022D01*
X169393Y161985D01*
X169546Y161964D01*
X169684Y161949D01*
X169801Y161934D01*
X169852D01*
X169896Y161927D01*
X170100D01*
X170209Y161942D01*
X170311Y161949D01*
X170399Y161964D01*
X170472Y161978D01*
X170530Y161985D01*
X170566Y162000D01*
X170581D01*
X170683Y162036D01*
X170785Y162073D01*
X170865Y162109D01*
X170946Y162146D01*
X171004Y162175D01*
X171048Y162204D01*
X171077Y162219D01*
X171084Y162226D01*
X171164Y162284D01*
X171230Y162343D01*
X171288Y162401D01*
X171339Y162459D01*
X171383Y162510D01*
X171412Y162547D01*
X171427Y162576D01*
X171434Y162583D01*
X171478Y162671D01*
X171507Y162751D01*
X171536Y162838D01*
X171551Y162911D01*
X171558Y162977D01*
X171565Y163035D01*
Y163079D01*
X171551Y163217D01*
X171521Y163341D01*
X171485Y163451D01*
X171434Y163538D01*
X171383Y163611D01*
X171346Y163662D01*
X171317Y163699D01*
X171303Y163706D01*
X171201Y163793D01*
X171099Y163866D01*
X170989Y163925D01*
X170895Y163968D01*
X170807Y164005D01*
X170741Y164027D01*
X170690Y164041D01*
X170683Y164049D01*
X170676D01*
Y164078D01*
X170800Y164136D01*
X170916Y164194D01*
X171011Y164253D01*
X171084Y164304D01*
X171150Y164355D01*
X171193Y164391D01*
X171223Y164420D01*
X171230Y164428D01*
X171295Y164515D01*
X171346Y164602D01*
X171383Y164690D01*
X171412Y164778D01*
X171427Y164850D01*
X171434Y164909D01*
Y164945D01*
Y164960D01*
X171427Y165055D01*
X171419Y165142D01*
X171398Y165222D01*
X171383Y165288D01*
X171361Y165346D01*
X171339Y165383D01*
X171332Y165412D01*
X171325Y165419D01*
X171281Y165492D01*
X171230Y165558D01*
X171179Y165616D01*
X171128Y165667D01*
X171084Y165711D01*
X171048Y165740D01*
X171026Y165754D01*
X171019Y165762D01*
X170946Y165813D01*
X170865Y165856D01*
X170792Y165893D01*
X170720Y165922D01*
X170654Y165944D01*
X170603Y165958D01*
X170574Y165973D01*
X170559D01*
X170355Y166017D01*
X170253Y166031D01*
X170166Y166039D01*
X170085Y166046D01*
X171565Y166046D01*
D02*
G37*
G36*
X156519Y166046D02*
X154922D01*
X154776Y166039D01*
X154645Y166024D01*
X154521Y166002D01*
X154412Y165980D01*
X154317Y165951D01*
X154252Y165929D01*
X154208Y165915D01*
X154200Y165907D01*
X154193D01*
X154069Y165856D01*
X153953Y165798D01*
X153850Y165733D01*
X153756Y165674D01*
X153676Y165623D01*
X153617Y165579D01*
X153581Y165550D01*
X153566Y165543D01*
X154033Y164974D01*
X154106Y165033D01*
X154179Y165084D01*
X154252Y165127D01*
X154310Y165164D01*
X154361Y165193D01*
X154397Y165215D01*
X154426Y165222D01*
X154434Y165229D01*
X154514Y165259D01*
X154587Y165288D01*
X154667Y165302D01*
X154733Y165310D01*
X154791Y165317D01*
X154835Y165324D01*
X154878D01*
X154973Y165317D01*
X155061Y165310D01*
X155134Y165288D01*
X155192Y165266D01*
X155236Y165244D01*
X155272Y165229D01*
X155294Y165215D01*
X155301Y165208D01*
X155352Y165164D01*
X155396Y165113D01*
X155425Y165062D01*
X155440Y165004D01*
X155454Y164960D01*
X155462Y164923D01*
Y164894D01*
Y164887D01*
X155454Y164807D01*
X155425Y164726D01*
X155389Y164661D01*
X155345Y164610D01*
X155294Y164559D01*
X155257Y164530D01*
X155228Y164508D01*
X155221Y164500D01*
X155170Y164479D01*
X155119Y164449D01*
X154988Y164413D01*
X154849Y164391D01*
X154718Y164376D01*
X154587Y164362D01*
X154536D01*
X154485Y164355D01*
X154390D01*
Y163706D01*
X154521D01*
X154631Y163699D01*
X154733Y163691D01*
X154813Y163684D01*
X154886Y163677D01*
X154929Y163669D01*
X154966Y163662D01*
X154973D01*
X155053Y163647D01*
X155134Y163633D01*
X155192Y163611D01*
X155250Y163596D01*
X155287Y163575D01*
X155323Y163567D01*
X155338Y163553D01*
X155345D01*
X155396Y163524D01*
X155432Y163495D01*
X155469Y163465D01*
X155491Y163436D01*
X155527Y163392D01*
X155535Y163378D01*
Y163371D01*
X155571Y163290D01*
X155586Y163217D01*
X155593Y163181D01*
Y163159D01*
Y163145D01*
Y163137D01*
X155586Y163057D01*
X155564Y162984D01*
X155527Y162926D01*
X155491Y162875D01*
X155447Y162838D01*
X155418Y162809D01*
X155389Y162795D01*
X155381Y162787D01*
X155301Y162744D01*
X155214Y162714D01*
X155126Y162693D01*
X155039Y162678D01*
X154966Y162671D01*
X154908Y162663D01*
X154849D01*
X154747Y162671D01*
X154652Y162678D01*
X154565Y162700D01*
X154485Y162722D01*
X154419Y162736D01*
X154368Y162758D01*
X154339Y162766D01*
X154324Y162773D01*
X154237Y162817D01*
X154149Y162867D01*
X154077Y162918D01*
X154011Y162962D01*
X153953Y163006D01*
X153916Y163035D01*
X153887Y163057D01*
X153880Y163064D01*
X153457Y162488D01*
D01*
X153544Y162394D01*
X153646Y162313D01*
X153749Y162241D01*
X153843Y162182D01*
X153923Y162138D01*
X153996Y162102D01*
X154040Y162080D01*
X154047Y162073D01*
X154055D01*
X154200Y162022D01*
X154346Y161985D01*
X154499Y161964D01*
X154638Y161949D01*
X154754Y161934D01*
X154806D01*
X154849Y161927D01*
X155053D01*
X155163Y161942D01*
X155265Y161949D01*
X155352Y161964D01*
X155425Y161978D01*
X155483Y161985D01*
X155520Y162000D01*
X155535D01*
X155637Y162036D01*
X155739Y162073D01*
X155819Y162109D01*
X155899Y162146D01*
X155957Y162175D01*
X156001Y162204D01*
X156030Y162219D01*
X156037Y162226D01*
X156118Y162284D01*
X156183Y162343D01*
X156242Y162401D01*
X156293Y162459D01*
X156336Y162510D01*
X156366Y162547D01*
X156380Y162576D01*
X156387Y162583D01*
X156431Y162671D01*
X156460Y162751D01*
X156490Y162838D01*
X156504Y162911D01*
X156511Y162977D01*
X156519Y163035D01*
Y162146D01*
Y163079D01*
X156504Y163217D01*
X156475Y163341D01*
X156439Y163451D01*
X156387Y163538D01*
X156336Y163611D01*
X156300Y163662D01*
X156271Y163699D01*
X156256Y163706D01*
X156154Y163793D01*
X156052Y163866D01*
X155943Y163925D01*
X155848Y163968D01*
X155761Y164005D01*
X155695Y164027D01*
X155644Y164041D01*
X155637Y164049D01*
X155629D01*
Y164078D01*
X155753Y164136D01*
X155870Y164194D01*
X155965Y164253D01*
X156037Y164304D01*
X156103Y164355D01*
X156147Y164391D01*
X156176Y164420D01*
X156183Y164428D01*
X156249Y164515D01*
X156300Y164602D01*
X156336Y164690D01*
X156366Y164778D01*
X156380Y164850D01*
X156387Y164909D01*
Y164945D01*
Y164960D01*
X156380Y165055D01*
X156373Y165142D01*
X156351Y165222D01*
X156336Y165288D01*
X156315Y165346D01*
X156293Y165383D01*
X156285Y165412D01*
X156278Y165419D01*
X156234Y165492D01*
X156183Y165558D01*
X156132Y165616D01*
X156081Y165667D01*
X156037Y165711D01*
X156001Y165740D01*
X155979Y165754D01*
X155972Y165762D01*
X155899Y165813D01*
X155819Y165856D01*
X155746Y165893D01*
X155673Y165922D01*
X155607Y165944D01*
X155556Y165958D01*
X155527Y165973D01*
X155513D01*
X155308Y166017D01*
X155207Y166031D01*
X155119Y166039D01*
X155039Y166046D01*
X156519D01*
D02*
G37*
G36*
X152983Y166082D02*
X149892D01*
Y162000D01*
X150811D01*
Y163378D01*
X151386D01*
X151503Y163385D01*
X151620Y163392D01*
X151722Y163407D01*
X151809Y163422D01*
X151882Y163436D01*
X151941Y163443D01*
X151977Y163458D01*
X151992D01*
X152101Y163495D01*
X152196Y163538D01*
X152283Y163575D01*
X152356Y163618D01*
X152414Y163655D01*
X152465Y163684D01*
X152495Y163706D01*
X152502Y163713D01*
X152582Y163779D01*
X152648Y163852D01*
X152706Y163925D01*
X152757Y163990D01*
X152801Y164049D01*
X152830Y164100D01*
X152845Y164129D01*
X152852Y164143D01*
X152895Y164245D01*
X152925Y164355D01*
X152954Y164457D01*
X152968Y164551D01*
X152976Y164639D01*
X152983Y164705D01*
Y162102D01*
Y164705D01*
Y164763D01*
X152976Y164894D01*
X152961Y165018D01*
X152939Y165120D01*
X152917Y165215D01*
X152895Y165288D01*
X152874Y165339D01*
X152859Y165368D01*
X152852Y165383D01*
X152801Y165470D01*
X152750Y165558D01*
X152691Y165623D01*
X152633Y165681D01*
X152582Y165733D01*
X152546Y165762D01*
X152516Y165784D01*
X152509Y165791D01*
X152429Y165849D01*
X152341Y165893D01*
X152254Y165937D01*
X152181Y165966D01*
X152108Y165988D01*
X152057Y166002D01*
X152021Y166017D01*
X152006D01*
X151787Y166053D01*
X151685Y166068D01*
X151591Y166075D01*
X151503Y166082D01*
X152983D01*
D02*
G37*
G36*
X158742Y166046D02*
X158691D01*
X158531Y166039D01*
X158458Y166031D01*
X158392Y166024D01*
X158341Y166017D01*
X158305Y166009D01*
X158276Y166002D01*
X158268D01*
X158130Y165966D01*
X158071Y165951D01*
X158013Y165929D01*
X157969Y165915D01*
X157933Y165900D01*
X157911Y165893D01*
X157904Y165886D01*
X157780Y165827D01*
X157729Y165791D01*
X157678Y165762D01*
X157641Y165733D01*
X157612Y165711D01*
X157590Y165696D01*
X157583Y165689D01*
X157466Y165601D01*
X157372Y165514D01*
X157328Y165477D01*
X157299Y165448D01*
X157277Y165426D01*
X157270Y165419D01*
X157765Y164923D01*
X157896Y165033D01*
X157955Y165084D01*
X158013Y165120D01*
X158057Y165157D01*
X158093Y165178D01*
X158123Y165193D01*
X158130Y165200D01*
X158203Y165244D01*
X158283Y165273D01*
X158356Y165295D01*
X158421Y165310D01*
X158480Y165317D01*
X158523Y165324D01*
X158567D01*
X158677Y165317D01*
X158771Y165302D01*
X158859Y165273D01*
X158924Y165251D01*
X158975Y165222D01*
X159019Y165193D01*
X159041Y165178D01*
X159048Y165171D01*
X159107Y165105D01*
X159143Y165040D01*
X159172Y164967D01*
X159194Y164894D01*
X159209Y164829D01*
X159216Y164778D01*
Y164741D01*
Y164726D01*
X159209Y164646D01*
X159194Y164566D01*
X159172Y164493D01*
X159150Y164420D01*
X159121Y164362D01*
X159099Y164318D01*
X159085Y164289D01*
X159078Y164275D01*
X159026Y164187D01*
X158961Y164100D01*
X158895Y164012D01*
X158837Y163939D01*
X158779Y163866D01*
X158735Y163815D01*
X158706Y163786D01*
X158691Y163771D01*
X158596Y163669D01*
X158494Y163567D01*
X158392Y163465D01*
X158297Y163378D01*
X158217Y163305D01*
X158152Y163239D01*
X158108Y163203D01*
X158101Y163196D01*
X158093Y163188D01*
X157962Y163072D01*
X157824Y162955D01*
X157692Y162846D01*
X157576Y162744D01*
X157466Y162656D01*
X157386Y162583D01*
X157357Y162561D01*
X157335Y162540D01*
X157321Y162532D01*
X157313Y162525D01*
Y162000D01*
X160302D01*
Y162773D01*
D01*
X159238D01*
X159121Y162766D01*
X159078D01*
X159041Y162758D01*
X159005D01*
X158866Y162744D01*
X158800D01*
X158749Y162736D01*
X158706Y162729D01*
X158669D01*
X158647Y162722D01*
X158640D01*
X158742Y162817D01*
X158844Y162911D01*
X158939Y162999D01*
X159019Y163072D01*
X159092Y163137D01*
X159143Y163188D01*
X159172Y163217D01*
X159187Y163232D01*
X159282Y163327D01*
X159369Y163422D01*
X159449Y163509D01*
X159522Y163589D01*
X159573Y163655D01*
X159617Y163706D01*
X159646Y163735D01*
X159653Y163750D01*
X159726Y163844D01*
X159792Y163939D01*
X159843Y164027D01*
X159894Y164107D01*
X159923Y164172D01*
X159952Y164224D01*
X159967Y164253D01*
X159974Y164267D01*
X160018Y164362D01*
X160047Y164457D01*
X160069Y164544D01*
X160083Y164624D01*
X160091Y164690D01*
X160098Y164741D01*
Y164770D01*
Y164785D01*
X160091Y164887D01*
X160083Y164989D01*
X160062Y165076D01*
X160047Y165149D01*
X160025Y165215D01*
X160003Y165259D01*
X159996Y165295D01*
X159989Y165302D01*
X159945Y165390D01*
X159901Y165463D01*
X159857Y165528D01*
X159807Y165587D01*
X159770Y165630D01*
X159734Y165667D01*
X159712Y165689D01*
X159704Y165696D01*
X159632Y165754D01*
X159559Y165805D01*
X159486Y165849D01*
X159413Y165886D01*
X159354Y165915D01*
X159303Y165937D01*
X159274Y165944D01*
X159260Y165951D01*
X159165Y165980D01*
X159063Y166009D01*
X158968Y166024D01*
X158881Y166031D01*
X158800Y166039D01*
X158742Y166046D01*
D02*
G37*
G36*
X145248Y166082D02*
X142493D01*
Y162000D01*
X145248D01*
Y162838D01*
Y162773D01*
X143419D01*
Y163713D01*
X144920D01*
Y164486D01*
X143419D01*
Y165302D01*
X145190D01*
Y166082D01*
X145248D01*
D02*
G37*
G36*
X168503Y166046D02*
D01*
Y161927D01*
Y166046D01*
D01*
D02*
G37*
G36*
X164786Y166155D02*
Y161927D01*
D01*
Y166155D01*
D02*
G37*
%LPD*%
G36*
X149119Y161927D02*
X147530D01*
X147669Y161934D01*
X147800Y161942D01*
X147916Y161956D01*
X148011Y161978D01*
X148099Y162000D01*
X148157Y162015D01*
X148194Y162022D01*
X148208Y162029D01*
X148317Y162073D01*
X148412Y162117D01*
X148500Y162160D01*
X148565Y162204D01*
X148624Y162241D01*
X148667Y162270D01*
X148696Y162292D01*
X148704Y162299D01*
X148777Y162364D01*
X148835Y162437D01*
X148893Y162503D01*
X148937Y162569D01*
X148966Y162620D01*
X148988Y162663D01*
X149003Y162693D01*
X149010Y162700D01*
X149046Y162787D01*
X149076Y162875D01*
X149090Y162955D01*
X149105Y163028D01*
X149112Y163093D01*
X149119Y163145D01*
Y161927D01*
D02*
G37*
G36*
X151459Y165339D02*
X151569Y165324D01*
X151663Y165302D01*
X151744Y165280D01*
X151802Y165259D01*
X151846Y165237D01*
X151875Y165222D01*
X151882Y165215D01*
X151948Y165157D01*
X151992Y165091D01*
X152028Y165018D01*
X152050Y164938D01*
X152065Y164872D01*
X152072Y164814D01*
Y164778D01*
Y164770D01*
Y164763D01*
X152065Y164646D01*
X152043Y164551D01*
X152006Y164464D01*
X151955Y164391D01*
X151897Y164325D01*
X151839Y164275D01*
X151773Y164231D01*
X151700Y164194D01*
X151634Y164165D01*
X151561Y164151D01*
X151503Y164136D01*
X151445Y164121D01*
X151394D01*
X151357Y164114D01*
X150811D01*
Y165346D01*
X151328D01*
X151459Y165339D01*
D02*
G37*
D10*
X176500Y165500D02*
G03*
X166592Y168500I-4500J3000D01*
G01*
X174121Y166379D02*
G03*
X169000Y168500I-2121J2121D01*
G01*
X362685Y228500D02*
G03*
X362685Y228500I-19685J0D01*
G01*
X133118Y255958D02*
G03*
X133118Y255958I-1000J0D01*
G01*
X340799Y321602D02*
G03*
X340799Y321602I-492J0D01*
G01*
X278335Y278500D02*
G03*
X272335Y278500I-3000J0D01*
G01*
X336245Y375706D02*
Y377166D01*
X329356D02*
X336245D01*
X329356Y372246D02*
Y377166D01*
X346077Y377177D02*
X352966D01*
X323557Y401980D02*
X358754D01*
X355845Y371173D02*
X356683D01*
X326317D02*
X326466D01*
X346077Y375430D02*
Y377177D01*
X358754Y396558D02*
Y401980D01*
Y380811D02*
Y386930D01*
X323557Y396583D02*
Y401980D01*
Y380836D02*
Y386905D01*
X314500Y182000D02*
X320500D01*
X314500Y178000D02*
Y182000D01*
X306500Y178000D02*
X314500D01*
X306500D02*
Y182000D01*
X304500D02*
X306500D01*
X304500Y178055D02*
Y182000D01*
X302500Y162291D02*
X308500D01*
X266666Y178134D02*
Y182000D01*
Y178134D02*
X266721Y178079D01*
X274422D01*
X274366Y178134D02*
X274422Y178079D01*
X276618Y178055D02*
Y182000D01*
Y178055D02*
X283965D01*
X284020Y178110D01*
Y182000D01*
X284067D02*
X286422D01*
X286477Y178079D02*
Y182000D01*
X286555Y178079D02*
X294382D01*
X294406Y178102D01*
Y182000D01*
X296555D01*
X296611Y178055D02*
Y182000D01*
Y178055D02*
X304500D01*
X320500Y152512D02*
Y182000D01*
X308500Y152512D02*
X320500D01*
X308500D02*
Y162291D01*
X302500Y152465D02*
Y162291D01*
X278500Y152465D02*
X302500D01*
X278500D02*
Y162087D01*
X272500D02*
X278500D01*
X272500Y152362D02*
Y162087D01*
X259910Y152362D02*
X272500D01*
X259807Y152465D02*
X259910Y152362D01*
X274366Y182000D02*
X276618D01*
X274366Y178134D02*
Y182000D01*
X263611D02*
X266666D01*
X261319Y179709D02*
X263611Y182000D01*
X259807Y152465D02*
Y178197D01*
X261319Y179709D01*
X347441Y162087D02*
X348441Y162000D01*
Y152000D02*
Y162000D01*
Y152000D02*
X349441D01*
X359441D01*
Y182000D01*
X355363D02*
X359441D01*
X335607Y178134D02*
Y182000D01*
Y178134D02*
X335662Y178079D01*
X343362D01*
X343307Y178134D02*
X343362Y178079D01*
X345559Y178055D02*
Y182000D01*
Y178055D02*
X352906D01*
X352961Y178110D01*
Y182000D01*
X353008D02*
X355363D01*
X340441Y162087D02*
X347441D01*
X340441Y152362D02*
Y162087D01*
X328851Y152362D02*
X340441D01*
X328748Y152465D02*
X328851Y152362D01*
X343307Y182000D02*
X345559D01*
X343307Y178134D02*
Y182000D01*
X332552D02*
X335607D01*
X330260Y179709D02*
X332552Y182000D01*
X328748Y152465D02*
Y178197D01*
X330260Y179709D01*
X334433Y287476D02*
Y291976D01*
X343933Y287476D02*
X345933D01*
X339933Y296476D02*
X340433D01*
X334433Y287476D02*
X336433D01*
X345933D02*
Y291976D01*
X318433Y287476D02*
Y291976D01*
X327933Y287476D02*
X329933D01*
X323933Y296476D02*
X324433D01*
X318433Y287476D02*
X320433D01*
X329933D02*
Y291976D01*
X193921Y375231D02*
X196521D01*
X198321D02*
X200921D01*
X202921Y372231D02*
Y378131D01*
X193921Y368231D02*
X196821D01*
X193921D02*
Y382231D01*
X196821D01*
X191441Y362587D02*
Y387390D01*
X206402Y362587D02*
Y387390D01*
X191441Y362587D02*
X194721D01*
X191441Y387390D02*
X194721D01*
X203521Y362587D02*
X206402D01*
X203521Y387390D02*
X206402D01*
X172921Y375231D02*
X175521D01*
X177321D02*
X179921D01*
X181921Y372231D02*
Y378131D01*
X172921Y368231D02*
X175821D01*
X172921D02*
Y382231D01*
X175821D01*
X170441Y362587D02*
Y387390D01*
X185402Y362587D02*
Y387390D01*
X170441Y362587D02*
X173721D01*
X170441Y387390D02*
X173721D01*
X182521Y362587D02*
X185402D01*
X182521Y387390D02*
X185402D01*
X137236Y239919D02*
X137236Y259997D01*
X127000Y239959D02*
X127000Y260037D01*
X132118Y242958D02*
Y252958D01*
X129118D02*
X135118D01*
X129118D02*
X132118Y249958D01*
X135118Y252958D01*
X321114Y318157D02*
X337354D01*
X321114D02*
Y340795D01*
X343752D01*
Y324555D02*
Y340795D01*
X337354Y318157D02*
X339815D01*
X343752Y322094D01*
Y324555D01*
X278335Y278500D02*
X284335D01*
X266335D02*
X272335D01*
X284335D02*
Y299500D01*
X266335D02*
X284335D01*
X266335Y278500D02*
Y299500D01*
D11*
X202004Y213158D02*
G03*
X202004Y213158I-394J0D01*
G01*
X263500Y362779D02*
G03*
X263500Y362779I-492J0D01*
G01*
X309240Y232547D02*
G03*
X309240Y232547I-492J0D01*
G01*
X290819Y276500D02*
G03*
X290819Y276500I-492J0D01*
G01*
D12*
X193453Y295174D02*
G03*
X193453Y295174I-295J0D01*
G01*
D13*
X307672Y224868D02*
G03*
X307672Y221132I-3J-1868D01*
G01*
X289189Y368094D02*
Y379906D01*
X262811Y368094D02*
Y379906D01*
X289189D01*
X262811Y368094D02*
X289189D01*
X300700Y380300D02*
X302000Y379000D01*
X295300Y380300D02*
X300700D01*
X302000Y372500D02*
Y379000D01*
X294000D02*
X295300Y380300D01*
X294000Y372500D02*
Y379000D01*
X302000Y359000D02*
Y366000D01*
X294000Y359000D02*
X302000D01*
X294000D02*
Y366000D01*
X256200Y379800D02*
X257500Y378500D01*
X250800Y379800D02*
X256200D01*
X257500Y372000D02*
Y378500D01*
X249500D02*
X250800Y379800D01*
X249500Y372000D02*
Y378500D01*
X257500Y358500D02*
Y365500D01*
X249500Y358500D02*
X257500D01*
X249500D02*
Y365500D01*
X207100Y319600D02*
Y322900D01*
Y319500D02*
X210400D01*
X307685Y217600D02*
Y221132D01*
Y224900D02*
Y228300D01*
X268315Y217600D02*
Y228300D01*
Y217600D02*
X307685D01*
X268315Y228300D02*
X307685D01*
D14*
X290835Y276000D02*
G03*
X290835Y276000I-500J0D01*
G01*
D15*
X172000Y168500D02*
D03*
D16*
X200209Y214709D02*
X202201D01*
X200209D02*
Y216701D01*
X214799Y214709D02*
X216791D01*
Y216701D01*
Y229299D02*
Y231291D01*
X214799D02*
X216791D01*
X200209D02*
X202201D01*
X200209Y229299D02*
Y231291D01*
D17*
X329600Y208028D02*
X356400D01*
X322528Y215100D02*
Y248972D01*
X356400Y208028D02*
X363472Y215100D01*
Y248972D01*
X322528Y215100D02*
X329563Y208065D01*
X322528Y248972D02*
X363472D01*
D18*
X260441Y228118D02*
X265559D01*
X260441Y217882D02*
X265559D01*
X260441D02*
Y221500D01*
X265559Y217882D02*
Y221500D01*
X260441Y224500D02*
Y228118D01*
X265559Y224500D02*
Y228118D01*
X224382Y223441D02*
Y228559D01*
X234618Y223441D02*
Y228559D01*
X231000Y223441D02*
X234618D01*
X231000Y228559D02*
X234618D01*
X224382Y223441D02*
X228000D01*
X224382Y228559D02*
X228000D01*
X192118Y223441D02*
Y228559D01*
X181882Y223441D02*
Y228559D01*
X185500D01*
X181882Y223441D02*
X185500D01*
X188500Y228559D02*
X192118D01*
X188500Y223441D02*
X192118D01*
X234618Y211441D02*
Y216559D01*
X224382Y211441D02*
Y216559D01*
X228000D01*
X224382Y211441D02*
X228000D01*
X231000Y216559D02*
X234618D01*
X231000Y211441D02*
X234618D01*
Y217441D02*
Y222559D01*
X224382Y217441D02*
Y222559D01*
X228000D01*
X224382Y217441D02*
X228000D01*
X231000Y222559D02*
X234618D01*
X231000Y217441D02*
X234618D01*
X303941Y252382D02*
X309059D01*
X303941D02*
Y262618D01*
X309059D01*
Y252382D02*
Y262618D01*
X297941Y252382D02*
X303059D01*
X297941D02*
Y262618D01*
X303059D01*
Y252382D02*
Y262618D01*
X291941Y252382D02*
X297059D01*
X291941D02*
Y262618D01*
X297059D01*
Y252382D02*
Y262618D01*
X285941Y252382D02*
X291059D01*
X285941D02*
Y262618D01*
X291059D01*
Y252382D02*
Y262618D01*
X336823Y189441D02*
Y194559D01*
X347059D01*
Y189441D02*
Y194559D01*
X336823Y189441D02*
X347059D01*
X345315Y347918D02*
Y353036D01*
X355552Y347918D02*
Y353036D01*
X351933Y347918D02*
X355552D01*
X351933Y353036D02*
X355552D01*
X345315Y347918D02*
X348933D01*
X345315Y353036D02*
X348933D01*
X345256Y341917D02*
Y347035D01*
X355492Y341917D02*
Y347035D01*
X351874Y341917D02*
X355492D01*
X351874Y347035D02*
X355492D01*
X345256Y341917D02*
X348874D01*
X345256Y347035D02*
X348874D01*
X345256Y335917D02*
Y341035D01*
X355492Y335917D02*
Y341035D01*
X351874Y335917D02*
X355492D01*
X351874Y341035D02*
X355492D01*
X345256Y335917D02*
X348874D01*
X345256Y341035D02*
X348874D01*
X334874Y342859D02*
X339992D01*
X334874Y353095D02*
X339992D01*
Y349476D02*
Y353095D01*
X334874Y349476D02*
Y353095D01*
X339992Y342859D02*
Y346476D01*
X334874Y342859D02*
Y346476D01*
X329492Y304917D02*
Y310035D01*
X319256Y304917D02*
X329492D01*
X319256D02*
Y310035D01*
X329492D01*
X335256Y304917D02*
Y310035D01*
X345492D01*
Y304917D02*
Y310035D01*
X335256Y304917D02*
X345492D01*
X263941Y264441D02*
X269059D01*
X263941Y274677D02*
X269059D01*
Y271059D02*
Y274677D01*
X263941Y271059D02*
Y274677D01*
X269059Y264441D02*
Y268059D01*
X263941Y264441D02*
Y268059D01*
X257941Y264441D02*
X263059D01*
X257941Y274677D02*
X263059D01*
Y271059D02*
Y274677D01*
X257941Y271059D02*
Y274677D01*
X263059Y264441D02*
Y268059D01*
X257941Y264441D02*
Y268059D01*
X196382Y347441D02*
Y352559D01*
X206618Y347441D02*
Y352559D01*
X203000Y347441D02*
X206618D01*
X203000Y352559D02*
X206618D01*
X196382Y347441D02*
X200000D01*
X196382Y352559D02*
X200000D01*
X180618Y347441D02*
Y352559D01*
X170382Y347441D02*
Y352559D01*
X174000D01*
X170382Y347441D02*
X174000D01*
X177000Y352559D02*
X180618D01*
X177000Y347441D02*
X180618D01*
X152941Y363618D02*
X158059D01*
Y353382D02*
Y363618D01*
X152941Y353382D02*
X158059D01*
X152941D02*
Y363618D01*
X145441D02*
X150559D01*
Y353382D02*
Y363618D01*
X145441Y353382D02*
X150559D01*
X145441D02*
Y363618D01*
X137941D02*
X143059D01*
Y353382D02*
Y363618D01*
X137941Y353382D02*
X143059D01*
X137941D02*
Y363618D01*
X222441Y330118D02*
X227559D01*
X222441Y319882D02*
X227559D01*
X222441D02*
Y323500D01*
X227559Y319882D02*
Y323500D01*
X222441Y326500D02*
Y330118D01*
X227559Y326500D02*
Y330118D01*
X199941Y319882D02*
X205059D01*
X199941Y330118D02*
X205059D01*
Y326500D02*
Y330118D01*
X199941Y326500D02*
Y330118D01*
X205059Y319882D02*
Y323500D01*
X199941Y319882D02*
Y323500D01*
X214941Y253882D02*
X220059D01*
X214941Y264118D02*
X220059D01*
Y260500D02*
Y264118D01*
X214941Y260500D02*
Y264118D01*
X220059Y253882D02*
Y257500D01*
X214941Y253882D02*
Y257500D01*
X208941Y253882D02*
X214059D01*
X208941Y264118D02*
X214059D01*
Y260500D02*
Y264118D01*
X208941Y260500D02*
Y264118D01*
X214059Y253882D02*
Y257500D01*
X208941Y253882D02*
Y257500D01*
X158826Y388700D02*
Y394000D01*
Y394099D01*
X153426D02*
X158826D01*
X153226D02*
X153426D01*
X153226Y388700D02*
Y394099D01*
X158826Y379900D02*
Y385299D01*
X153226Y379900D02*
X158626D01*
X153226Y379999D02*
Y385299D01*
X158826Y378900D02*
Y379900D01*
X153226Y378900D02*
X158826D01*
X153226D02*
Y379900D01*
X150800Y388700D02*
Y394000D01*
Y394100D01*
X145400D02*
X150800D01*
X145200D02*
X145400D01*
X145200Y388700D02*
Y394100D01*
X150800Y379900D02*
Y385300D01*
X145200Y379900D02*
X150600D01*
X145200Y380000D02*
Y385300D01*
X150800Y378900D02*
Y379900D01*
X145200Y378900D02*
X150800D01*
X145200D02*
Y379900D01*
X142826Y388700D02*
Y394000D01*
Y394099D01*
X137426D02*
X142826D01*
X137226D02*
X137426D01*
X137226Y388700D02*
Y394099D01*
X142826Y379900D02*
Y385299D01*
X137226Y379900D02*
X142626D01*
X137226Y379999D02*
Y385299D01*
X142826Y378900D02*
Y379900D01*
X137226Y378900D02*
X142826D01*
X137226D02*
Y379900D01*
X229382Y376441D02*
Y381559D01*
X239618D01*
Y376441D02*
Y381559D01*
X229382Y376441D02*
X239618D01*
X237199Y383674D02*
X242499D01*
X242600D01*
Y389074D01*
Y389274D01*
X237199D02*
X242600D01*
X228399Y383674D02*
X233800D01*
X228399Y383874D02*
Y389274D01*
X228500D02*
X233800D01*
X227399Y383674D02*
X228399D01*
X227399D02*
Y389274D01*
X228399D01*
X261441Y319882D02*
X266559D01*
X261441D02*
Y330118D01*
X266559D01*
Y319882D02*
Y330118D01*
X267941D02*
X273059D01*
X267941Y319882D02*
X273059D01*
X267941D02*
Y323500D01*
X273059Y319882D02*
Y323500D01*
X267941Y326500D02*
Y330118D01*
X273059Y326500D02*
Y330118D01*
X222441Y317118D02*
X227559D01*
X222441Y306882D02*
X227559D01*
X222441D02*
Y310500D01*
X227559Y306882D02*
Y310500D01*
X222441Y313500D02*
Y317118D01*
X227559Y313500D02*
Y317118D01*
X216441D02*
X221559D01*
X216441Y306882D02*
X221559D01*
X216441D02*
Y310500D01*
X221559Y306882D02*
Y310500D01*
X216441Y313500D02*
Y317118D01*
X221559Y313500D02*
Y317118D01*
X244118Y271941D02*
Y277059D01*
X233882Y271941D02*
Y277059D01*
X237500D01*
X233882Y271941D02*
X237500D01*
X240500Y277059D02*
X244118D01*
X240500Y271941D02*
X244118D01*
Y277941D02*
Y283059D01*
X233882Y277941D02*
Y283059D01*
X237500D01*
X233882Y277941D02*
X237500D01*
X240500Y283059D02*
X244118D01*
X240500Y277941D02*
X244118D01*
X188441Y317118D02*
X193559D01*
X188441Y306882D02*
X193559D01*
X188441D02*
Y310500D01*
X193559Y306882D02*
Y310500D01*
X188441Y313500D02*
Y317118D01*
X193559Y313500D02*
Y317118D01*
X182441D02*
X187559D01*
X182441Y306882D02*
X187559D01*
X182441D02*
Y310500D01*
X187559Y306882D02*
Y310500D01*
X182441Y313500D02*
Y317118D01*
X187559Y313500D02*
Y317118D01*
X190677Y254941D02*
Y260059D01*
X180441Y254941D02*
Y260059D01*
X184059D01*
X180441Y254941D02*
X184059D01*
X187059Y260059D02*
X190677D01*
X187059Y254941D02*
X190677D01*
X190618Y261441D02*
Y266559D01*
X180382Y261441D02*
Y266559D01*
X184000D01*
X180382Y261441D02*
X184000D01*
X187000Y266559D02*
X190618D01*
X187000Y261441D02*
X190618D01*
Y267941D02*
Y273059D01*
X180382Y267941D02*
Y273059D01*
X184000D01*
X180382Y267941D02*
X184000D01*
X187000Y273059D02*
X190618D01*
X187000Y267941D02*
X190618D01*
X185941Y274441D02*
X191059D01*
X185941Y284677D02*
X191059D01*
Y281059D02*
Y284677D01*
X185941Y281059D02*
Y284677D01*
X191059Y274441D02*
Y278059D01*
X185941Y274441D02*
Y278059D01*
X184500Y282000D02*
Y284500D01*
X180500D02*
X184500D01*
X180500Y282000D02*
Y284500D01*
X184500Y274500D02*
Y277000D01*
X180500Y274500D02*
X184500D01*
X180500D02*
Y275500D01*
Y277000D01*
X212500Y316000D02*
Y318500D01*
X207500D02*
X212500D01*
X207500Y316000D02*
Y318500D01*
X212500Y305500D02*
Y308000D01*
X207500Y305500D02*
X212500D01*
X207500D02*
Y308000D01*
X164148Y297221D02*
X166648D01*
X164148Y293221D02*
Y297221D01*
Y293221D02*
X166648D01*
X171648Y297221D02*
X174148D01*
Y293221D02*
Y297221D01*
X173148Y293221D02*
X174148D01*
X171648D02*
X173148D01*
D19*
X262100Y223000D02*
X263900D01*
X263000Y222700D02*
Y223000D01*
Y223300D01*
X229500Y225100D02*
Y226900D01*
Y226000D02*
X229800D01*
X229200D02*
X229500D01*
X187000Y225100D02*
Y226900D01*
X186700Y226000D02*
X187000D01*
X187300D01*
X229500Y213100D02*
Y214900D01*
X229200Y214000D02*
X229500D01*
X229800D01*
X229500Y219100D02*
Y220900D01*
X229200Y220000D02*
X229500D01*
X229800D01*
X350433Y349576D02*
Y351376D01*
Y350476D02*
X350733D01*
X350133D02*
X350433D01*
X350374Y343576D02*
Y345376D01*
Y344476D02*
X350674D01*
X350074D02*
X350374D01*
Y337576D02*
Y339376D01*
Y338476D02*
X350674D01*
X350074D02*
X350374D01*
X336533Y347976D02*
X338333D01*
X337433D02*
Y348276D01*
Y347676D02*
Y347976D01*
X265600Y269559D02*
X267400D01*
X266500D02*
Y269859D01*
Y269259D02*
Y269559D01*
X259600D02*
X261400D01*
X260500D02*
Y269859D01*
Y269259D02*
Y269559D01*
X201500Y349100D02*
Y350900D01*
Y350000D02*
X201800D01*
X201200D02*
X201500D01*
X175500Y349100D02*
Y350900D01*
X175200Y350000D02*
X175500D01*
X175800D01*
X224100Y325000D02*
X225900D01*
X225000Y324700D02*
Y325000D01*
Y325300D01*
X201600Y325000D02*
X203400D01*
X202500D02*
Y325300D01*
Y324700D02*
Y325000D01*
X216600Y259000D02*
X218400D01*
X217500D02*
Y259300D01*
Y258700D02*
Y259000D01*
X210600D02*
X212400D01*
X211500D02*
Y259300D01*
Y258700D02*
Y259000D01*
X269600Y325000D02*
X271400D01*
X270500Y324700D02*
Y325000D01*
Y325300D01*
X220490Y299017D02*
X223142D01*
Y296365D02*
Y299017D01*
X220490Y270858D02*
X223142D01*
Y273511D01*
X194983Y299017D02*
X197635D01*
X194983Y296365D02*
Y299017D01*
Y270858D02*
X197635D01*
X194983D02*
Y273511D01*
X224100Y312000D02*
X225900D01*
X225000Y311700D02*
Y312000D01*
Y312300D01*
X218100Y312000D02*
X219900D01*
X219000Y311700D02*
Y312000D01*
Y312300D01*
X239000Y273600D02*
Y275400D01*
X238700Y274500D02*
X239000D01*
X239300D01*
X239000Y279600D02*
Y281400D01*
X238700Y280500D02*
X239000D01*
X239300D01*
X190100Y312000D02*
X191900D01*
X191000Y311700D02*
Y312000D01*
Y312300D01*
X184100Y312000D02*
X185900D01*
X185000Y311700D02*
Y312000D01*
Y312300D01*
X185559Y256600D02*
Y258400D01*
X185259Y257500D02*
X185559D01*
X185859D01*
X185500Y263100D02*
Y264900D01*
X185200Y264000D02*
X185500D01*
X185800D01*
X185500Y269600D02*
Y271400D01*
X185200Y270500D02*
X185500D01*
X185800D01*
X187600Y279559D02*
X189400D01*
X188500D02*
Y279859D01*
Y279259D02*
Y279559D01*
X176047Y296950D02*
X177247D01*
X174875Y293603D02*
X178419D01*
X174875Y300295D02*
X174876Y300296D01*
X178419D01*
Y297950D02*
Y300296D01*
Y293603D02*
Y295950D01*
X174876Y297950D02*
Y300296D01*
Y293603D02*
Y295950D01*
X161047Y293450D02*
X162247D01*
X159876Y296796D02*
X163419D01*
X163419Y290104D02*
X163419Y290104D01*
X159876Y290104D02*
X163419D01*
X159876D02*
Y292450D01*
Y294450D02*
Y296796D01*
X163419Y290104D02*
Y292450D01*
Y294450D02*
Y296796D01*
D20*
X207600Y330200D02*
X220400D01*
Y319900D02*
Y330200D01*
X207600Y319900D02*
X220400D01*
X207600D02*
Y330200D01*
D21*
X212000Y335255D02*
X213837Y332500D01*
Y335255D02*
X212000Y332500D01*
X214755D02*
X215673D01*
X215214D01*
Y335255D01*
X214755Y334796D01*
X274500Y395255D02*
Y393418D01*
X275418Y392500D01*
X276337Y393418D01*
Y395255D01*
X277255Y392500D02*
X278173D01*
X277714D01*
Y395255D01*
X277255Y394796D01*
X315745Y380500D02*
X318041D01*
X318500Y380959D01*
Y381877D01*
X318041Y382337D01*
X315745D01*
X316204Y385092D02*
X315745Y384632D01*
Y383714D01*
X316204Y383255D01*
X316663D01*
X317123Y383714D01*
Y384632D01*
X317582Y385092D01*
X318041D01*
X318500Y384632D01*
Y383714D01*
X318041Y383255D01*
X315745Y386010D02*
X318500D01*
Y387388D01*
X318041Y387847D01*
X317582D01*
X317123Y387388D01*
Y386010D01*
Y387388D01*
X316663Y387847D01*
X316204D01*
X315745Y387388D01*
Y386010D01*
X316204Y390602D02*
X315745Y390143D01*
Y389224D01*
X316204Y388765D01*
X318041D01*
X318500Y389224D01*
Y390143D01*
X318041Y390602D01*
X318500Y391520D02*
Y392438D01*
Y391979D01*
X315745D01*
X316204Y391520D01*
X197500Y235755D02*
Y233459D01*
X197959Y233000D01*
X198878D01*
X199337Y233459D01*
Y235755D01*
X202092D02*
X200255D01*
Y234378D01*
X201173Y234837D01*
X201632D01*
X202092Y234378D01*
Y233459D01*
X201632Y233000D01*
X200714D01*
X200255Y233459D01*
X268600Y243255D02*
Y240959D01*
X269059Y240500D01*
X269977D01*
X270437Y240959D01*
Y243255D01*
X272732Y240500D02*
Y243255D01*
X271355Y241878D01*
X273192D01*
X321333Y346731D02*
Y344435D01*
X321792Y343976D01*
X322711D01*
X323170Y344435D01*
Y346731D01*
X324088Y346272D02*
X324547Y346731D01*
X325466D01*
X325925Y346272D01*
Y345813D01*
X325466Y345354D01*
X325006D01*
X325466D01*
X325925Y344895D01*
Y344435D01*
X325466Y343976D01*
X324547D01*
X324088Y344435D01*
X255835Y305455D02*
Y303159D01*
X256294Y302700D01*
X257212D01*
X257671Y303159D01*
Y305455D01*
X260426Y302700D02*
X258590D01*
X260426Y304537D01*
Y304996D01*
X259967Y305455D01*
X259049D01*
X258590Y304996D01*
X193500Y303255D02*
Y300959D01*
X193959Y300500D01*
X194878D01*
X195337Y300959D01*
Y303255D01*
X196255Y300500D02*
X197173D01*
X196714D01*
Y303255D01*
X196255Y302796D01*
X254204Y155337D02*
X253745Y154877D01*
Y153959D01*
X254204Y153500D01*
X254663D01*
X255122Y153959D01*
Y154877D01*
X255582Y155337D01*
X256041D01*
X256500Y154877D01*
Y153959D01*
X256041Y153500D01*
X253745Y156255D02*
Y158092D01*
Y157173D01*
X256500D01*
X253745Y160847D02*
Y159010D01*
X256500D01*
Y160847D01*
X255122Y159010D02*
Y159928D01*
X256500Y161765D02*
X253745D01*
Y163143D01*
X254204Y163602D01*
X255122D01*
X255582Y163143D01*
Y161765D01*
X255122Y164520D02*
Y166357D01*
X256500Y167275D02*
X253745D01*
X254663Y168193D01*
X253745Y169112D01*
X256500D01*
X253745Y171408D02*
Y170489D01*
X254204Y170030D01*
X256041D01*
X256500Y170489D01*
Y171408D01*
X256041Y171867D01*
X254204D01*
X253745Y171408D01*
Y172785D02*
Y174622D01*
Y173704D01*
X256500D01*
X253745Y176918D02*
Y175999D01*
X254204Y175540D01*
X256041D01*
X256500Y175999D01*
Y176918D01*
X256041Y177377D01*
X254204D01*
X253745Y176918D01*
X256500Y178295D02*
X253745D01*
Y179673D01*
X254204Y180132D01*
X255122D01*
X255582Y179673D01*
Y178295D01*
Y179214D02*
X256500Y180132D01*
X212000Y372000D02*
X209245D01*
Y373377D01*
X209704Y373837D01*
X210623D01*
X211082Y373377D01*
Y372000D01*
Y372918D02*
X212000Y373837D01*
X209704Y376592D02*
X209245Y376132D01*
Y375214D01*
X209704Y374755D01*
X210163D01*
X210623Y375214D01*
Y376132D01*
X211082Y376592D01*
X211541D01*
X212000Y376132D01*
Y375214D01*
X211541Y374755D01*
X209245Y377510D02*
Y379347D01*
Y378428D01*
X212000D01*
X349441Y191000D02*
Y193755D01*
X350819D01*
X351278Y193296D01*
Y192377D01*
X350819Y191918D01*
X349441D01*
X350360D02*
X351278Y191000D01*
X352196D02*
X353115D01*
X352656D01*
Y193755D01*
X352196Y193296D01*
X356329Y191000D02*
X354492D01*
X356329Y192837D01*
Y193296D01*
X355870Y193755D01*
X354951D01*
X354492Y193296D01*
X307500Y265000D02*
X304745D01*
Y266377D01*
X305204Y266837D01*
X306122D01*
X306582Y266377D01*
Y265000D01*
Y265918D02*
X307500Y266837D01*
Y267755D02*
Y268673D01*
Y268214D01*
X304745D01*
X305204Y267755D01*
X307500Y270051D02*
Y270969D01*
Y270510D01*
X304745D01*
X305204Y270051D01*
X301500Y264500D02*
X298745D01*
Y265878D01*
X299204Y266337D01*
X300122D01*
X300582Y265878D01*
Y264500D01*
Y265418D02*
X301500Y266337D01*
Y267255D02*
Y268173D01*
Y267714D01*
X298745D01*
X299204Y267255D01*
Y269551D02*
X298745Y270010D01*
Y270928D01*
X299204Y271388D01*
X301041D01*
X301500Y270928D01*
Y270010D01*
X301041Y269551D01*
X299204D01*
X296000Y264500D02*
X293245D01*
Y265878D01*
X293704Y266337D01*
X294622D01*
X295082Y265878D01*
Y264500D01*
Y265418D02*
X296000Y266337D01*
X295541Y267255D02*
X296000Y267714D01*
Y268633D01*
X295541Y269092D01*
X293704D01*
X293245Y268633D01*
Y267714D01*
X293704Y267255D01*
X294163D01*
X294622Y267714D01*
Y269092D01*
X290000Y264500D02*
X287245D01*
Y265878D01*
X287704Y266337D01*
X288622D01*
X289082Y265878D01*
Y264500D01*
Y265418D02*
X290000Y266337D01*
X287704Y267255D02*
X287245Y267714D01*
Y268633D01*
X287704Y269092D01*
X288163D01*
X288622Y268633D01*
X289082Y269092D01*
X289541D01*
X290000Y268633D01*
Y267714D01*
X289541Y267255D01*
X289082D01*
X288622Y267714D01*
X288163Y267255D01*
X287704D01*
X288622Y267714D02*
Y268633D01*
X312374Y305976D02*
Y308731D01*
X313751D01*
X314210Y308272D01*
Y307353D01*
X313751Y306894D01*
X312374D01*
X313292D02*
X314210Y305976D01*
X315129Y308731D02*
X316965D01*
Y308272D01*
X315129Y306435D01*
Y305976D01*
X347933Y305976D02*
Y308731D01*
X349311D01*
X349770Y308272D01*
Y307354D01*
X349311Y306895D01*
X347933D01*
X348851D02*
X349770Y305976D01*
X352525Y308731D02*
X351606Y308272D01*
X350688Y307354D01*
Y306435D01*
X351147Y305976D01*
X352066D01*
X352525Y306435D01*
Y306895D01*
X352066Y307354D01*
X350688D01*
X141500Y346500D02*
X138745D01*
Y347878D01*
X139204Y348337D01*
X140122D01*
X140582Y347878D01*
Y346500D01*
Y347418D02*
X141500Y348337D01*
X138745Y351092D02*
Y349255D01*
X140122D01*
X139663Y350173D01*
Y350633D01*
X140122Y351092D01*
X141041D01*
X141500Y350633D01*
Y349714D01*
X141041Y349255D01*
X149000Y346500D02*
X146245D01*
Y347878D01*
X146704Y348337D01*
X147623D01*
X148082Y347878D01*
Y346500D01*
Y347418D02*
X149000Y348337D01*
Y350633D02*
X146245D01*
X147623Y349255D01*
Y351092D01*
X156500Y346500D02*
X153745D01*
Y347878D01*
X154204Y348337D01*
X155122D01*
X155582Y347878D01*
Y346500D01*
Y347418D02*
X156500Y348337D01*
X154204Y349255D02*
X153745Y349714D01*
Y350633D01*
X154204Y351092D01*
X154663D01*
X155122Y350633D01*
Y350173D01*
Y350633D01*
X155582Y351092D01*
X156041D01*
X156500Y350633D01*
Y349714D01*
X156041Y349255D01*
X223000Y377500D02*
Y380255D01*
X224377D01*
X224837Y379796D01*
Y378877D01*
X224377Y378418D01*
X223000D01*
X223918D02*
X224837Y377500D01*
X227592D02*
X225755D01*
X227592Y379337D01*
Y379796D01*
X227133Y380255D01*
X226214D01*
X225755Y379796D01*
X265500Y332000D02*
X262745D01*
Y333378D01*
X263204Y333837D01*
X264123D01*
X264582Y333378D01*
Y332000D01*
Y332918D02*
X265500Y333837D01*
Y334755D02*
Y335673D01*
Y335214D01*
X262745D01*
X263204Y334755D01*
X339770Y300435D02*
Y302272D01*
X339311Y302731D01*
X338392D01*
X337933Y302272D01*
Y300435D01*
X338392Y299976D01*
X339311D01*
X338851Y300895D02*
X339770Y299976D01*
X339311D02*
X339770Y300435D01*
X342525Y299976D02*
X340688D01*
X342525Y301813D01*
Y302272D01*
X342066Y302731D01*
X341147D01*
X340688Y302272D01*
X324270Y300435D02*
Y302272D01*
X323811Y302731D01*
X322892D01*
X322433Y302272D01*
Y300435D01*
X322892Y299976D01*
X323811D01*
X323351Y300895D02*
X324270Y299976D01*
X323811D02*
X324270Y300435D01*
X325188Y299976D02*
X326106D01*
X325647D01*
Y302731D01*
X325188Y302272D01*
X217500Y385000D02*
Y387755D01*
X218878D01*
X219337Y387296D01*
Y386378D01*
X218878Y385918D01*
X217500D01*
X220255Y387755D02*
Y385000D01*
X221173Y385918D01*
X222092Y385000D01*
Y387755D01*
X223010Y385000D02*
Y387755D01*
X224388D01*
X224847Y387296D01*
Y386378D01*
X224388Y385918D01*
X223010D01*
X223928D02*
X224847Y385000D01*
X323001Y160000D02*
X325756D01*
Y161837D01*
X323001Y162755D02*
X325756D01*
Y164592D01*
X324379Y165510D02*
Y167347D01*
X323460Y170102D02*
X323001Y169643D01*
Y168724D01*
X323460Y168265D01*
X323920D01*
X324379Y168724D01*
Y169643D01*
X324838Y170102D01*
X325297D01*
X325756Y169643D01*
Y168724D01*
X325297Y168265D01*
X323001Y171020D02*
X325756D01*
X324838Y171938D01*
X325756Y172857D01*
X323001D01*
X138745Y366500D02*
X141500D01*
Y368337D01*
X138745Y371092D02*
Y369255D01*
X141500D01*
Y371092D01*
X140122Y369255D02*
Y370173D01*
X138745Y372010D02*
X141500D01*
Y373388D01*
X141041Y373847D01*
X139204D01*
X138745Y373388D01*
Y372010D01*
X139204Y374765D02*
X138745Y375224D01*
Y376143D01*
X139204Y376602D01*
X139663D01*
X140122Y376143D01*
Y375683D01*
Y376143D01*
X140582Y376602D01*
X141041D01*
X141500Y376143D01*
Y375224D01*
X141041Y374765D01*
X146245Y366500D02*
X149000D01*
Y368337D01*
X146245Y371092D02*
Y369255D01*
X149000D01*
Y371092D01*
X147623Y369255D02*
Y370173D01*
X146245Y372010D02*
X149000D01*
Y373388D01*
X148541Y373847D01*
X146704D01*
X146245Y373388D01*
Y372010D01*
X149000Y376602D02*
Y374765D01*
X147163Y376602D01*
X146704D01*
X146245Y376143D01*
Y375224D01*
X146704Y374765D01*
X154245Y367000D02*
X157000D01*
Y368837D01*
X154245Y371592D02*
Y369755D01*
X157000D01*
Y371592D01*
X155622Y369755D02*
Y370673D01*
X154245Y372510D02*
X157000D01*
Y373888D01*
X156541Y374347D01*
X154704D01*
X154245Y373888D01*
Y372510D01*
X157000Y375265D02*
Y376183D01*
Y375724D01*
X154245D01*
X154704Y375265D01*
X181245Y286500D02*
X184000D01*
Y288337D01*
X181704Y289255D02*
X181245Y289714D01*
Y290633D01*
X181704Y291092D01*
X182163D01*
X182623Y290633D01*
Y290173D01*
Y290633D01*
X183082Y291092D01*
X183541D01*
X184000Y290633D01*
Y289714D01*
X183541Y289255D01*
X166648Y301476D02*
Y298721D01*
X168484D01*
X171239D02*
X169403D01*
X171239Y300558D01*
Y301017D01*
X170780Y301476D01*
X169862D01*
X169403Y301017D01*
X207745Y301000D02*
X210500D01*
Y302837D01*
Y303755D02*
Y304673D01*
Y304214D01*
X207745D01*
X208204Y303755D01*
X324337Y257255D02*
X322500D01*
Y254500D01*
X324337D01*
X322500Y255877D02*
X323418D01*
X325255Y256796D02*
X325714Y257255D01*
X326632D01*
X327092Y256796D01*
Y256337D01*
X326632Y255877D01*
X326173D01*
X326632D01*
X327092Y255418D01*
Y254959D01*
X326632Y254500D01*
X325714D01*
X325255Y254959D01*
X252837Y385255D02*
X251000D01*
Y382500D01*
X252837D01*
X251000Y383877D02*
X251918D01*
X255592Y382500D02*
X253755D01*
X255592Y384337D01*
Y384796D01*
X255133Y385255D01*
X254214D01*
X253755Y384796D01*
X297837Y385755D02*
X296000D01*
Y383000D01*
X297837D01*
X296000Y384378D02*
X296918D01*
X298755Y383000D02*
X299673D01*
X299214D01*
Y385755D01*
X298755Y385296D01*
X194745Y319500D02*
X197500D01*
Y320878D01*
X197041Y321337D01*
X195204D01*
X194745Y320878D01*
Y319500D01*
Y324092D02*
Y322255D01*
X197500D01*
Y324092D01*
X196123Y322255D02*
Y323173D01*
X197500Y325010D02*
Y325928D01*
Y325469D01*
X194745D01*
X195204Y325010D01*
X238337Y215296D02*
X237877Y215755D01*
X236959D01*
X236500Y215296D01*
Y213459D01*
X236959Y213000D01*
X237877D01*
X238337Y213459D01*
X239255Y215296D02*
X239714Y215755D01*
X240633D01*
X241092Y215296D01*
Y214837D01*
X240633Y214377D01*
X240173D01*
X240633D01*
X241092Y213918D01*
Y213459D01*
X240633Y213000D01*
X239714D01*
X239255Y213459D01*
X242010Y215296D02*
X242469Y215755D01*
X243388D01*
X243847Y215296D01*
Y213459D01*
X243388Y213000D01*
X242469D01*
X242010Y213459D01*
Y215296D01*
X263796Y214163D02*
X264255Y214622D01*
Y215541D01*
X263796Y216000D01*
X261959D01*
X261500Y215541D01*
Y214622D01*
X261959Y214163D01*
X261500Y211408D02*
Y213245D01*
X263337Y211408D01*
X263796D01*
X264255Y211867D01*
Y212786D01*
X263796Y213245D01*
X261959Y210490D02*
X261500Y210031D01*
Y209112D01*
X261959Y208653D01*
X263796D01*
X264255Y209112D01*
Y210031D01*
X263796Y210490D01*
X263337D01*
X262877Y210031D01*
Y208653D01*
X174337Y226796D02*
X173878Y227255D01*
X172959D01*
X172500Y226796D01*
Y224959D01*
X172959Y224500D01*
X173878D01*
X174337Y224959D01*
X177092Y224500D02*
X175255D01*
X177092Y226337D01*
Y226796D01*
X176632Y227255D01*
X175714D01*
X175255Y226796D01*
X178010D02*
X178469Y227255D01*
X179388D01*
X179847Y226796D01*
Y226337D01*
X179388Y225877D01*
X179847Y225418D01*
Y224959D01*
X179388Y224500D01*
X178469D01*
X178010Y224959D01*
Y225418D01*
X178469Y225877D01*
X178010Y226337D01*
Y226796D01*
X178469Y225877D02*
X179388D01*
X238337Y226796D02*
X237877Y227255D01*
X236959D01*
X236500Y226796D01*
Y224959D01*
X236959Y224500D01*
X237877D01*
X238337Y224959D01*
X241092Y224500D02*
X239255D01*
X241092Y226337D01*
Y226796D01*
X240633Y227255D01*
X239714D01*
X239255Y226796D01*
X242010Y227255D02*
X243847D01*
Y226796D01*
X242010Y224959D01*
Y224500D01*
X238337Y221296D02*
X237877Y221755D01*
X236959D01*
X236500Y221296D01*
Y219459D01*
X236959Y219000D01*
X237877D01*
X238337Y219459D01*
X241092Y219000D02*
X239255D01*
X241092Y220837D01*
Y221296D01*
X240633Y221755D01*
X239714D01*
X239255Y221296D01*
X243847Y221755D02*
X242928Y221296D01*
X242010Y220377D01*
Y219459D01*
X242469Y219000D01*
X243388D01*
X243847Y219459D01*
Y219918D01*
X243388Y220377D01*
X242010D01*
X359270Y351272D02*
X358811Y351731D01*
X357892D01*
X357433Y351272D01*
Y349435D01*
X357892Y348976D01*
X358811D01*
X359270Y349435D01*
X362025Y348976D02*
X360188D01*
X362025Y350813D01*
Y351272D01*
X361566Y351731D01*
X360647D01*
X360188Y351272D01*
X364780Y351731D02*
X362943D01*
Y350354D01*
X363861Y350813D01*
X364321D01*
X364780Y350354D01*
Y349435D01*
X364321Y348976D01*
X363402D01*
X362943Y349435D01*
X359152Y339272D02*
X358693Y339731D01*
X357774D01*
X357315Y339272D01*
Y337435D01*
X357774Y336976D01*
X358693D01*
X359152Y337435D01*
X361907Y336976D02*
X360070D01*
X361907Y338813D01*
Y339272D01*
X361448Y339731D01*
X360529D01*
X360070Y339272D01*
X364202Y336976D02*
Y339731D01*
X362825Y338354D01*
X364662D01*
X359210Y345272D02*
X358751Y345731D01*
X357833D01*
X357374Y345272D01*
Y343435D01*
X357833Y342976D01*
X358751D01*
X359210Y343435D01*
X361965Y342976D02*
X360129D01*
X361965Y344813D01*
Y345272D01*
X361506Y345731D01*
X360588D01*
X360129Y345272D01*
X362884D02*
X363343Y345731D01*
X364261D01*
X364720Y345272D01*
Y344813D01*
X364261Y344354D01*
X363802D01*
X364261D01*
X364720Y343894D01*
Y343435D01*
X364261Y342976D01*
X363343D01*
X362884Y343435D01*
X330637Y346313D02*
X330178Y345854D01*
Y344935D01*
X330637Y344476D01*
X332474D01*
X332933Y344935D01*
Y345854D01*
X332474Y346313D01*
X332933Y349068D02*
Y347231D01*
X331096Y349068D01*
X330637D01*
X330178Y348609D01*
Y347691D01*
X330637Y347231D01*
X332933Y351823D02*
Y349986D01*
X331096Y351823D01*
X330637D01*
X330178Y351364D01*
Y350446D01*
X330637Y349986D01*
X184337Y350796D02*
X183878Y351255D01*
X182959D01*
X182500Y350796D01*
Y348959D01*
X182959Y348500D01*
X183878D01*
X184337Y348959D01*
X187092Y348500D02*
X185255D01*
X187092Y350337D01*
Y350796D01*
X186633Y351255D01*
X185714D01*
X185255Y350796D01*
X188010Y348500D02*
X188928D01*
X188469D01*
Y351255D01*
X188010Y350796D01*
X209837D02*
X209378Y351255D01*
X208459D01*
X208000Y350796D01*
Y348959D01*
X208459Y348500D01*
X209378D01*
X209837Y348959D01*
X212592Y348500D02*
X210755D01*
X212592Y350337D01*
Y350796D01*
X212133Y351255D01*
X211214D01*
X210755Y350796D01*
X213510D02*
X213969Y351255D01*
X214888D01*
X215347Y350796D01*
Y348959D01*
X214888Y348500D01*
X213969D01*
X213510Y348959D01*
Y350796D01*
X259204Y256955D02*
X258745Y256496D01*
Y255577D01*
X259204Y255118D01*
X261041D01*
X261500Y255577D01*
Y256496D01*
X261041Y256955D01*
X261500Y257873D02*
Y258791D01*
Y258332D01*
X258745D01*
X259204Y257873D01*
X261041Y260169D02*
X261500Y260628D01*
Y261546D01*
X261041Y262006D01*
X259204D01*
X258745Y261546D01*
Y260628D01*
X259204Y260169D01*
X259663D01*
X260122Y260628D01*
Y262006D01*
X265704Y256955D02*
X265245Y256496D01*
Y255577D01*
X265704Y255118D01*
X267541D01*
X268000Y255577D01*
Y256496D01*
X267541Y256955D01*
X268000Y257873D02*
Y258791D01*
Y258332D01*
X265245D01*
X265704Y257873D01*
Y260169D02*
X265245Y260628D01*
Y261546D01*
X265704Y262006D01*
X266163D01*
X266622Y261546D01*
X267082Y262006D01*
X267541D01*
X268000Y261546D01*
Y260628D01*
X267541Y260169D01*
X267082D01*
X266622Y260628D01*
X266163Y260169D01*
X265704D01*
X266622Y260628D02*
Y261546D01*
X190204Y321337D02*
X189745Y320878D01*
Y319959D01*
X190204Y319500D01*
X192041D01*
X192500Y319959D01*
Y320878D01*
X192041Y321337D01*
X192500Y322255D02*
Y323173D01*
Y322714D01*
X189745D01*
X190204Y322255D01*
X189745Y324551D02*
Y326388D01*
X190204D01*
X192041Y324551D01*
X192500D01*
X183704Y321337D02*
X183245Y320878D01*
Y319959D01*
X183704Y319500D01*
X185541D01*
X186000Y319959D01*
Y320878D01*
X185541Y321337D01*
X186000Y322255D02*
Y323173D01*
Y322714D01*
X183245D01*
X183704Y322255D01*
X183245Y326388D02*
X183704Y325469D01*
X184623Y324551D01*
X185541D01*
X186000Y325010D01*
Y325928D01*
X185541Y326388D01*
X185082D01*
X184623Y325928D01*
Y324551D01*
X187204Y288337D02*
X186745Y287877D01*
Y286959D01*
X187204Y286500D01*
X189041D01*
X189500Y286959D01*
Y287877D01*
X189041Y288337D01*
X189500Y289255D02*
Y290173D01*
Y289714D01*
X186745D01*
X187204Y289255D01*
X186745Y293388D02*
Y291551D01*
X188122D01*
X187663Y292469D01*
Y292928D01*
X188122Y293388D01*
X189041D01*
X189500Y292928D01*
Y292010D01*
X189041Y291551D01*
X173837Y271296D02*
X173378Y271755D01*
X172459D01*
X172000Y271296D01*
Y269459D01*
X172459Y269000D01*
X173378D01*
X173837Y269459D01*
X174755Y269000D02*
X175673D01*
X175214D01*
Y271755D01*
X174755Y271296D01*
X178428Y269000D02*
Y271755D01*
X177051Y270377D01*
X178888D01*
X173837Y264796D02*
X173378Y265255D01*
X172459D01*
X172000Y264796D01*
Y262959D01*
X172459Y262500D01*
X173378D01*
X173837Y262959D01*
X174755Y262500D02*
X175673D01*
X175214D01*
Y265255D01*
X174755Y264796D01*
X177051D02*
X177510Y265255D01*
X178428D01*
X178888Y264796D01*
Y264337D01*
X178428Y263878D01*
X177969D01*
X178428D01*
X178888Y263418D01*
Y262959D01*
X178428Y262500D01*
X177510D01*
X177051Y262959D01*
X173837Y258796D02*
X173378Y259255D01*
X172459D01*
X172000Y258796D01*
Y256959D01*
X172459Y256500D01*
X173378D01*
X173837Y256959D01*
X174755Y256500D02*
X175673D01*
X175214D01*
Y259255D01*
X174755Y258796D01*
X178888Y256500D02*
X177051D01*
X178888Y258337D01*
Y258796D01*
X178428Y259255D01*
X177510D01*
X177051Y258796D01*
X210204Y246837D02*
X209745Y246377D01*
Y245459D01*
X210204Y245000D01*
X212041D01*
X212500Y245459D01*
Y246377D01*
X212041Y246837D01*
X212500Y247755D02*
Y248673D01*
Y248214D01*
X209745D01*
X210204Y247755D01*
X212500Y250051D02*
Y250969D01*
Y250510D01*
X209745D01*
X210204Y250051D01*
X216204Y246896D02*
X215745Y246437D01*
Y245519D01*
X216204Y245059D01*
X218040D01*
X218500Y245519D01*
Y246437D01*
X218040Y246896D01*
X218500Y247814D02*
Y248733D01*
Y248274D01*
X215745D01*
X216204Y247814D01*
Y250110D02*
X215745Y250569D01*
Y251488D01*
X216204Y251947D01*
X218040D01*
X218500Y251488D01*
Y250569D01*
X218040Y250110D01*
X216204D01*
X160704Y285837D02*
X160245Y285378D01*
Y284459D01*
X160704Y284000D01*
X162541D01*
X163000Y284459D01*
Y285378D01*
X162541Y285837D01*
Y286755D02*
X163000Y287214D01*
Y288133D01*
X162541Y288592D01*
X160704D01*
X160245Y288133D01*
Y287214D01*
X160704Y286755D01*
X161163D01*
X161623Y287214D01*
Y288592D01*
X175704Y303837D02*
X175245Y303378D01*
Y302459D01*
X175704Y302000D01*
X177541D01*
X178000Y302459D01*
Y303378D01*
X177541Y303837D01*
X175704Y304755D02*
X175245Y305214D01*
Y306133D01*
X175704Y306592D01*
X176163D01*
X176622Y306133D01*
X177082Y306592D01*
X177541D01*
X178000Y306133D01*
Y305214D01*
X177541Y304755D01*
X177082D01*
X176622Y305214D01*
X176163Y304755D01*
X175704D01*
X176622Y305214D02*
Y306133D01*
X224337Y304796D02*
X223878Y305255D01*
X222959D01*
X222500Y304796D01*
Y302959D01*
X222959Y302500D01*
X223878D01*
X224337Y302959D01*
X225255Y305255D02*
X227092D01*
Y304796D01*
X225255Y302959D01*
Y302500D01*
X218337Y304796D02*
X217878Y305255D01*
X216959D01*
X216500Y304796D01*
Y302959D01*
X216959Y302500D01*
X217878D01*
X218337Y302959D01*
X221092Y305255D02*
X220173Y304796D01*
X219255Y303877D01*
Y302959D01*
X219714Y302500D01*
X220633D01*
X221092Y302959D01*
Y303418D01*
X220633Y303877D01*
X219255D01*
X247837Y275296D02*
X247377Y275755D01*
X246459D01*
X246000Y275296D01*
Y273459D01*
X246459Y273000D01*
X247377D01*
X247837Y273459D01*
X250592Y275755D02*
X248755D01*
Y274377D01*
X249673Y274837D01*
X250132D01*
X250592Y274377D01*
Y273459D01*
X250132Y273000D01*
X249214D01*
X248755Y273459D01*
X247837Y281296D02*
X247377Y281755D01*
X246459D01*
X246000Y281296D01*
Y279459D01*
X246459Y279000D01*
X247377D01*
X247837Y279459D01*
X250132Y279000D02*
Y281755D01*
X248755Y280378D01*
X250592D01*
X269204Y333837D02*
X268745Y333378D01*
Y332459D01*
X269204Y332000D01*
X271041D01*
X271500Y332459D01*
Y333378D01*
X271041Y333837D01*
X269204Y334755D02*
X268745Y335214D01*
Y336133D01*
X269204Y336592D01*
X269663D01*
X270123Y336133D01*
Y335673D01*
Y336133D01*
X270582Y336592D01*
X271041D01*
X271500Y336133D01*
Y335214D01*
X271041Y334755D01*
X223704Y333837D02*
X223245Y333378D01*
Y332459D01*
X223704Y332000D01*
X225541D01*
X226000Y332459D01*
Y333378D01*
X225541Y333837D01*
X226000Y336592D02*
Y334755D01*
X224163Y336592D01*
X223704D01*
X223245Y336133D01*
Y335214D01*
X223704Y334755D01*
X201204Y333837D02*
X200745Y333378D01*
Y332459D01*
X201204Y332000D01*
X203041D01*
X203500Y332459D01*
Y333378D01*
X203041Y333837D01*
X203500Y334755D02*
Y335673D01*
Y335214D01*
X200745D01*
X201204Y334755D01*
X165245Y370500D02*
X168000D01*
Y371878D01*
X167541Y372337D01*
X167082D01*
X166622Y371878D01*
Y370500D01*
Y371878D01*
X166163Y372337D01*
X165704D01*
X165245Y371878D01*
Y370500D01*
Y374633D02*
Y373714D01*
X165704Y373255D01*
X167541D01*
X168000Y373714D01*
Y374633D01*
X167541Y375092D01*
X165704D01*
X165245Y374633D01*
Y377388D02*
Y376469D01*
X165704Y376010D01*
X167541D01*
X168000Y376469D01*
Y377388D01*
X167541Y377847D01*
X165704D01*
X165245Y377388D01*
Y378765D02*
Y380602D01*
Y379683D01*
X168000D01*
X142000Y246000D02*
X140163D01*
X139245Y246918D01*
X140163Y247837D01*
X142000D01*
X140622D01*
Y246000D01*
X142000Y248755D02*
X139245D01*
X142000Y250592D01*
X139245D01*
Y251510D02*
Y253347D01*
Y252428D01*
X142000D01*
Y254265D02*
Y255183D01*
Y254724D01*
X139245D01*
X139704Y254265D01*
M02*
